<svg xmlns="http://www.w3.org/2000/svg" width="41.67" height="54.705" viewBox="0 0 41.67 54.705">
    <path d="M25.643 11.219a4.808 4.808 0 1 0-4.808 4.808 4.814 4.814 0 0 0 4.808-4.808zm-4.808 1.6a1.6 1.6 0 1 1 1.6-1.6 1.6 1.6 0 0 1-1.6 1.603zm0 0" data-name="Path 1175"/>
    <path d="M40.067 38.678h-1.6V33.87a1.6 1.6 0 0 0-1.6-1.6H22.438v-3.511a14.424 14.424 0 1 0-3.205 0v3.509H4.808a1.6 1.6 0 0 0-1.6 1.6v4.808H1.6a1.6 1.6 0 0 0-1.6 1.6v6.411a1.6 1.6 0 0 0 1.6 1.6h1.6V53.1a1.603 1.603 0 1 0 3.205 0v-4.806h1.6a1.6 1.6 0 0 0 1.6-1.6v-6.413a1.6 1.6 0 0 0-1.6-1.6h-1.6v-3.208h12.827v3.205h-1.6a1.6 1.6 0 0 0-1.6 1.6v6.411a1.6 1.6 0 0 0 1.6 1.6h1.6V53.1a1.603 1.603 0 1 0 3.205 0v-4.806h1.6a1.6 1.6 0 0 0 1.6-1.6v-6.413a1.6 1.6 0 0 0-1.6-1.6h-1.6v-3.208h12.822v3.205h-1.6a1.6 1.6 0 0 0-1.6 1.6v6.411a1.6 1.6 0 0 0 1.6 1.6h1.6V53.1a1.603 1.603 0 1 0 3.205 0v-4.806h1.6a1.6 1.6 0 0 0 1.6-1.6v-6.413a1.6 1.6 0 0 0-1.597-1.603zm-24.04-14.119v-.519a4.808 4.808 0 0 1 9.616 0v.519a11.156 11.156 0 0 1-4.806 1.084 11.156 11.156 0 0 1-4.806-1.084zM9.616 14.424a11.219 11.219 0 1 1 19.07 8.006 8.014 8.014 0 0 0-15.7 0 11.185 11.185 0 0 1-3.37-8.006zM6.411 45.089H3.205v-3.205h3.206zm16.027 0h-3.206v-3.205h3.205zm16.027 0h-3.206v-3.205h3.205zm0 0" data-name="Path 1176"/>
</svg>
