<svg xmlns="http://www.w3.org/2000/svg" width="95.685" height="85.384" viewBox="0 0 95.685 85.384">
    <defs>
        <style>
            .prefix__cls-2{fill:#5fb709}.prefix__cls-3{fill:#fff}
        </style>
    </defs>
    <g id="prefix__boom" transform="translate(-.001 .001)">
        <path id="prefix__Path_656" d="M101.661 82.009c-4.725 1.419-14.51 6.511-3.505 23.194.3.461-.255.989-.781.738-5.5-2.618-21.16-8.322-32.588 4.723a35.471 35.471 0 0 0-4.881 7.346.614.614 0 0 1-1.1-.058c-2.108-5.968-12.046-28.428-37.755-11.837-.532.344-1.2-.232-.834-.72 4.145-5.527 8.718-16.317-8.3-25.625a.506.506 0 0 1 .088-.94 38.9 38.9 0 0 0 8.516-4.266c6.292-4.3 11.8-11.759 2.728-23.053-.247-.31.225-.667.52-.4 14.964 13.422 29.94 15.8 36.612-2.54a.608.608 0 0 1 1.137.057c3.991 17.789 21.431 14.4 38.382 4 .542-.331 1.192.262.814.742-5.173 6.542-16.084 23.01.93 27.63a.514.514 0 0 1 .009 1.006zm0 0" data-name="Path 656" transform="translate(-9.516 -40.109)" style="fill:#5b9e19"/>
        <g id="prefix__Group_1896" data-name="Group 1896" transform="translate(1.949 3.503)">
            <path id="prefix__Path_657" d="M140.475 82.01c-4.737 1.419-14.549 6.511-3.515 23.194.3.461-.256.989-.784.738-5.516-2.618-21.217-8.322-32.675 4.723-2.579-6.806-12.728-27.165-37.601-11.153-.534.344-1.2-.232-.836-.72 3.95-5.252 8.287-15.257-5.934-24.226 6.309-4.3 11.827-11.759 2.735-23.053-.248-.31.226-.667.522-.4 14.947 13.371 29.973 15.926 36.71-2.54a.611.611 0 0 1 1.141.057c4 17.789 21.488 14.4 38.485 4 .543-.331 1.2.262.816.742-5.187 6.542-16.127 23.01.932 27.63a.514.514 0 0 1 .01 1.006zm0 0" class="prefix__cls-2" data-name="Path 657" transform="translate(-50.28 -43.612)"/>
            <path id="prefix__Path_658" d="M158.446 417.8l-3.895-.52a.858.858 0 0 1-.646-.432l-1.742-3.248a.893.893 0 0 0-1.54 0l-1.741 3.248a.858.858 0 0 1-.647.432l-3.895.52a.775.775 0 0 0-.476 1.347l2.818 2.528a.75.75 0 0 1 .247.7l-.665 3.569a.846.846 0 0 0 1.246.833l3.483-1.685a.927.927 0 0 1 .8 0l3.483 1.685a.845.845 0 0 0 1.245-.833l-.665-3.569a.75.75 0 0 1 .247-.7l2.818-2.528a.775.775 0 0 0-.475-1.347zm0 0" class="prefix__cls-2" data-name="Path 658" transform="translate(-118.598 -347.264)"/>
            <path id="prefix__Path_659" d="M22.134 101.246l-3.008-.4a.662.662 0 0 1-.5-.333L17.283 98a.689.689 0 0 0-1.189 0l-1.345 2.508a.662.662 0 0 1-.5.333l-3.008.4a.6.6 0 0 0-.367 1.04l2.176 1.952a.582.582 0 0 1 .191.54l-.514 2.756a.653.653 0 0 0 .962.643l2.69-1.3a.711.711 0 0 1 .617 0l2.69 1.3a.653.653 0 0 0 .962-.643l-.514-2.756a.581.581 0 0 1 .191-.54l2.176-1.952a.6.6 0 0 0-.367-1.04zm0 0" class="prefix__cls-2" data-name="Path 659" transform="translate(-10.674 -84.762)"/>
            <path id="prefix__Path_660" d="M319.576 25.482a.6.6 0 0 0-.367-1.041l-3.008-.4a.662.662 0 0 1-.5-.333l-1.344-2.508a.689.689 0 0 0-1.189 0l-1.345 2.508a.661.661 0 0 1-.5.333l-3.008.4a.6.6 0 0 0-.367 1.041l2.176 1.952a.581.581 0 0 1 .191.539l-.515 2.757a.653.653 0 0 0 .962.643l2.69-1.3a.716.716 0 0 1 .617 0l2.69 1.3a.653.653 0 0 0 .962-.643l-.514-2.756a.581.581 0 0 1 .191-.539zm0 0" class="prefix__cls-2" data-name="Path 660" transform="translate(-251.941 -20.858)"/>
        </g>
        <path id="prefix__Path_661" d="M13.177 79.514c0 7.083-6.693 12.841-6.759 12.9a1.18 1.18 0 0 0-.086 1.772A1.527 1.527 0 0 0 8.3 94.3a45.8 45.8 0 0 1 13.707-7.578 1.242 1.242 0 0 0 .873-1.616 1.458 1.458 0 0 0-1.8-.784 38.947 38.947 0 0 0-7.32 3.212c5.293-9.6.946-17.819-9.227-23.827 11.258-4.569 18.849-12.625 14.44-23.029 13.558 9.547 25.881 9.433 32.316-5.164 2.353 6.829 7.559 11.266 15.58 11.266 5.754 0 12.749-2.3 20.858-6.841-2.8 4.017-5.882 9.522-6.193 14.592a1.329 1.329 0 0 0 1.334 1.338 1.366 1.366 0 0 0 1.489-1.2c.516-8.417 10.062-18.83 10.158-18.934 1.059-1.145-.585-2.716-1.922-1.837-10.433 6.868-19.088 10.347-25.722 10.347-5.3 0-9.218-2.255-11.66-6.7a19.323 19.323 0 0 1-2.176-7.063 1.446 1.446 0 0 0-2.775-.258c-2.918 9.617-7.743 14.493-14.339 14.493-10.467 0-22.128-11.792-22.244-11.911a1.527 1.527 0 0 0-1.975-.131 1.184 1.184 0 0 0-.183 1.772c3.922 4.321 5.911 8.4 5.911 12.13 0 10.612-16.3 15.648-16.465 15.7a1.224 1.224 0 0 0-.258 2.3c8.274 4.283 12.47 9.308 12.47 14.936zm0 0" data-name="Path 661" transform="translate(0 -24.372)"/>
        <path id="prefix__Path_662" d="M204.484 208.216c-4.8-.919-7.9-2.762-9.222-5.477a1.43 1.43 0 0 0-1.824-.639 1.232 1.232 0 0 0-.695 1.678c1.232 2.527 3.534 4.443 6.868 5.725-4.52 2.012-7.273 5.594-7.273 10.519 0 3.363 1.286 7.285 3.831 11.7-14.122-5.742-27.305-2.352-35.249 12.071-3.86-9.61-11.324-17.8-22.507-16.929a1.307 1.307 0 0 0-1.26 1.373 1.351 1.351 0 0 0 1.492 1.159c7.2-.559 12.5 3.2 16.337 8.9a34.979 34.979 0 0 1 4.361 9.3 1.422 1.422 0 0 0 2.613.192c4.9-10.707 12.183-16.137 21.639-16.137A33.16 33.16 0 0 1 199.054 236c1.237.766 2.74-.581 1.934-1.739-3.908-5.615-5.889-10.4-5.889-14.236 0-7.994 8.916-9.256 9.292-9.305a1.257 1.257 0 0 0 .093-2.5zm0 0" data-name="Path 662" transform="translate(-109.892 -168.061)"/>
        <path id="prefix__Path_663" d="M89.575 10.268a16.9 16.9 0 0 1 12.661 4.585 15.5 15.5 0 0 1 3.481 4.935 1.379 1.379 0 0 0 1.3.85 1.29 1.29 0 0 0 1.3-1.688 17.687 17.687 0 0 0-4-5.764c-2.649-2.594-7.37-5.645-14.823-5.458a1.322 1.322 0 0 0-1.342 1.3 1.335 1.335 0 0 0 1.423 1.24zm0 0" data-name="Path 663" transform="translate(-71.576 -6.424)"/>
        <path id="prefix__Path_664" d="M389.71 12.8a15.878 15.878 0 0 0 14.51-4.758 21.383 21.383 0 0 0 4.286-6.331 1.244 1.244 0 0 0-.817-1.631 1.417 1.417 0 0 0-1.773.752c-.046.114-4.684 11.333-15.707 9.469a1.377 1.377 0 0 0-1.607 1.02 1.281 1.281 0 0 0 1.108 1.479zm0 0" data-name="Path 664" transform="translate(-315.425)"/>
        <path id="prefix__Path_665" d="M388.532 416.517c-6.823-.1-12.5-1.839-16.858-5.17a16.552 16.552 0 0 1-4.542-5.008 1.432 1.432 0 0 0-1.825-.63 1.231 1.231 0 0 0-.689 1.68 18.641 18.641 0 0 0 5.165 5.814c3.351 2.6 9.316 5.717 18.705 5.854a1.275 1.275 0 1 0 .044-2.54zm0 0" data-name="Path 665" transform="translate(-295.737 -337.468)"/>
        <path id="prefix__Path_666" d="M41.583 399.7a1.427 1.427 0 0 0-1.808.677 27.415 27.415 0 0 1-4.669 6.542 27.637 27.637 0 0 1-15.343 8.428 1.277 1.277 0 0 0-1.081 1.5 1.38 1.38 0 0 0 1.625 1 30.811 30.811 0 0 0 16.95-9.324 29.376 29.376 0 0 0 5.064-7.153 1.235 1.235 0 0 0-.738-1.661zm0 0" data-name="Path 666" transform="translate(-15.249 -332.484)"/>
        <path id="prefix__Path_667" d="M152.466 410.254l-3.624-.485-1.62-3.021a2.329 2.329 0 0 0-4.015 0l-1.621 3.021-3.623.485a2.02 2.02 0 0 0-1.241 3.513l2.622 2.352a32.2 32.2 0 0 0-.652 3.675 2.24 2.24 0 0 0 3.281 1.817l3.241-1.568c3.5 1.695 3.571 1.806 4.283 1.806a2.119 2.119 0 0 0 2.206-2.409l-.619-3.321 2.622-2.352a2.02 2.02 0 0 0-1.241-3.514zm-3.666 8.656c-4.079-1.973-3.121-1.962-7.179 0 .774-4.153 1.1-3.31-2.218-6.282 4.572-.612 3.779-.1 5.808-3.882 2.044 3.811 1.271 3.276 5.808 3.882-3.319 2.972-2.989 2.134-2.219 6.282zm0 0" data-name="Path 667" transform="translate(-110.476 -337.473)"/>
        <path id="prefix__Path_668" d="M5.641 98.616a21.4 21.4 0 0 0-.48 2.736 2.045 2.045 0 0 0 2.994 1.659l2.356-1.14c2.513 1.216 2.659 1.357 3.307 1.357a1.934 1.934 0 0 0 2.014-2.2l-.45-2.414c1.905-1.709 2.524-2.037 2.524-3.052a1.927 1.927 0 0 0-1.75-1.864l-2.634-.352-1.178-2.2a2.126 2.126 0 0 0-3.664 0L7.5 93.348l-2.634.352a1.844 1.844 0 0 0-1.132 3.207zm4.87-5.141c1.276 2.378 1.061 2.178 3.809 2.546-2.062 1.85-1.925 1.594-1.455 4.12-2.517-1.218-2.225-1.2-4.708 0 .468-2.516.618-2.26-1.455-4.12 2.823-.377 2.562-.222 3.809-2.546zm0 0" data-name="Path 668" transform="translate(-2.548 -74.97)"/>
        <path id="prefix__Path_669" d="M302.712 21.814a21.61 21.61 0 0 0-.48 2.737 1.967 1.967 0 0 0 2.043 1.877c.65 0 .8-.143 3.307-1.357 2.516 1.216 2.66 1.357 3.307 1.357a1.935 1.935 0 0 0 2.014-2.2l-.45-2.415c1.905-1.709 2.524-2.037 2.524-3.052a1.926 1.926 0 0 0-1.75-1.864l-2.634-.352-1.178-2.2a2.126 2.126 0 0 0-3.664 0l-1.178 2.2-2.634.352a1.844 1.844 0 0 0-1.133 3.207zm4.87-5.141c1.229 2.291.95 2.164 3.809 2.546-2.1 1.886-1.921 1.618-1.455 4.12-2.517-1.218-2.226-1.2-4.708 0 .463-2.486.653-2.229-1.455-4.12 2.753-.367 2.533-.167 3.809-2.545zm0 0" data-name="Path 669" transform="translate(-243.842 -11.069)"/>
        <path id="prefix__Path_670" d="M102.192 201.565c0-3.953-3.22-4.409-5.64-4.409h-4.09a1.166 1.166 0 0 0-1.3 1.081v15.629a1.179 1.179 0 0 0 1.3 1.081h4.688c3.54 0 5.491-1.859 5.491-5.235 0-1.812-.264-3.37-2.016-4.406a4.637 4.637 0 0 0 1.567-3.741zm-8.306-1.993c3.261 0 5.556-.383 5.556 2.154 0 2.878-1.98 2.453-5.556 2.453zm3.065 12.961h-3.065V206.5c4.123 0 6-.489 6 3.141 0 1.971-.934 2.889-2.939 2.889zm0 0" class="prefix__cls-3" data-name="Path 670" transform="translate(-74.068 -164.04)"/>
        <path id="prefix__Path_671" d="M164.938 202.552v7.114c0 3.444 2.092 5.419 5.74 5.419s5.74-1.975 5.74-5.419v-7.114c0-3.43-2.092-5.4-5.74-5.4s-5.74 1.97-5.74 5.4zm8.73 0v7.114c0 2.021-.978 3-2.99 3s-2.989-.982-2.989-3v-7.114c0-2.005.978-2.98 2.989-2.98s2.99.975 2.99 2.98zm0 0" class="prefix__cls-3" data-name="Path 671" transform="translate(-134.013 -164.04)"/>
        <path id="prefix__Path_672" d="M247.463 197.156c-3.648 0-5.74 1.966-5.74 5.4v7.114c0 3.444 2.092 5.42 5.74 5.42s5.74-1.976 5.74-5.42v-7.114c-.003-3.434-2.093-5.4-5.74-5.4zm2.989 12.51c0 2.021-.978 3-2.989 3s-2.99-.982-2.99-3v-7.114c0-2.005.978-2.98 2.99-2.98s2.989.974 2.989 2.98zm0 0" class="prefix__cls-3" data-name="Path 672" transform="translate(-196.401 -164.04)"/>
        <path id="prefix__Path_673" d="M332.2 214.949c.8 0 1.375-.465 1.375-1.1V198.4a1.23 1.23 0 0 0-1.375-1.242 2.211 2.211 0 0 0-1.812 1.33l-3.8 6.748-3.8-6.749a2.211 2.211 0 0 0-1.812-1.329 1.231 1.231 0 0 0-1.376 1.242v15.445c0 1.477 2.75 1.464 2.75 0v-10.89l3.076 5.438a1.252 1.252 0 0 0 2.3 0l3.1-5.4v10.85a1.234 1.234 0 0 0 1.375 1.1zm0 0" class="prefix__cls-3" data-name="Path 673" transform="translate(-259.626 -164.041)"/>
        <path id="prefix__Path_674" d="M411.336 288.294a1.58 1.58 0 1 0-1.7-1.564 1.644 1.644 0 0 0 1.7 1.564zm0 0" class="prefix__cls-3" data-name="Path 674" transform="translate(-332.637 -237.249)"/>
        <path id="prefix__Path_675" d="M412.7 211.31a1.329 1.329 0 0 0 1.381-1.27v-10.555a1.385 1.385 0 0 0-2.761 0v10.555a1.328 1.328 0 0 0 1.38 1.27zm0 0" class="prefix__cls-3" data-name="Path 675" transform="translate(-334.011 -164.922)"/>
    </g>
</svg>
