<svg xmlns="http://www.w3.org/2000/svg" width="420.703" height="279.397" viewBox="0 0 420.703 279.397">
    <defs>
        <style>
            .prefix__cls-1{fill:#5fb709}.prefix__cls-2{fill:#e0e0e0}.prefix__cls-4{fill:#f83a1f}.prefix__cls-5{fill:#d81721}.prefix__cls-7{fill:#ffa800}.prefix__cls-8{fill:#ffd200}
        </style>
    </defs>
    <g id="prefix__Group_3454" data-name="Group 3454" transform="translate(-1039.398 -6900.026)">
        <g id="prefix__Background_Complete" data-name="Background Complete" transform="translate(1039.398 6988.914)">
            <g id="prefix__Group_2216" data-name="Group 2216">
                <g id="prefix__Group_2207" data-name="Group 2207" transform="rotate(18.01 151.094 952.82)">
                    <g id="prefix__Group_2196" data-name="Group 2196">
                        <path id="prefix__Path_897" d="M18.111 134.113c-19.2-17.532-20.3-45.326-16.123-69.6.7-4.053.832-8.408 3.282-11.71s7.362-5.114 10.821-2.891c2.868 1.843 3.723 5.544 5.039 8.688a24.25 24.25 0 0 0 8.425 10.45c2.443 1.706 5.58 2.975 8.366 1.919 3.823-1.448 4.906-6.241 5.435-10.3l2.954-22.658c.528-4.053 1.08-8.188 2.883-11.856s5.107-6.851 9.159-7.393 8.573 2.342 8.855 6.418c.117 1.7-.458 3.362-.575 5.058s.424 3.665 1.977 4.356c1.572.7 3.37-.224 4.76-1.239 4.794-3.507 8.388-8.379 11.789-13.248S91.9 10.241 96.35 6.309 106.6-.426 112.52.053s11.691 4.919 12.4 10.815c.708 5.913-3.46 11.241-7.763 15.357a91.8 91.8 0 0 1-21.521 15.319c-1.418.728-2.954 1.515-3.654 2.947-1.259 2.576.966 5.614 3.543 6.873 2.922 1.424 6.282 1.567 9.43 2.378s6.423 2.68 7.226 5.831c1.113 4.371-2.988 8.226-6.827 10.593A79.385 79.385 0 0 1 80.329 80.2c-3.168.676-6.473 1.2-9.193 2.954s-4.687 5.2-3.607 8.249 4.73 4.49 7.969 4.345 6.3-1.449 9.467-2.157c5.925-1.326 13.152.059 16.106 5.363 1.941 3.488 1.548 7.918-.168 11.522s-4.593 6.514-7.587 9.152c-10.468 9.222-23.188 16.056-36.877 18.735s-25.974 2.225-38.329-4.252" class="prefix__cls-1" data-name="Path 897"/>
                    </g>
                    <g id="prefix__Group_2198" data-name="Group 2198" transform="translate(19.637 4.5)">
                        <g id="prefix__Group_2197" data-name="Group 2197">
                            <path id="prefix__Path_898" d="M0 139.492c2.221-9.534 1.659-12.475 7-24.265a363.759 363.759 0 0 1 19.94-37.05l5.732-9.446c1.888-3.1 3.759-6.165 5.778-9.055a182.707 182.707 0 0 1 12.564-15.947c4.247-4.88 8.456-9.359 12.425-13.52s7.761-7.955 11.355-11.275a146.614 146.614 0 0 1 18.133-14.4C95.2 3 96.994 1.87 98.223 1.118l1.4-.847c.318-.188.489-.271.489-.271s-.148.119-.455.325l-1.369.9c-1.205.786-2.981 1.947-5.226 3.506a153.3 153.3 0 0 0-17.97 14.523c-3.57 3.332-7.326 7.144-11.282 11.308S55.67 39.223 51.443 44.1a183.666 183.666 0 0 0-12.5 15.917c-2.006 2.88-3.861 5.927-5.751 9.032S29.4 75.307 27.468 78.5a371.161 371.161 0 0 0-19.947 36.961C2.162 127.21 2.695 130.1.423 139.592" class="prefix__cls-2" data-name="Path 898"/>
                        </g>
                    </g>
                    <g id="prefix__Group_2200" data-name="Group 2200" transform="translate(58.024 18.766)">
                        <g id="prefix__Group_2199" data-name="Group 2199">
                            <path id="prefix__Path_899" d="M.224 45.372a9.815 9.815 0 0 1-.137-1.783C.034 42.44.007 40.777 0 38.722c-.016-4.112.15-9.789.347-16.048S.61 10.744.505 6.643C.458 4.592.4 2.933.344 1.787A9.757 9.757 0 0 1 .329 0a10 10 0 0 1 .254 1.77c.132 1.143.256 2.8.358 4.857.219 4.109.221 9.8.024 16.065L.436 38.727l-.108 4.861a9.857 9.857 0 0 1-.104 1.784z" class="prefix__cls-2" data-name="Path 899"/>
                        </g>
                    </g>
                    <g id="prefix__Group_2202" data-name="Group 2202" transform="translate(58.248 60.679)">
                        <g id="prefix__Group_2201" data-name="Group 2201">
                            <path id="prefix__Path_900" d="M54.073.978a1.886 1.886 0 0 1-.555.014L51.939.911c-1.37-.078-3.351-.192-5.8-.254-4.904-.163-11.685-.143-19.16.211s-14.228.991-19.1 1.591c-2.437.283-4.4.566-5.761.756l-1.563.211A1.909 1.909 0 0 1 0 3.459 1.859 1.859 0 0 1 .533 3.3c.424-.089.936-.2 1.549-.325 1.348-.264 3.308-.615 5.743-.953C12.689 1.315 19.454.62 26.95.251s14.293-.306 19.2-.03c2.455.118 4.438.3 5.8.449l1.572.2a1.887 1.887 0 0 1 .551.108z" class="prefix__cls-2" data-name="Path 900"/>
                        </g>
                    </g>
                    <g id="prefix__Group_2204" data-name="Group 2204" transform="translate(9.895 48.692)">
                        <g id="prefix__Group_2203" data-name="Group 2203">
                            <path id="prefix__Path_901" d="M17.465 70.138a3.25 3.25 0 0 1-.26-.687c-.166-.524-.375-1.189-.633-2.011-.544-1.748-1.268-4.3-2.124-7.454-1.716-6.316-3.818-15.111-6.015-24.846S4.2 16.6 2.6 10.263C1.8 7.154 1.141 4.612.666 2.764L.146.724A3.281 3.281 0 0 1 0 0a3.412 3.412 0 0 1 .266.689C.429 1.211.638 1.878.9 2.7c.541 1.747 1.264 4.3 2.119 7.454C4.736 16.469 6.839 25.265 9.036 35s4.23 18.534 5.836 24.873l1.933 7.5.52 2.042a3.336 3.336 0 0 1 .14.723z" class="prefix__cls-2" data-name="Path 901"/>
                        </g>
                    </g>
                    <g id="prefix__Group_2206" data-name="Group 2206" transform="translate(27.361 106.158)">
                        <g id="prefix__Group_2205" data-name="Group 2205">
                            <path id="prefix__Path_902" d="M73.137.009a3.7 3.7 0 0 1-.737.174l-2.13.379-7.838 1.347C55.817 3.054 46.7 4.747 36.627 6.643S17.414 10.167 10.774 11.2c-3.32.52-6.009.915-7.873 1.154l-2.147.266a3.438 3.438 0 0 1-.755.05 3.533 3.533 0 0 1 .738-.17l2.129-.38 7.834-1.347c6.616-1.146 15.736-2.841 25.81-4.737s19.213-3.522 25.85-4.558C65.68.959 68.37.563 70.234.325l2.148-.267a3.525 3.525 0 0 1 .755-.049z" class="prefix__cls-2" data-name="Path 902"/>
                        </g>
                    </g>
                </g>
                <g id="prefix__Group_2215" data-name="Group 2215" transform="rotate(-17 216.954 32.424)">
                    <path id="prefix__Path_903" d="M1.882 1.408s5.479-6.234 17.969 7.53 18.083 22.139 18.083 22.139S41 33.84 42.7 31.026s3.166-9.879 7.379-9.824c4.37.056 6.936 4.218 7.971 11.076s3.855 21.8 4.116 23.153c.256 1.326 1.519 3.037 2.988 1.306s8.709-16.123 15.332-12.279 6.369 23.426 6.382 25.567.636 2.888 1.719 3.123 3.061-4.831 5.287-8.84 5.512-8.267 9.147-5.729 8.222 15.931 1.272 41.6l-4 11.684-12.131 2.588c-26.3 3.956-39.077-2.137-41.181-6.041s2.5-6.677 6.741-8.429 9.5-3.134 9.389-4.237-.781-1.807-2.906-2.067S38.6 91.425 35.545 84.4 47.616 71.842 49.5 70.582s.334-2.712-.954-3.118c-1.312-.414-15.833-4.932-22.527-6.748s-10.533-4.843-10.087-9.19c.43-4.191 7.615-4.831 10.606-6.2s.6-4.73.6-4.73-7.676-6.518-19.915-20.507S2 1.29 2 1.29" class="prefix__cls-1" data-name="Path 903"/>
                    <g id="prefix__Group_2208" data-name="Group 2208" transform="translate(13.09 13.716)">
                        <path id="prefix__Path_904" d="M0 0a1.839 1.839 0 0 1 .241.239l.674.733 2.552 2.85 9.346 10.516 30.966 34.574C55.9 62.394 66.822 74.65 74.649 83.588l9.232 10.617 2.484 2.908.637.764a1.788 1.788 0 0 1 .2.271 1.736 1.736 0 0 1-.242-.239l-.672-.733-2.552-2.849L74.4 83.812c-7.892-8.88-18.849-21.1-30.972-34.58S20.387 23.5 12.559 14.562L3.327 3.945.842 1.036.2.272A1.7 1.7 0 0 1 0 0z" class="prefix__cls-2" data-name="Path 904"/>
                    </g>
                    <g id="prefix__Group_2209" data-name="Group 2209" transform="translate(48.25 31.166)">
                        <path id="prefix__Path_905" d="M.184 0a25.382 25.382 0 0 1 .165 3.317l.25 8c.1 3.126.178 5.961.168 8.013C.761 20.361.738 21.192.7 21.766a3.2 3.2 0 0 1-.107.889 30.731 30.731 0 0 1-.164-3.315l-.308-8C.018 8.208-.02 5.373.01 3.32.027 2.294.05 1.464.086.89A3.291 3.291 0 0 1 .184 0z" class="prefix__cls-2" data-name="Path 905"/>
                    </g>
                    <g id="prefix__Group_2210" data-name="Group 2210" transform="translate(21.683 53.84)">
                        <path id="prefix__Path_906" d="M26.129.491c0 .132-5.853.155-13.067.052S0 .249 0 .117 5.852-.039 13.069.064s13.062.294 13.06.427z" class="prefix__cls-2" data-name="Path 906"/>
                    </g>
                    <g id="prefix__Group_2211" data-name="Group 2211" transform="translate(47.801 77.099)">
                        <path id="prefix__Path_907" d="M22.515.008a3.414 3.414 0 0 1-.841.359c-.55.2-1.355.473-2.354.792-2 .629-4.785 1.43-7.9 2.15s-5.973 1.239-8.046 1.55c-1.036.157-1.877.265-2.46.327A3.431 3.431 0 0 1 0 5.232a27.2 27.2 0 0 1 3.316-.707C5.37 4.13 8.2 3.567 11.31 2.842s5.9-1.463 7.917-2.009a26.97 26.97 0 0 1 3.288-.825z" class="prefix__cls-2" data-name="Path 907"/>
                    </g>
                    <g id="prefix__Group_2212" data-name="Group 2212" transform="translate(70.061 56.279)">
                        <path id="prefix__Path_908" d="M5.43 0a20.188 20.188 0 0 1-.63 3.072C4.352 4.954 3.7 7.545 2.952 10.4S1.5 15.835.967 17.694A20.123 20.123 0 0 1 .01 20.68a20.48 20.48 0 0 1 .63-3.071c.449-1.883 1.1-4.474 1.849-7.33S3.94 4.846 4.472 2.986A20.435 20.435 0 0 1 5.43 0z" class="prefix__cls-2" data-name="Path 908"/>
                    </g>
                    <g id="prefix__Group_2213" data-name="Group 2213" transform="translate(90.705 73.863)">
                        <path id="prefix__Path_909" d="M7.207 0a4.685 4.685 0 0 1-.193 1.063c-.189.772-.422 1.725-.7 2.853-.61 2.4-1.483 5.715-2.478 9.364s-1.917 6.949-2.611 9.33L.38 25.423a4.7 4.7 0 0 1-.372 1.014A4.672 4.672 0 0 1 .2 25.374q.283-1.159.7-2.853c.61-2.4 1.484-5.715 2.478-9.366S5.3 6.208 5.989 3.827l.845-2.813A4.646 4.646 0 0 1 7.207 0z" class="prefix__cls-2" data-name="Path 909"/>
                    </g>
                    <g id="prefix__Group_2214" data-name="Group 2214" transform="translate(61.964 99.612)">
                        <path id="prefix__Path_910" d="M28.743.007a5.452 5.452 0 0 1-1.092.385c-.71.221-1.745.513-3.028.86-2.568.686-6.135 1.564-10.111 2.369s-7.6 1.4-10.235 1.771c-1.316.186-2.384.316-3.122.394A5.44 5.44 0 0 1 0 5.858 5.322 5.322 0 0 1 1.129 5.6l3.1-.544c2.615-.453 6.225-1.1 10.191-1.906S21.956 1.526 24.541.924L27.6.212a5.306 5.306 0 0 1 1.143-.205z" class="prefix__cls-2" data-name="Path 910"/>
                    </g>
                </g>
            </g>
        </g>
        <g id="prefix__Group_2679" data-name="Group 2679" transform="translate(1117.914 6900.026)">
            <ellipse id="prefix__Ellipse_29" cx="127.146" cy="24.364" data-name="Ellipse 29" rx="127.146" ry="24.364" transform="translate(0 230.669)" style="fill:#e6ece0"/>
            <g id="prefix__Group_2678" data-name="Group 2678" transform="translate(7.335)">
                <path id="prefix__Path_1177" d="M305.082 209.474l-97.054 21.566-29.94 3.96-19.909-3.894-89.337-29.778L178 187.208z" class="prefix__cls-4" data-name="Path 1177" transform="translate(-68.842 -126.089)"/>
                <path id="prefix__Path_1178" d="M173.121 219.808V365.9l-.087-.027-77.046-24.958-17.629-108.366-5.252-32.292 80.1 15.657 19.822 3.877z" class="prefix__cls-4" data-name="Path 1178" transform="translate(-63.876 -110.897)"/>
                <path id="prefix__Path_1179" d="M119.321 363.559l103.279-28.24 11.766-133.055-115.045 15.207z" class="prefix__cls-4" data-name="Path 1179" transform="translate(-10.075 -108.56)"/>
                <path id="prefix__Path_1180" d="M305.082 201.879l-3.259 45.621-11.97 1.792-111.765 16.73L178 266l-94.674-25.856-12.855-3.508-1.629-42.9L178 216.542z" class="prefix__cls-4" data-name="Path 1180" transform="translate(-68.842 -118.493)"/>
                <path id="prefix__Path_1181" d="M178 216.542v156.923l-77.046-24.955-14.4-88.533-3.226-19.833-12.855-3.508-1.629-42.9z" class="prefix__cls-5" data-name="Path 1181" transform="translate(-68.842 -118.493)"/>
                <path id="prefix__Path_1182" d="M170.3 241.055l-.087 15.51-91.453-21.554-3.226-19.833 94.675 25.856z" data-name="Path 1182" transform="translate(-61.05 -93.527)" style="fill:#ab111d"/>
                <path id="prefix__Path_1183" d="M119.281 236.164l111.875-16.836-1.5 16.9-110.373 15.69z" class="prefix__cls-5" data-name="Path 1183" transform="translate(-10.122 -88.695)"/>
                <g id="prefix__Group_2676" data-name="Group 2676" transform="translate(44.903 1.449)">
                    <path id="prefix__Path_1184" d="M116.358 173.782s-11.9 10.5-2.671 24.079c6.726 9.89 37.473 27.7 37.473 27.7h-5.973s-34.216-6.519-48.878-26.07 2.08-43.269 20.049-25.709z" class="prefix__cls-7" data-name="Path 1184" transform="translate(-88.291 -150.319)"/>
                    <path id="prefix__Path_1185" d="M146.486 234.875s-68.769-22.568-47.248-51.051c18.465-24.438 53.222 51.051 53.222 51.051h12.492s-4.889-94.5-57.567-71.686c-33.347 14.437-19.553 68.427 39.101 71.686z" class="prefix__cls-8" data-name="Path 1185" transform="translate(-89.59 -159.636)"/>
                </g>
                <g id="prefix__Group_2677" data-name="Group 2677" transform="translate(107.772)">
                    <path id="prefix__Path_1186" d="M159.214 173.114s11.9 10.5 2.671 24.079c-6.726 9.888-37.473 27.7-37.473 27.7h5.973s34.214-6.519 48.878-26.07-2.08-43.272-20.049-25.709z" class="prefix__cls-7" data-name="Path 1186" transform="translate(-111.92 -149.649)"/>
                    <path id="prefix__Path_1187" d="M137.1 234.207s68.769-22.568 47.248-51.051c-18.465-24.438-53.222 51.051-53.222 51.051H118.64s4.889-94.5 57.567-71.689c33.346 14.44 19.551 68.43-39.107 71.689z" class="prefix__cls-8" data-name="Path 1187" transform="translate(-118.64 -158.967)"/>
                </g>
                <path id="prefix__Path_1188" d="M151.343 193.732l-62.869 8.878 2.415 45.841 6.036 106.156 26.363 8.539.243-152.5 40.3-16.917z" class="prefix__cls-7" data-name="Path 1188" transform="translate(-45.986 -118.493)"/>
                <path id="prefix__Path_1189" d="M117.19 194.692l52.678 15.208-2.592 152.328 27.2-7.438 5.2-107.341 2.415-45.841-62.869-8.878z" class="prefix__cls-8" data-name="Path 1189" transform="translate(-12.556 -119.662)"/>
                <path id="prefix__Path_1190" d="M89.59 219.017l32.567 8.894v16.717l-31.663-7.463z" data-name="Path 1190" transform="translate(-44.687 -89.058)" style="fill:#e27c00"/>
                <path id="prefix__Path_1191" d="M141.32 226.194l30.267-4.419-.793 16.375-29.814 4.238z" class="prefix__cls-7" data-name="Path 1191" transform="translate(15.139 -85.846)"/>
            </g>
        </g>
    </g>
</svg>
