<svg xmlns="http://www.w3.org/2000/svg" xmlns:xlink="http://www.w3.org/1999/xlink" width="80" height="80" viewBox="0 0 80 80">
  <defs>
    <clipPath id="clip-path">
      <rect id="Rectangle_140" data-name="Rectangle 140" width="80" height="80" transform="translate(256 2432)" fill="#737373"/>
    </clipPath>
  </defs>
  <g id="Mask_Group_17" data-name="Mask Group 17" transform="translate(-256 -2432)" clip-path="url(#clip-path)">
    <path id="rating" d="M52.462,55.411,47.8,58.772a1.956,1.956,0,0,0-.718,2.2L48.961,66.4a1.972,1.972,0,0,1,.1.7A2.06,2.06,0,0,1,45.821,68.6l-4.659-3.362a1.989,1.989,0,0,0-2.325,0L34.179,68.6a2.059,2.059,0,0,1-3.24-1.491,2,2,0,0,1,.1-.7l1.874-5.438a1.956,1.956,0,0,0-.718-2.2l-4.659-3.361a2.108,2.108,0,0,1,1.163-3.77h5.758A1.8,1.8,0,0,0,36.34,50.5l1.779-5.473a1.982,1.982,0,0,1,3.762,0L43.66,50.5a1.8,1.8,0,0,0,1.881,1.139H51.3A2.108,2.108,0,0,1,52.462,55.411ZM79.181,66.348l-4.659,3.361a1.956,1.956,0,0,0-.718,2.2l1.876,5.438a1.972,1.972,0,0,1,.1.7,2.06,2.06,0,0,1-3.239,1.491l-4.659-3.362a1.989,1.989,0,0,0-2.325,0L60.9,79.538a2.059,2.059,0,0,1-3.24-1.491,2,2,0,0,1,.1-.7L59.634,71.9a1.956,1.956,0,0,0-.718-2.2l-4.659-3.361a2.108,2.108,0,0,1,1.163-3.77h5.758a1.8,1.8,0,0,0,1.881-1.139l1.779-5.473a1.982,1.982,0,0,1,3.762,0l1.779,5.473a1.8,1.8,0,0,0,1.881,1.139h5.758A2.108,2.108,0,0,1,79.181,66.348Zm-53.437,0-4.659,3.361a1.956,1.956,0,0,0-.718,2.2l1.876,5.438a1.972,1.972,0,0,1,.1.7A2.06,2.06,0,0,1,19.1,79.538l-4.659-3.362a1.989,1.989,0,0,0-2.325,0L7.46,79.538a2.059,2.059,0,0,1-3.24-1.491,2,2,0,0,1,.1-.7L6.2,71.9a1.956,1.956,0,0,0-.718-2.2L.819,66.348a2.108,2.108,0,0,1,1.162-3.77H7.74a1.8,1.8,0,0,0,1.881-1.139L11.4,55.966a1.982,1.982,0,0,1,3.762,0l1.779,5.473a1.8,1.8,0,0,0,1.881,1.139h5.758A2.108,2.108,0,0,1,25.743,66.348Z" transform="translate(256 2432)" fill="#5fb709"/>
    <path id="rating-2" data-name="rating" d="M12.95,48.613a3.124,3.124,0,0,0,4.335-.859A27.18,27.18,0,0,1,62.407,47.7a3.125,3.125,0,0,0,5.186-3.489,33.352,33.352,0,0,0-16.44-12.8,17.656,17.656,0,1,0-22.39-.07A33.344,33.344,0,0,0,12.09,44.278,3.125,3.125,0,0,0,12.95,48.613ZM40,6.328A11.406,11.406,0,1,1,28.594,17.734,11.419,11.419,0,0,1,40,6.328Z" transform="translate(256 2432)"/>
  </g>
</svg>
