<svg xmlns="http://www.w3.org/2000/svg" width="80" height="80" viewBox="0 0 80 80">
    <defs>
        <clipPath id="prefix__clip-path">
            <path id="prefix__Rectangle_140" d="M0 0H80V80H0z" data-name="Rectangle 140" transform="translate(256 2432)" style="fill:#737373"/>
        </clipPath>
        <style>
            .prefix__cls-3{fill:#5fb709}
        </style>
    </defs>
    <g id="prefix__Mask_Group_11" data-name="Mask Group 11" transform="translate(-256 -2432)">
        <path id="prefix__Polygon_1" d="M13.5 0L27 14H0z" class="prefix__cls-3" data-name="Polygon 1" transform="translate(270 2437)"/>
        <path id="prefix__Polygon_2" d="M15 0l15 14H0z" class="prefix__cls-3" data-name="Polygon 2" transform="translate(290 2437)"/>
        <g id="prefix__wallet" transform="translate(246.769 2422.339)">
            <path id="prefix__Path_1440" d="M81.292 27.692L62.338 11.569a6.154 6.154 0 0 0-7.692-.246l-8.215 6.154-5.169-5.169a6.154 6.154 0 0 0-8.677 0L17.2 27.846a9.231 9.231 0 0 0-7.969 9.077V80a9.231 9.231 0 0 0 9.231 9.231H80A9.231 9.231 0 0 0 89.23 80V36.923a9.231 9.231 0 0 0-7.938-9.231zm1.785 36.923h-6.154a6.154 6.154 0 1 1 0-12.308h6.154zM58.461 16.246l13.231 11.446H56.646l-5.816-5.815zm-21.538.4l11.046 11.046H25.877zM80 83.076H18.461A3.077 3.077 0 0 1 15.385 80V36.923a3.077 3.077 0 0 1 3.077-3.077H80a3.077 3.077 0 0 1 3.077 3.077v9.231h-6.154a12.308 12.308 0 1 0 0 24.615h6.154V80A3.077 3.077 0 0 1 80 83.076z" data-name="Path 1440"/>
            <path id="prefix__Path_1441" d="M74.738 56.277a3.231 3.231 0 0 0-.892 2.185 3.077 3.077 0 1 0 .892-2.185z" data-name="Path 1441"/>
        </g>
    </g>
</svg>
