<svg xmlns="http://www.w3.org/2000/svg" width="80" height="80" viewBox="0 0 80 80">
    <defs>
        <clipPath id="prefix__clip-path">
            <path id="prefix__Rectangle_143" d="M0 0H80V80H0z" data-name="Rectangle 143" transform="translate(256 2432)" style="fill:#737373"/>
        </clipPath>
        <style>
            .prefix__cls-3{stroke:#000}
        </style>
    </defs>
    <g id="prefix__Mask_Group_23" data-name="Mask Group 23" transform="translate(-256 -2432)">
        <g id="prefix__earnings" transform="translate(254.172 2430.17)">
            <g id="prefix__Group_3542" data-name="Group 3542">
                <path id="prefix__Path_1463" d="M68.644 58.676h-5.278a13.069 13.069 0 0 0-13.1 12.941V79.1a46.471 46.471 0 0 0 15.649 2.73 61.865 61.865 0 0 0 15.833-2.549v-7.663a13.08 13.08 0 0 0-13.1-12.941zM78.35 76.9a55.553 55.553 0 0 1-12.418 1.7 45.715 45.715 0 0 1-12.418-1.7h.163v-5.119a9.594 9.594 0 0 1 9.706-9.706h5.277a9.814 9.814 0 0 1 9.706 9.706V76.9z" class="prefix__cls-3" data-name="Path 1463"/>
                <path id="prefix__Path_1464" d="M57.32 48.529A8.678 8.678 0 1 0 66 40.016a8.585 8.585 0 0 0-8.68 8.513zm13.954 0A5.278 5.278 0 1 1 66 43.252a5.214 5.214 0 0 1 5.275 5.277z" class="prefix__cls-3" data-name="Path 1464"/>
                <path id="prefix__Path_1465" d="M20.131 58.856h-5.278A12.826 12.826 0 0 0 1.912 71.8v7.484a49.342 49.342 0 0 0 15.653 2.546 61.491 61.491 0 0 0 15.654-2.549V71.8a13.055 13.055 0 0 0-13.088-12.944zM30 76.9a55.553 55.553 0 0 1-12.418 1.7 45.715 45.715 0 0 1-12.419-1.7v-5.119a9.594 9.594 0 0 1 9.706-9.706h5.441a9.814 9.814 0 0 1 9.706 9.706V76.9z" class="prefix__cls-3" data-name="Path 1465"/>
                <path id="prefix__Path_1466" d="M17.582 57.042a8.515 8.515 0 1 0 0-17.026 8.564 8.564 0 0 0-8.676 8.513 8.66 8.66 0 0 0 8.676 8.513zm0-13.775a5 5 0 0 1 5.278 5.278 5.278 5.278 0 1 1-5.278-5.278z" class="prefix__cls-3" data-name="Path 1466"/>
                <path id="prefix__Path_1467" d="M67.958 1.83h-52.6v34.379h52.6zm-3.236 30.98H18.775V5.229h45.964V32.81z" class="prefix__cls-3" data-name="Path 1467"/>
                <path id="prefix__Path_1468" d="M36.814 22.092l-2.549 3.072a12.238 12.238 0 0 0 6.291 3.072v1.879h2.892v-1.88a8.287 8.287 0 0 0 4.085-1.7 4.978 4.978 0 0 0 1.536-3.742 4.879 4.879 0 0 0-1.356-3.578 9.9 9.9 0 0 0-4.248-2.042v-3.938a7.813 7.813 0 0 1 3.235 1.536l2.206-3.235a12.27 12.27 0 0 0-5.442-2.206V7.974h-3.072v1.7a6.388 6.388 0 0 0-3.922 1.7 4.978 4.978 0 0 0-1.536 3.742 4.879 4.879 0 0 0 1.356 3.578 14.692 14.692 0 0 0 4.248 1.879v3.922a12.631 12.631 0 0 1-3.725-2.4zm6.634-.85a2.59 2.59 0 0 1 1.029.686 1.311 1.311 0 0 1 .343.85c0 .85-.343 1.356-1.356 1.7v-3.236zm-4.1-6.65c0-.85.343-1.193 1.193-1.536v3.235c-.85-.507-1.193-1.013-1.193-1.7z" data-name="Path 1468" style="fill:#5fb709"/>
            </g>
        </g>
    </g>
</svg>
