<svg xmlns="http://www.w3.org/2000/svg" width="80" height="80" viewBox="0 0 80 80">
    <defs>
        <clipPath id="prefix__clip-path">
            <path id="prefix__Rectangle_142" d="M0 0H80V80H0z" class="prefix__cls-1" data-name="Rectangle 142" transform="translate(256 2432)"/>
        </clipPath>
        <style>
            .prefix__cls-1,.prefix__cls-3{stroke:#000;stroke-width:1.6px}.prefix__cls-3{fill:#5fb709;stroke:#5fb709}
        </style>
    </defs>
    <g id="prefix__Mask_Group_20" data-name="Mask Group 20" transform="translate(-256 -2432)">
        <g id="prefix__direction" transform="translate(258.774 2440.009)">
            <path id="prefix__Path_1456" d="M41.346 67.079a1.454 1.454 0 1 0-1.454 1.454 1.455 1.455 0 0 0 1.454-1.454zm0 0" class="prefix__cls-1" data-name="Path 1456" transform="translate(-2.666 -4.552)"/>
            <path id="prefix__Path_1457" d="M13.377 65.132a1.468 1.468 0 0 0 1.164.583h16.868a1.454 1.454 0 1 0 0-2.908H17.384c3.572-5.056 11.7-17.124 11.7-23.266a14.541 14.541 0 1 0-29.084 0c0 6.62 9.743 20.74 13.377 25.591zm1.164-37.224a11.646 11.646 0 0 1 11.633 11.633c0 5-7.555 16.57-11.633 22.257-4.078-5.687-11.633-17.256-11.633-22.257a11.646 11.646 0 0 1 11.633-11.633zm0 0" class="prefix__cls-3" data-name="Path 1457" transform="translate(0 -1.734)"/>
            <path id="prefix__Path_1458" d="M22.354 40.083a7.271 7.271 0 1 0-7.271 7.271 7.279 7.279 0 0 0 7.271-7.271zm-11.633 0a4.362 4.362 0 1 1 4.362 4.362 4.367 4.367 0 0 1-4.362-4.362zm0 0" class="prefix__cls-3" data-name="Path 1458" transform="translate(-.542 -2.276)"/>
            <path id="prefix__Path_1459" d="M64.03 0a13.1 13.1 0 0 0-13.087 13.087c0 5.351 6.784 14.66 10.068 18.9H47.162a8.725 8.725 0 1 0 0 17.45h9.6a5.817 5.817 0 0 1 0 11.633H45.708a1.454 1.454 0 1 0 0 2.908H56.76a8.725 8.725 0 0 0 0-17.45h-9.6a5.817 5.817 0 1 1 0-11.633h16.87a1.471 1.471 0 0 0 1.117-.523c3.551-4.255 11.97-15.43 11.97-21.289A13.1 13.1 0 0 0 64.03 0zm0 31.138c-3.619-4.561-10.179-13.723-10.179-18.051a10.179 10.179 0 1 1 20.358 0c0 4.328-6.559 13.49-10.179 18.051zm0 0" class="prefix__cls-1" data-name="Path 1459" transform="translate(-2.666)"/>
            <path id="prefix__Path_1460" d="M65.5 7.813a5.817 5.817 0 1 0 5.817 5.817A5.823 5.823 0 0 0 65.5 7.813zm0 8.725a2.908 2.908 0 1 1 2.908-2.908 2.912 2.912 0 0 1-2.908 2.907zm0 0" class="prefix__cls-1" data-name="Path 1460" transform="translate(-4.14 -.542)"/>
        </g>
    </g>
</svg>
