<svg xmlns="http://www.w3.org/2000/svg" width="80" height="80" viewBox="0 0 80 80">
    <defs>
        <clipPath id="prefix__clip-path">
            <path id="prefix__Rectangle_140" d="M0 0H80V80H0z" data-name="Rectangle 140" transform="translate(256 2432)" style="stroke-width:1.2px;stroke:#000;fill:#737373"/>
        </clipPath>
        <style>
            .prefix__cls-3{stroke:#000;stroke-width:1.2px}
        </style>
    </defs>
    <g id="prefix__Mask_Group_13" data-name="Mask Group 13" transform="translate(-256 -2432)">
        <g id="prefix__cloche" transform="translate(256 2432)">
            <g id="prefix__Group_3537" data-name="Group 3537">
                <g id="prefix__Group_3536" data-name="Group 3536">
                    <path id="prefix__Path_1445" d="M27.591 29.523a28.294 28.294 0 0 0-12.132 11.309 1.666 1.666 0 1 0 2.884 1.67 25 25 0 0 1 10.71-9.984 1.666 1.666 0 0 0-1.462-2.995z" class="prefix__cls-3" data-name="Path 1445"/>
                    <path id="prefix__Path_1446" d="M78.333 53.333h-3.417a35.006 35.006 0 0 0-30.34-33 5 5 0 1 0-9.151 0 35.006 35.006 0 0 0-30.34 33H1.667A1.666 1.666 0 0 0 0 55v1.67a12.629 12.629 0 0 0 2.129 7.03 6.652 6.652 0 0 0 5.547 2.969h64.648a6.656 6.656 0 0 0 5.548-2.97A12.635 12.635 0 0 0 80 56.67V55a1.666 1.666 0 0 0-1.667-1.667zM40 16.667a1.667 1.667 0 1 1-1.667 1.667A1.668 1.668 0 0 1 40 16.667zm0 6.667a31.679 31.679 0 0 1 31.582 30H8.418A31.679 31.679 0 0 1 40 23.333zM76.667 56.67a9.306 9.306 0 0 1-1.567 5.179 3.328 3.328 0 0 1-2.773 1.484H7.676A3.328 3.328 0 0 1 4.9 61.847a9.312 9.312 0 0 1-1.567-5.177h73.334z" class="prefix__cls-3" data-name="Path 1446"/>
                </g>
            </g>
            <g id="prefix__Ellipse_47" data-name="Ellipse 47" transform="translate(47 1)" style="fill:#5fb709;stroke-width:3.8px;stroke:#000">
                <circle cx="16" cy="16" r="16" style="stroke:none"/>
                <circle cx="16" cy="16" r="14.1" style="fill:none"/>
            </g>
            <path id="prefix__check" d="M6.125 12.587a.816.816 0 0 1-1.155 0L.359 7.975a1.224 1.224 0 0 1 0-1.732l.577-.578a1.225 1.225 0 0 1 1.732 0l2.879 2.879L13.326.765a1.225 1.225 0 0 1 1.732 0l.577.578a1.224 1.224 0 0 1 0 1.732zm0 0" transform="translate(55.061 9.927)" style="fill:#f3f9ec"/>
        </g>
    </g>
</svg>
