<svg xmlns="http://www.w3.org/2000/svg" width="80" height="80" viewBox="0 0 80 80">
    <defs>
        <clipPath id="prefix__clip-path">
            <path id="prefix__Rectangle_140" d="M0 0H80V80H0z" data-name="Rectangle 140" transform="translate(256 2432)" style="fill:#737373"/>
        </clipPath>
        <style>
            .prefix__cls-3{fill:#5fb709}
        </style>
    </defs>
    <g id="prefix__Mask_Group_9" data-name="Mask Group 9" transform="translate(-256 -2432)">
        <g id="prefix__shopping-cart" transform="translate(256 2432)">
            <g id="prefix__Group_3525" data-name="Group 3525">
                <g id="prefix__Group_3524" data-name="Group 3524">
                    <g id="prefix__Group_3523" data-name="Group 3523">
                        <path id="prefix__Path_1422" d="M28.158 61.725a9.138 9.138 0 1 0 9.142 9.137 9.147 9.147 0 0 0-9.142-9.137zm0 12.682a3.543 3.543 0 1 1 3.542-3.544 3.547 3.547 0 0 1-3.542 3.544z" class="prefix__cls-3" data-name="Path 1422"/>
                        <path id="prefix__Path_1423" d="M61.353 61.725a9.138 9.138 0 1 0 9.138 9.138 9.148 9.148 0 0 0-9.138-9.138zm0 12.681a3.543 3.543 0 1 1 3.547-3.544 3.548 3.548 0 0 1-3.547 3.544z" class="prefix__cls-3" data-name="Path 1423"/>
                        <path id="prefix__Path_1424" d="M24.149 58.929h43.543a2.8 2.8 0 1 0 0-5.594H26.528L18.519 4.213a2.8 2.8 0 0 0-2.282-2.306L5.515.042a2.8 2.8 0 1 0-.96 5.511l8.762 1.524 8.071 49.5a2.8 2.8 0 0 0 2.761 2.352z" data-name="Path 1424"/>
                    </g>
                </g>
            </g>
            <g id="prefix__Group_3527" data-name="Group 3527">
                <g id="prefix__Group_3526" data-name="Group 3526">
                    <path id="prefix__Path_1425" d="M77.225 18.12a2.8 2.8 0 0 0-2.26-1.15H18.088v5.594h53.04l-5.754 17.9H22.1v5.594h45.313a2.8 2.8 0 0 0 2.663-1.941l7.553-23.5a2.8 2.8 0 0 0-.404-2.497z" data-name="Path 1425"/>
                </g>
            </g>
        </g>
    </g>
</svg>
