<svg xmlns="http://www.w3.org/2000/svg" width="80" height="80" viewBox="0 0 80 80">
    <defs>
        <clipPath id="prefix__clip-path">
            <path id="prefix__Rectangle_140" d="M0 0H80V80H0z" data-name="Rectangle 140" transform="translate(256 2432)" style="fill:#737373"/>
        </clipPath>
        <style>
            .prefix__cls-3{fill:#5fb709}
        </style>
    </defs>
    <g id="prefix__Mask_Group_12" data-name="Mask Group 12" transform="translate(-256 -2432)">
        <g id="prefix__coins" transform="translate(256 2432)">
            <g id="prefix__Group_3531" data-name="Group 3531">
                <g id="prefix__Group_3530" data-name="Group 3530">
                    <path id="prefix__Path_1442" d="M23.695 54.073a3.648 3.648 0 1 1 3.648-3.648 2.226 2.226 0 0 0 4.452 0 8.071 8.071 0 0 0-5.874-7.771V42a2.226 2.226 0 0 0-4.452 0v.658a8.083 8.083 0 0 0 2.213 15.858 3.648 3.648 0 1 1-3.648 3.648 2.226 2.226 0 0 0-4.452 0 8.071 8.071 0 0 0 5.874 7.771v.658a2.226 2.226 0 0 0 4.452 0v-.658a8.083 8.083 0 0 0-2.213-15.858z" class="prefix__cls-3" data-name="Path 1442"/>
                </g>
            </g>
            <g id="prefix__Group_3533" data-name="Group 3533">
                <g id="prefix__Group_3532" data-name="Group 3532">
                    <path id="prefix__Path_1443" d="M53.316 24.439a4.472 4.472 0 1 1 4.465-4.478 2.226 2.226 0 1 0 4.452 0 8.9 8.9 0 0 0-6.691-8.627V10.32a2.226 2.226 0 1 0-4.452 0v1.014a8.92 8.92 0 0 0 2.226 17.556 4.465 4.465 0 1 1-4.465 4.465 2.226 2.226 0 0 0-4.452 0 8.9 8.9 0 0 0 6.691 8.627v.988a2.226 2.226 0 1 0 4.452 0v-.988a8.912 8.912 0 0 0-2.226-17.543z" class="prefix__cls-3" data-name="Path 1443"/>
                </g>
            </g>
            <g id="prefix__Group_3535" data-name="Group 3535">
                <g id="prefix__Group_3534" data-name="Group 3534">
                    <path id="prefix__Path_1444" d="M53.316.007a26.7 26.7 0 0 0-26.671 26.671 26.107 26.107 0 0 0 .738 6.138.446.446 0 0 0-.013.132 24.441 24.441 0 0 0-3.688-.3 23.675 23.675 0 1 0 23.681 23.664 21.892 21.892 0 0 0-.316-3.727A26.665 26.665 0 1 0 53.316.007zM23.695 75.542a19.23 19.23 0 1 1 0-38.459 18.715 18.715 0 0 1 5.426.79A26.933 26.933 0 0 0 42.147 50.9a19.192 19.192 0 0 1-18.452 24.642zm29.621-26.658a22.246 22.246 0 0 1-20.375-13.369h2.173a2.226 2.226 0 0 0 0-4.452h-3.569a22.184 22.184 0 0 1-.435-4.412v-.026h9.575a2.226 2.226 0 0 0 0-4.452h-9.114a22.224 22.224 0 1 1 21.745 26.71z" data-name="Path 1444"/>
                </g>
            </g>
        </g>
    </g>
</svg>
