<svg xmlns="http://www.w3.org/2000/svg" width="80" height="80" viewBox="0 0 80 80">
    <defs>
        <clipPath id="prefix__clip-path">
            <path id="prefix__Rectangle_144" d="M0 0H80V80H0z" data-name="Rectangle 144" transform="translate(256 2432)" style="fill:#737373"/>
        </clipPath>
        <style>
            .prefix__cls-3{fill:#5fb709}
        </style>
    </defs>
    <g id="prefix__Mask_Group_24" data-name="Mask Group 24" transform="translate(-256 -2432)">
        <g id="prefix__chat" transform="translate(256 2432)">
            <g id="prefix__Group_3544" data-name="Group 3544">
                <g id="prefix__Group_3543" data-name="Group 3543">
                    <path id="prefix__Path_1469" d="M72.969 23.592H56.563V11.874a7.039 7.039 0 0 0-7.031-7.031H7.031A7.039 7.039 0 0 0 0 11.874V40a7.039 7.039 0 0 0 7.031 7.03h2.344v7.031a2.346 2.346 0 0 0 3.644 1.95l10.419-6.946v9.683a7.039 7.039 0 0 0 7.031 7.031h23.04l13.472 8.981a2.345 2.345 0 0 0 3.644-1.95v-7.03h2.344A7.039 7.039 0 0 0 80 58.749V30.624a7.039 7.039 0 0 0-7.031-7.032zM24.475 42.74h-.007l-10.405 6.942v-5a2.344 2.344 0 0 0-2.344-2.344H7.031A2.346 2.346 0 0 1 4.688 40V11.874A2.346 2.346 0 0 1 7.031 9.53h42.5a2.346 2.346 0 0 1 2.344 2.344V40a2.346 2.346 0 0 1-2.344 2.344h-23.75a2.382 2.382 0 0 0-1.306.396zm50.838 16.009a2.346 2.346 0 0 1-2.344 2.344h-4.688a2.344 2.344 0 0 0-2.344 2.344v5l-10.418-6.951a2.343 2.343 0 0 0-1.3-.394h-23.75a2.346 2.346 0 0 1-2.344-2.344V47.03h21.406A7.039 7.039 0 0 0 56.563 40V28.28h16.406a2.346 2.346 0 0 1 2.344 2.344z" data-name="Path 1469"/>
                </g>
            </g>
            <g id="prefix__Group_3546" data-name="Group 3546">
                <g id="prefix__Group_3545" data-name="Group 3545">
                    <path id="prefix__Path_1470" d="M30.469 28.28h-18.75a2.344 2.344 0 0 0 0 4.688h18.75a2.344 2.344 0 0 0 0-4.688z" class="prefix__cls-3" data-name="Path 1470"/>
                </g>
            </g>
            <g id="prefix__Group_3548" data-name="Group 3548">
                <g id="prefix__Group_3547" data-name="Group 3547">
                    <path id="prefix__Path_1471" d="M44.844 18.9H11.719a2.344 2.344 0 0 0 0 4.688h33.125a2.344 2.344 0 1 0 0-4.688z" class="prefix__cls-3" data-name="Path 1471"/>
                </g>
            </g>
        </g>
    </g>
</svg>
