<svg xmlns="http://www.w3.org/2000/svg" width="52.202" height="42.821" viewBox="0 0 52.202 42.821">
    <path d="M46.541 27.386l-2.7-16.2a1.53 1.53 0 0 0 1.223-1.5V1.529A1.529 1.529 0 0 0 43.535 0h-6.117a5.616 5.616 0 0 0-5.394 4.078h-2.763a1.53 1.53 0 0 0 0 3.059h2.763a5.631 5.631 0 0 0 3.5 3.748l2.766 16.6a9.715 9.715 0 0 0-5.338 7.184h-3.385V23.96a5.575 5.575 0 0 0-1.067-3.291 4.586 4.586 0 0 0-2.5-8.434h-9.178a5.572 5.572 0 0 0-2.549.615V8.666a1.529 1.529 0 0 0-1.529-1.529H1.529A1.529 1.529 0 0 0 0 8.666v11.215a1.529 1.529 0 0 0 1.529 1.529H9.2a13.743 13.743 0 0 0-5.122 10.706v4.078a1.529 1.529 0 0 0 1.529 1.529h2.729a6.626 6.626 0 0 0 12.894 0h14.838a6.626 6.626 0 0 0 12.894 0h1.709a1.529 1.529 0 0 0 1.529-1.529 9.7 9.7 0 0 0-5.66-8.808zM37.418 3.059h4.588v5.1h-4.588a2.5 2.5 0 0 1-.334-.023h-.022a2.549 2.549 0 0 1 .356-5.072zm1.261 8.157h2.067L43.3 26.54c-.259-.021-.52-.032-.784-.032a9.679 9.679 0 0 0-1.274.084zm3.837 18.352a6.639 6.639 0 0 1 6.449 5.1h-12.9a6.639 6.639 0 0 1 6.449-5.1zM16.822 15.293H26a1.53 1.53 0 1 1 0 3.059H14.274v-.51a2.552 2.552 0 0 1 2.548-2.549zM3.058 10.2h8.157v8.157H3.058zm4.079 21.916a10.717 10.717 0 0 1 10.705-10.705h6.117a2.552 2.552 0 0 1 2.549 2.549v10.705H7.137zm7.647 7.647a3.573 3.573 0 0 1-3.224-2.039h6.447a3.573 3.573 0 0 1-3.224 2.039zm27.732 0a3.573 3.573 0 0 1-3.224-2.039h6.447a3.573 3.573 0 0 1-3.224 2.039zm0 0"/>
</svg>
