<svg id="Group_2666" data-name="Group 2666" xmlns="http://www.w3.org/2000/svg" xmlns:xlink="http://www.w3.org/1999/xlink" width="505.48" height="456.664" viewBox="0 0 505.48 456.664">
  <defs>
    <linearGradient id="linear-gradient" x1="0.027" y1="0.9" x2="0.786" y2="0.181" gradientUnits="objectBoundingBox">
      <stop offset="0" stop-color="#ffc700"/>
      <stop offset="1" stop-color="#ff7600"/>
    </linearGradient>
  </defs>
  <g id="Group_2662" data-name="Group 2662" transform="translate(0 57.922)">
    <g id="Group_2660" data-name="Group 2660" transform="translate(0)">
      <path id="Path_1096" data-name="Path 1096" d="M475.279,723.814h0Z" transform="translate(-198.228 -554.522)" fill="none"/>
      <path id="Path_1097" data-name="Path 1097" d="M455.621,702.267c.116-.1.23-.2.349-.3C455.851,702.063,455.737,702.166,455.621,702.267Z" transform="translate(-143.435 -572.036)" fill="none"/>
      <path id="Path_1098" data-name="Path 1098" d="M454.406,701.361c.054-.016.116-.016.17-.031C454.522,701.344,454.46,701.344,454.406,701.361Z" transform="translate(-139.842 -572.547)" fill="none"/>
      <path id="Path_1099" data-name="Path 1099" d="M485.074,653.246c-.08.063-.156.138-.233.21C484.917,653.382,484.993,653.313,485.074,653.246Z" transform="translate(-225.429 -610.896)" fill="none"/>
      <path id="Path_1100" data-name="Path 1100" d="M484.59,653.054c.067-.035.138-.056.2-.087a4.375,4.375,0,0,0-.4.221C484.463,653.146,484.517,653.092,484.59,653.054Z" transform="translate(-224.339 -611.122)" fill="none"/>
      <path id="Path_1101" data-name="Path 1101" d="M472.138,723.853a6.375,6.375,0,0,1,4.78,3.144c-.09-.092-.194-.174-.282-.268A8.241,8.241,0,0,0,472.138,723.853Z" transform="translate(-194.279 -554.497)" fill="none"/>
      <path id="Path_1102" data-name="Path 1102" d="M484.184,652.738a5.534,5.534,0,0,0-.773.091A5.534,5.534,0,0,1,484.184,652.738Z" transform="translate(-221.95 -611.308)" fill="none"/>
      <path id="Path_1103" data-name="Path 1103" d="M476.331,723.828a5.769,5.769,0,0,0-.757.116A5.549,5.549,0,0,1,476.331,723.828Z" transform="translate(-199.911 -554.511)" fill="none"/>
      <path id="Path_1104" data-name="Path 1104" d="M484.49,652.819a4.423,4.423,0,0,0-.527.161A4.423,4.423,0,0,1,484.49,652.819Z" transform="translate(-223.255 -611.242)" fill="none"/>
      <path id="Path_1105" data-name="Path 1105" d="M485.547,656.576c-.02-.058-.029-.119-.049-.177.04.12.089.235.134.353C485.608,656.69,485.569,656.638,485.547,656.576Z" transform="translate(-227.175 -608.342)" fill="none"/>
      <path id="Path_1106" data-name="Path 1106" d="M485.1,657.381l.027.04Z" transform="translate(-225.964 -607.547)" fill="none"/>
      <path id="Path_1107" data-name="Path 1107" d="M480.731,671.391a11.332,11.332,0,0,1-1.752-2.467A13.332,13.332,0,0,1,480.731,671.391Z" transform="translate(-210.475 -598.196)" fill="none"/>
      <path id="Path_1108" data-name="Path 1108" d="M483.756,658.9c.083.085.168.168.252.252C483.924,659.064,483.839,658.981,483.756,658.9Z" transform="translate(-222.398 -606.319)" fill="none"/>
      <path id="Path_1109" data-name="Path 1109" d="M485.658,655.979c.013.06.025.119.04.179C485.685,656.1,485.669,656.039,485.658,655.979Z" transform="translate(-227.531 -608.682)" fill="none"/>
      <path id="Path_1110" data-name="Path 1110" d="M484.486,658.119c.061.078.123.156.186.232C484.609,658.275,484.548,658.2,484.486,658.119Z" transform="translate(-224.384 -606.949)" fill="none"/>
      <path id="Path_1111" data-name="Path 1111" d="M456.6,703.31c.1-.123.208-.243.313-.366C456.81,703.067,456.7,703.187,456.6,703.31Z" transform="translate(-146.155 -571.253)" fill="none"/>
      <path id="Path_1112" data-name="Path 1112" d="M456.123,702.775c.11-.121.223-.237.337-.353C456.346,702.538,456.233,702.654,456.123,702.775Z" transform="translate(-144.833 -571.672)" fill="none"/>
      <path id="Path_1113" data-name="Path 1113" d="M457.1,704.688c.308-.367.617-.753.929-1.14C457.721,703.935,457.412,704.321,457.1,704.688Z" transform="translate(-148.181 -570.77)" fill="none"/>
      <path id="Path_1114" data-name="Path 1114" d="M445.858,718.244a4.948,4.948,0,0,0,1.806-2.282A3.521,3.521,0,0,1,445.858,718.244Z" transform="translate(-117.457 -560.821)" fill="none"/>
      <path id="Path_1115" data-name="Path 1115" d="M453.517,701.245a5.2,5.2,0,0,1,.623.036A4.413,4.413,0,0,0,453.517,701.245Z" transform="translate(-137.796 -572.617)" fill="none"/>
      <path id="Path_1116" data-name="Path 1116" d="M482.6,652.942c-.188-.042-.376-.08-.567-.114C482.228,652.862,482.416,652.9,482.6,652.942Z" transform="translate(-217.885 -611.235)" fill="none"/>
      <path id="Path_1117" data-name="Path 1117" d="M483.07,652.834q-.28-.043-.559-.071C482.7,652.781,482.884,652.8,483.07,652.834Z" transform="translate(-219.207 -611.287)" fill="none"/>
      <path id="Path_1118" data-name="Path 1118" d="M474.792,672.458a8.142,8.142,0,0,0-.04-3.077C475.093,670.956,475.114,671.892,474.792,672.458Z" transform="translate(-197.115 -597.826)" fill="none"/>
      <path id="Path_1119" data-name="Path 1119" d="M482.252,653.108c-.255-.065-.514-.129-.775-.188C481.738,652.98,482,653.043,482.252,653.108Z" transform="translate(-216.517 -611.16)" fill="none"/>
      <path id="Path_1120" data-name="Path 1120" d="M483.731,652.757a7.208,7.208,0,0,0-.766-.016A7.208,7.208,0,0,1,483.731,652.757Z" transform="translate(-220.689 -611.308)" fill="none"/>
      <path id="Path_1121" data-name="Path 1121" d="M555.759,719.984c-.346-.183-.692-.375-1.037-.57A85.24,85.24,0,0,0,582.09,725.1C573.087,724.7,563.734,724.2,555.759,719.984Z" transform="translate(-448.932 -558.06)" fill="none"/>
      <path id="Path_1122" data-name="Path 1122" d="M454.6,705.04q.66,1.252,1.321,2.5c-1.4-2.648-3.394-5.629-6.143-6.241.09.016.17.007.264.029A7.138,7.138,0,0,1,454.6,705.04Z" transform="translate(-132.798 -572.578)" fill="none"/>
      <path id="Path_1123" data-name="Path 1123" d="M549.654,722.237c-.179.047-.353.107-.534.148C549.3,722.344,549.475,722.284,549.654,722.237Z" transform="translate(-406.356 -555.787)" fill="none"/>
      <path id="Path_1124" data-name="Path 1124" d="M455.386,701.6c-.1.058-.2.132-.3.2C455.185,701.732,455.283,701.658,455.386,701.6Z" transform="translate(-141.879 -572.33)" fill="none"/>
      <path id="Path_1125" data-name="Path 1125" d="M483.43,652.74l-.042,0Z" transform="translate(-221.154 -611.308)" fill="#3e7c1d"/>
      <path id="Path_1126" data-name="Path 1126" d="M485.12,656.594a8.663,8.663,0,0,0,.684,1.425A8.663,8.663,0,0,1,485.12,656.594Z" transform="translate(-226.663 -608.184)" fill="#3e7c1d"/>
      <path id="Path_1127" data-name="Path 1127" d="M484.507,652.908c-.085.033-.17.069-.254.107C484.339,652.977,484.422,652.941,484.507,652.908Z" transform="translate(-223.799 -611.17)" fill="#3e7c1d"/>
      <path id="Path_1128" data-name="Path 1128" d="M485.024,653.089a4.052,4.052,0,0,0-.409.284A4.274,4.274,0,0,1,485.024,653.089Z" transform="translate(-224.969 -611.023)" fill="#3e7c1d"/>
      <path id="Path_1129" data-name="Path 1129" d="M483.082,652.775c-.089-.009-.176-.02-.262-.027C482.907,652.755,482.994,652.766,483.082,652.775Z" transform="translate(-219.779 -611.3)" fill="#3e7c1d"/>
      <path id="Path_1130" data-name="Path 1130" d="M484.064,652.788c-.076.014-.15.038-.226.056C483.914,652.826,483.988,652.8,484.064,652.788Z" transform="translate(-222.603 -611.267)" fill="#3e7c1d"/>
      <path id="Path_1131" data-name="Path 1131" d="M484.589,657.4a12.167,12.167,0,0,0,.934,1.3A11.972,11.972,0,0,1,484.589,657.4Z" transform="translate(-225.421 -607.529)" fill="#3e7c1d"/>
      <path id="Path_1132" data-name="Path 1132" d="M485.572,656.078c.042.2.1.391.156.581C485.666,656.471,485.619,656.273,485.572,656.078Z" transform="translate(-227.405 -608.602)" fill="#3e7c1d"/>
      <path id="Path_1133" data-name="Path 1133" d="M482.146,652.943c-.08-.02-.161-.036-.241-.052C481.986,652.907,482.066,652.923,482.146,652.943Z" transform="translate(-217.186 -611.184)" fill="#3e7c1d"/>
      <path id="Path_1134" data-name="Path 1134" d="M482.641,652.849c-.1-.016-.194-.032-.29-.047C482.447,652.817,482.543,652.833,482.641,652.849Z" transform="translate(-218.488 -611.256)" fill="#3e7c1d"/>
      <path id="Path_1135" data-name="Path 1135" d="M451.847,713.523l-4.632-8.773,0,0Q449.533,709.138,451.847,713.523Z" transform="translate(-124.096 -569.819)" fill="#3e7c1d"/>
      <path id="Path_1136" data-name="Path 1136" d="M455.557,701.347a5.367,5.367,0,0,0-1.057.458A5.367,5.367,0,0,1,455.557,701.347Z" transform="translate(-140.993 -572.534)" fill="#3e7c1d"/>
      <path id="Path_1137" data-name="Path 1137" d="M483.895,658.247c.34.4.7.794,1.07,1.175C484.594,659.041,484.235,658.651,483.895,658.247Z" transform="translate(-223.607 -606.845)" fill="#3e7c1d"/>
      <path id="Path_1138" data-name="Path 1138" d="M485.136,658.1c-.038-.174-.089-.342-.114-.523a4.9,4.9,0,0,1,1.1-3.944c.1-.107.2-.177.3-.27A5.328,5.328,0,0,0,485.136,658.1Z" transform="translate(-227.009 -610.802)" fill="#3e7c1d"/>
      <path id="Path_1139" data-name="Path 1139" d="M454.848,701.247a4.7,4.7,0,0,0-.987.156,4.672,4.672,0,0,1,.867-.163C454.77,701.237,454.806,701.249,454.848,701.247Z" transform="translate(-139.126 -572.619)" fill="#3e7c1d"/>
      <path id="Path_1140" data-name="Path 1140" d="M455.814,702.656c.183-.183.369-.355.559-.523C456.185,702.3,456,702.473,455.814,702.656Z" transform="translate(-144.187 -571.904)" fill="#3e7c1d"/>
      <path id="Path_1141" data-name="Path 1141" d="M456.775,703.874q.293-.364.6-.728Q457.069,703.51,456.775,703.874Z" transform="translate(-146.924 -571.092)" fill="#3e7c1d"/>
      <path id="Path_1142" data-name="Path 1142" d="M456.309,703.209c.174-.2.349-.4.53-.592C456.658,702.809,456.481,703.008,456.309,703.209Z" transform="translate(-145.549 -571.516)" fill="#3e7c1d"/>
      <path id="Path_1143" data-name="Path 1143" d="M483.138,659.035c.369.369.744.735,1.119,1.091C483.882,659.77,483.507,659.406,483.138,659.035Z" transform="translate(-221.528 -606.207)" fill="#3e7c1d"/>
      <path id="Path_1144" data-name="Path 1144" d="M453.168,701.264a4.859,4.859,0,0,1,.632.069A5.165,5.165,0,0,0,453.168,701.264Z" transform="translate(-136.824 -572.6)" fill="#3e7c1d"/>
      <path id="Path_1145" data-name="Path 1145" d="M475.832,723.814c-.194,0-.385.009-.577.025A5.715,5.715,0,0,1,475.832,723.814Z" transform="translate(-198.836 -554.523)" fill="#3e7c1d"/>
      <path id="Path_1146" data-name="Path 1146" d="M455.251,702.177a7.966,7.966,0,0,1,.67-.469A7.966,7.966,0,0,0,455.251,702.177Z" transform="translate(-142.716 -572.244)" fill="#3e7c1d"/>
      <path id="Path_1147" data-name="Path 1147" d="M475.586,723.885a6.7,6.7,0,0,0-.807-.071A5.122,5.122,0,0,1,475.586,723.885Z" transform="translate(-197.728 -554.522)" fill="#3e7c1d"/>
      <path id="Path_1148" data-name="Path 1148" d="M472.032,709.1a9.624,9.624,0,0,1,4.208.72,2.229,2.229,0,0,1,1.135,1.1,4.655,4.655,0,0,1,.152,1.292,3.659,3.659,0,0,0,2.516,3.094,5.193,5.193,0,0,1-.742,3.531c-1.084-.177-1.4,0-2.281-.659l-.288.009a34.191,34.191,0,0,1-15.655-3.112,7.657,7.657,0,0,1,4.279-5.135A15.586,15.586,0,0,1,472.032,709.1Z" transform="translate(-177.441 -566.345)" fill="#5fb709"/>
      <path id="Path_1149" data-name="Path 1149" d="M550.223,721.765a14.686,14.686,0,0,1-2.464.854A14.686,14.686,0,0,0,550.223,721.765Z" transform="translate(-404.461 -556.167)" fill="#3e7c1d"/>
      <path id="Path_1150" data-name="Path 1150" d="M549.415,722.748h0a36.631,36.631,0,0,0,9.6-.429,36.642,36.642,0,0,1-9.6.429Z" transform="translate(-416.257 -555.722)" fill="#3e7c1d"/>
      <path id="Path_1151" data-name="Path 1151" d="M550.182,669.821c-1.385-.179-2.892-.529-4.1.156-1.734.985-1.815,3.5-3.224,4.907-2.04,2.036-5.526.816-8.123-.51a4.2,4.2,0,0,1-1.975-1.593,4.064,4.064,0,0,1-.293-1.933,5.861,5.861,0,0,1,.939-3.8,6.5,6.5,0,0,1,3.423-1.638c2.8-.757,11.409-6.9,13.539-6.366,1.175.3,4.342,8.017,3.528,9.564C553.258,669.828,551.569,670,550.182,669.821Z" transform="translate(-380.59 -606.226)" fill="#3e7c1d"/>
      <path id="Path_1152" data-name="Path 1152" d="M493.279,651.947a5.857,5.857,0,0,1,.282-2.581,9.026,9.026,0,0,1,4.851-5.687c4.867-2.1,22.586,2.674,24.1,8.65.554,2.192-1.312,3.892-1.85,5.868-.748,2.744-.375,5.617-.829,8.4a30.107,30.107,0,0,1-6.94,14.194c-1.464,1.774-3.407,3.595-5.725,3.379A32.184,32.184,0,0,0,497.031,657C495.445,655.551,493.594,654.054,493.279,651.947Z" transform="translate(-278.151 -619.053)" fill="#5fb709"/>
      <path id="Path_1153" data-name="Path 1153" d="M444.552,814.442a39.833,39.833,0,0,0,21.913-10.4c1.667-1.573,3.195-3.291,4.963-4.749a44.867,44.867,0,0,1,5.9-3.908c3.292-1.937,6.878-3.944,10.712-3.584,2.775.262,5.381,1.761,8.165,1.678,3.631-.109,6.554-2.836,8.96-5.51s4.925-5.622,8.457-6.438a5.8,5.8,0,0,1,.757-.116c.192-.016.384-.027.577-.025h.054a6.735,6.735,0,0,1,.807.07,8.243,8.243,0,0,1,4.5,2.876c.089.094.192.176.282.268a18.8,18.8,0,0,0,6.377,4.208c4.235,1.721,7,1.654,11.885,1.135,6.576-.7,14.374-3.745,15.8-10.125.936-4.187.3-9.814,4.279-11.494,3.647.914,5.906,1.768,7.423,1.131a3.522,3.522,0,0,0,1.806-2.282c1.388-3.787-.559-7.926-2.456-11.521q-2.316-4.385-4.63-8.77l0,0q-.66-1.254-1.321-2.5a7.138,7.138,0,0,0-4.558-3.709c-.094-.022-.174-.013-.264-.029a4.859,4.859,0,0,0-.632-.069,5.225,5.225,0,0,0-.623-.036c-.042,0-.078-.011-.12-.007a4.671,4.671,0,0,0-.867.163c-.054.014-.116.014-.17.031a5.366,5.366,0,0,0-1.057.458c-.1.058-.2.132-.3.2a7.989,7.989,0,0,0-.67.469c-.119.1-.234.2-.349.3-.19.168-.376.34-.559.523-.114.116-.226.232-.337.353-.181.194-.357.389-.53.592-.1.123-.21.243-.313.366q-.3.364-.6.728c-.311.387-.621.773-.929,1.14-1.879,2.246-5.322,4.165-7.6,2.275a6.472,6.472,0,0,1-1.683-2.874q-2.851-7.689-5.7-15.382a15.764,15.764,0,0,0-3.274-5.977c-3.1-3.057-8.035-3.088-12-4.914-10.192-4.7-12.1-20.044-22.6-24-2.478-.932-5.215-1.1-7.611-2.226s-4.462-3.774-3.586-6.232c.458-1.287,1.6-2.192,2.4-3.3,1.729-2.4,1.763-5.573,2.646-8.39s3.531-5.665,6.4-4.806c2.154.648,3.832,1.307,4.538,2.788a5.56,5.56,0,0,0,2.844,2.556c2.492,1.131,3.385,4.071,4.811,6.67a11.33,11.33,0,0,0,1.752,2.467c.087.089.168.183.261.268a7.212,7.212,0,0,0,5.446,1.955c.876-.072,1.428-.286,1.714-.786.322-.567.3-1.5-.04-3.077-.894-4.147-4.141-7.361-7.237-10.315l-7.673-7.32c-.375-.357-.749-.722-1.119-1.092-.083-.083-.168-.167-.251-.252-.371-.38-.73-.771-1.07-1.175-.063-.076-.125-.154-.186-.232a12.177,12.177,0,0,1-.934-1.3l-.027-.04a8.651,8.651,0,0,1-.684-1.424c-.045-.118-.094-.233-.134-.353-.06-.19-.114-.384-.156-.581-.015-.06-.027-.12-.04-.179a5.328,5.328,0,0,1,1.285-4.737c.078-.072.154-.147.234-.21a4.03,4.03,0,0,1,.409-.284,4.41,4.41,0,0,1,.4-.221c.083-.038.168-.074.253-.107a4.436,4.436,0,0,1,.527-.161c.076-.018.15-.042.226-.056a5.536,5.536,0,0,1,.773-.091l.042,0a7.208,7.208,0,0,1,.766.016c.087.007.174.018.262.027q.28.027.559.071c.1.015.194.031.289.047.19.034.378.072.567.114.08.016.161.033.241.052.261.06.519.123.775.188,11.412,2.938,18.908,48.92,32.129,54.325,25.741,28.009,50.558,22.789,53.557,60.827-6.561.976-12.947,2.771-17.617,7.229-4.76,4.543-7.108,11.353-12.536,15.094-4.415,3.043-10.091,3.519-15.19,5.244s-10.274,5.828-9.861,11.161c.308,3.958,3.569,7.026,5.178,10.677,3.273,7.432-.887,16.177-6.927,21.56s-13.747,8.56-20.374,13.224-12.5,11.791-11.919,19.854c.367,5.1,3.3,10.091,2.2,15.076-.99,4.509-4.987,7.653-7.369,11.612-2.976,4.945-3.35,11.047-5.894,16.225s-15.418,19.625-20.316,16.424c-5.072-3.312-5.229-15.141-7.724-21.118-.747-1.788,3.07-7.387,1.6-8.652-9.363-8.049-4.494-23.7-10.4-34.482-4.035-7.356-13.242-13.155-11.868-21.364.664-3.97,3.892-7.533,3.137-11.5-1.149-6.046-10.895-9.354-9.15-15.232C435.485,815.611,440.544,814.976,444.552,814.442Z" transform="translate(-237.962 -611.308)" fill="#5fb709"/>
      <path id="Path_1154" data-name="Path 1154" d="M653.833,634.338c3.285,1.841,5.783,4.326,9.229,7.966,3.1,3.271,12.359-2.329,16.173.083,3.56,2.252,1.2,12.488,5.068,14.158s7.667,4.724,8.091,8.867c.413,4.029-2.646,7.754-6.361,9.414s-7.955,1.691-12.046,1.575c-2.227-.063-4.746-.049-6.261,1.551a7.579,7.579,0,0,0-1.457,2.816q-1.281,3.649-2.559,7.3a5.346,5.346,0,0,0-.445,2.749,4.815,4.815,0,0,0,2.165,2.757c2.422,1.732,5.289,2.878,7.39,4.979s3.153,5.74,1.191,7.93a7.774,7.774,0,0,1-3.251,1.864,83.712,83.712,0,0,1-26.718,5.061c.985-3.32-2.058-2.078-1.073-5.4-.994-2.351-.465-6.685-2.742-5.532s-4.7,2.862-7.153,2.107c-1.854-.568-3.513-2.5-5.329-1.852-1.39.492-1.881,2.255-3.155,2.99-2.192,1.265-4.657-1.126-7.094-1.89-4.216-1.321-8.129,2.409-10.9,5.772-.941,1.139-1.933,2.434-1.826,3.908.223,3.05,4.625,3.8,7.474,2.645s5.571-3.309,8.628-2.842c3.334.509,5.642,4.007,8.989,4.417,1.682.206,3.331-.417,4.972-.8,8.428-1.989,17.025,2.125,24.751,6.114,2.561,1.321,5.271,2.786,6.637,5.3a19.354,19.354,0,0,1,1.475,5.171c1.434,6.444,5.206,12.122,7.81,18.205s3.95,13.38.577,19.027c-1.177,1.967-2.938,3.839-2.84,6.134.085,1.975,1.553,3.62,2.167,5.508,1.312,4.036-1.667,8.411-5.53,10.191a14.689,14.689,0,0,1-2.464.854c-.179.047-.353.107-.534.148a36.631,36.631,0,0,1-9.6.429h0a85.236,85.236,0,0,1-27.368-5.687c-.266-.1-.538-.2-.8-.3-2.493-1.012-3.211-.36-4.741.592a12.019,12.019,0,0,0-5.2,7.083c-1.616,5.89-7.065,8.353-11.061,15.423-2.427,4.3-6.067,7.848-8.3,12.25s-2.668,10.364.945,13.813c.869.829,1.919,1.459,2.742,2.329,4.121,4.346.733,11.148-.932,16.828-3.651,12.452,2.129,27.386-5.246,38.076-3.977,3.2-10.2.373-13.364-3.678s-4.849-9.2-8.6-12.728c-5.314-5.01-13.47-5.629-19.578-9.653a20.058,20.058,0,0,1-8.337-11.686c-.626-2.48-.771-5.093-1.8-7.443A35.264,35.264,0,0,0,542.066,844,170.346,170.346,0,0,1,653.833,634.338Z" transform="translate(-524.117 -626.213)" fill="#5fb709"/>
      <g id="Group_2659" data-name="Group 2659">
        <path id="Path_1155" data-name="Path 1155" d="M542.28,788.046c13.718,4.844,38.842,12.144,53.172,14.609,12.661,2.179,27.249,13.9,37.446,21.7,4.869,3.725,7.709,9.409,10.382,14.886.3.6.791,1.618,1.312,2.686A170.746,170.746,0,0,1,517.5,804.282C528.418,798.768,531.289,784.165,542.28,788.046Z" transform="translate(-444.061 -503.762)" fill="#5fb709"/>
        <g id="Group_2665" data-name="Group 2665" transform="translate(327.878 212.248) rotate(45)">
          <g id="Group_1954" data-name="Group 1954">
            <g id="Group_1953" data-name="Group 1953">
              <path id="Path_697" data-name="Path 697" d="M15.4,127.019C-2.3,109.153-2.108,82.01,3,58.51c.852-3.922,1.177-8.162,3.685-11.284s7.321-4.689,10.552-2.382c2.679,1.914,3.336,5.556,4.462,8.674a23.464,23.464,0,0,0,7.646,10.528c2.276,1.761,5.24,3.126,7.97,2.209,3.747-1.258,5.005-5.888,5.7-9.819q1.929-10.988,3.86-21.973c.69-3.931,1.41-7.94,3.308-11.444s5.228-6.473,9.153-6.839,8.151,2.629,8.24,6.615c.037,1.659-.591,3.259-.778,4.908s.243,3.591,1.707,4.327c1.483.746,3.257-.081,4.64-1.017,4.773-3.225,8.454-7.83,11.948-12.44S92.026,9.22,96.49,5.567,106.663-.586,112.343.119,123.381,5.386,123.8,11.164c.416,5.793-3.835,10.821-8.164,14.66A89.057,89.057,0,0,1,94.22,39.892c-1.4.652-2.912,1.357-3.65,2.726-1.329,2.462.677,5.513,3.1,6.843,2.748,1.508,5.979,1.783,8.974,2.7s6.065,2.872,6.7,5.976c.877,4.3-3.245,7.9-7.048,10.052a76.336,76.336,0,0,1-24.551,8.778c-3.08.53-6.288.9-8.987,2.508s-4.746,4.878-3.843,7.9,4.353,4.567,7.48,4.556,6.133-1.159,9.214-1.721c5.766-1.053,12.664.588,15.27,5.879,1.713,3.479,1.136,7.782-.679,11.226s-4.716,6.166-7.718,8.618c-10.495,8.568-23.051,14.719-36.356,16.779s-25.113,1.121-36.723-5.692" fill="#5fb709"/>
            </g>
          </g>
          <g id="Group_1957" data-name="Group 1957" transform="translate(11.901 4.746)">
            <g id="Group_1956" data-name="Group 1956">
              <g id="Group_1955" data-name="Group 1955">
                <path id="Path_698" data-name="Path 698" d="M0,139.747a175.144,175.144,0,0,1,12.307-31.185A357.392,357.392,0,0,1,33.168,73.235l5.944-8.979c1.957-2.942,3.9-5.861,5.974-8.6A178.514,178.514,0,0,1,57.911,40.614c4.311-4.589,8.569-8.785,12.579-12.68s7.834-7.44,11.45-10.53a141.7,141.7,0,0,1,18.129-13.3c2.255-1.4,4.04-2.424,5.259-3.1l1.391-.764A2.9,2.9,0,0,1,107.2,0a2.9,2.9,0,0,1-.449.3l-1.355.827c-1.194.722-2.954,1.786-5.183,3.219A149.776,149.776,0,0,0,82.275,17.8c-3.583,3.107-7.369,6.673-11.364,10.575S62.687,36.494,58.4,41.083A180.621,180.621,0,0,0,45.658,56.1c-2.06,2.725-3.981,5.62-5.942,8.57l-5.938,8.977A366.514,366.514,0,0,0,12.907,108.87,178.224,178.224,0,0,0,.5,139.89" fill="#263238"/>
              </g>
            </g>
          </g>
          <g id="Group_1960" data-name="Group 1960" transform="translate(57.12 16.18)">
            <g id="Group_1959" data-name="Group 1959" transform="translate(0 0)">
              <g id="Group_1958" data-name="Group 1958">
                <path id="Path_699" data-name="Path 699" d="M.079,44.233A8.107,8.107,0,0,1,0,42.488c-.009-1.122.032-2.746.112-4.751C.271,33.727.677,28.2,1.147,22.1s.8-11.618.892-15.619c.053-2,.081-3.62.085-4.739A8.011,8.011,0,0,1,2.215,0a7.943,7.943,0,0,1,.194,1.736c.084,1.119.136,2.744.148,4.751.038,4.016-.207,9.565-.678,15.668C1.4,28.169.964,33.609.633,37.765.494,39.644.38,41.228.286,42.5A7.929,7.929,0,0,1,.079,44.233Z" fill="#263238"/>
              </g>
            </g>
          </g>
          <g id="Group_1963" data-name="Group 1963" transform="translate(57.199 58.298)">
            <g id="Group_1962" data-name="Group 1962">
              <g id="Group_1961" data-name="Group 1961">
                <path id="Path_700" data-name="Path 700" d="M52.189,1.877a11.162,11.162,0,0,1-2.057-.126c-1.316-.12-3.219-.306-5.577-.459C39.84.949,33.313.7,26.1.747s-13.745.385-18.459.76c-2.359.17-4.265.36-5.583.482A11.093,11.093,0,0,1,0,2.115,10.955,10.955,0,0,1,2.024,1.7c1.309-.21,3.212-.48,5.573-.718C12.314.475,18.861.062,26.1,0A181.2,181.2,0,0,1,44.6.769c2.361.222,4.261.485,5.57.7A10.775,10.775,0,0,1,52.189,1.877Z" fill="#263238"/>
              </g>
            </g>
          </g>
          <g id="Group_1966" data-name="Group 1966" transform="translate(11.321 43.404)">
            <g id="Group_1965" data-name="Group 1965">
              <g id="Group_1964" data-name="Group 1964">
                <path id="Path_701" data-name="Path 701" d="M13.677,69.089a2.639,2.639,0,0,1-.234-.678c-.144-.537-.318-1.191-.531-1.983-.452-1.725-1.043-4.237-1.731-7.349-1.382-6.225-3.02-14.885-4.7-24.465S3.247,16.367,2,10.123C1.381,7.085.872,4.586.5,2.729.337,1.924.205,1.26.1.715A2.653,2.653,0,0,1,.008,0,2.685,2.685,0,0,1,.242.68L.773,2.662C1.226,4.386,1.816,6.9,2.506,10.011,3.887,16.237,5.525,24.9,7.2,34.479s3.236,18.243,4.485,24.49c.618,3.035,1.125,5.535,1.5,7.391.16.805.291,1.471.4,2.014A2.66,2.66,0,0,1,13.677,69.089Z" fill="#263238"/>
              </g>
            </g>
          </g>
          <g id="Group_1969" data-name="Group 1969" transform="translate(24.998 103.076)">
            <g id="Group_1968" data-name="Group 1968">
              <g id="Group_1967" data-name="Group 1967">
                <path id="Path_702" data-name="Path 702" d="M71,.018a2.715,2.715,0,0,1-.715.154l-2.067.3c-1.906.256-4.478.6-7.606,1.019-6.423.863-15.278,2.156-25.062,3.6S16.89,7.739,10.448,8.468c-3.22.365-5.829.635-7.635.784-.835.065-1.522.116-2.082.16a2.7,2.7,0,0,1-.73,0,2.816,2.816,0,0,1,.716-.155l2.067-.3,7.6-1.02c6.423-.861,15.28-2.153,25.067-3.6S54.113,1.7,60.556.968C63.776.6,66.385.332,68.193.183c.834-.063,1.521-.118,2.081-.159A2.68,2.68,0,0,1,71,.018Z" fill="#263238"/>
              </g>
            </g>
          </g>
        </g>
        <g id="Plants" transform="matrix(0.391, -0.921, 0.921, 0.391, 0, 313.712)">
          <g id="Group_1974" data-name="Group 1974" transform="translate(0 0)">
            <path id="Path_703" data-name="Path 703" d="M4.435,23.9A12.391,12.391,0,0,1,.173,12.21,16.453,16.453,0,0,1,7.257,1.649C8.919.51,10.978-.393,12.909.175a5.3,5.3,0,0,1,3.43,4.135,10.745,10.745,0,0,1-.645,5.544c-2.112,6.1-5.277,11.619-11.26,14.048" transform="translate(36.222 14.356)" fill="#455a64"/>
            <path id="Path_704" data-name="Path 704" d="M30.888,7.411A28.992,28.992,0,0,0,5.262.7C2.984,1.23.42,2.434.044,4.742S1.734,9.014,3.76,10.189a24.77,24.77,0,0,0,27.4-2.2" transform="translate(4.122 41.27)" fill="#455a64"/>
            <path id="Path_705" data-name="Path 705" d="M2.322.425A14.522,14.522,0,0,1,13.532,2.353a25.625,25.625,0,0,1,8.017,8.376c4.035,6.375,5.457,14.942,5.636,22.483-8.372-.338-15.525-6.918-18.945-10.483C2.836,17.092-3.508,3.624,2.322.425" fill="#455a64"/>
            <g id="Group_1971" data-name="Group 1971" transform="translate(40.379 24.239)">
              <path id="Path_706" data-name="Path 706" d="M7.293,35.829A29.965,29.965,0,0,1,5.2,32.673,53.242,53.242,0,0,1,.489,19.231,26.671,26.671,0,0,1,1.534,5.053,17.423,17.423,0,0,1,3.56,1.211,4.862,4.862,0,0,1,4.594,0,36.851,36.851,0,0,0,2.1,5.256,27.981,27.981,0,0,0,1.32,19.081,61.642,61.642,0,0,0,5.748,32.424" fill="#263238"/>
            </g>
            <g id="Group_1972" data-name="Group 1972" transform="translate(8.057 10.252)">
              <path id="Path_707" data-name="Path 707" d="M39.694,49.918c-1.121-1.444-2.589-3.337-4.36-5.622C31.665,39.54,26.581,32.983,20.87,25.814S9.9,12.231,6.086,7.592l-4.507-5.5A15.53,15.53,0,0,1,0,0,15.416,15.416,0,0,1,1.828,1.873c1.135,1.24,2.747,3.062,4.715,5.334,3.936,4.543,9.271,10.909,14.989,18.081s10.731,13.8,14.28,18.649c1.775,2.425,3.19,4.4,4.146,5.787" fill="#263238"/>
            </g>
            <g id="Group_1973" data-name="Group 1973" transform="translate(14.611 45.829)">
              <path id="Path_708" data-name="Path 708" d="M0,1.1A5.239,5.239,0,0,1,1.452.652,12.141,12.141,0,0,1,3.2.318,20.4,20.4,0,0,1,5.551.067,30.511,30.511,0,0,1,11.7.3,35.388,35.388,0,0,1,19,2.2a35.307,35.307,0,0,1,6.669,3.531A30.538,30.538,0,0,1,30.36,9.717a20.369,20.369,0,0,1,1.561,1.773,12.181,12.181,0,0,1,1.064,1.429c.543.813.465,1.194.418,1.227a48.678,48.678,0,0,0-3.465-4.005,33.944,33.944,0,0,0-4.706-3.761,37.769,37.769,0,0,0-6.538-3.388A37.853,37.853,0,0,0,11.586,1.07,34.016,34.016,0,0,0,5.577.663C2.136.749.034,1.258,0,1.1Z" fill="#263238"/>
            </g>
          </g>
        </g>
        <path id="Path_1156" data-name="Path 1156" d="M437.423,852.87c1.028,2.349,1.173,4.963,1.8,7.443A20.057,20.057,0,0,0,447.559,872c6.107,4.024,14.263,4.643,19.578,9.653,3.747,3.533,5.43,8.677,8.6,12.728s9.387,6.88,13.364,3.678c7.374-10.69,1.595-25.625,5.246-38.076,1.665-5.68,5.054-12.482.932-16.828-.824-.871-1.873-1.5-2.742-2.329-3.613-3.448-3.177-9.411-.945-13.812s5.872-7.955,8.3-12.25c4-7.07,9.445-9.534,11.061-15.423a12.019,12.019,0,0,1,5.2-7.083c1.53-.952,2.248-1.6,4.741-.592.266.107.538.2.8.3.346.2.691.387,1.037.57,7.975,4.217,17.328,4.714,26.331,5.117h0a36.645,36.645,0,0,0,9.6-.429c.181-.042.355-.1.534-.148a14.692,14.692,0,0,0,2.464-.854c3.863-1.779,6.842-6.154,5.53-10.191-.614-1.888-2.082-3.533-2.167-5.508-.1-2.3,1.663-4.167,2.84-6.134,3.372-5.647,2.027-12.942-.577-19.027s-6.377-11.762-7.81-18.205A19.355,19.355,0,0,0,558,731.985c-1.367-2.516-4.076-3.98-6.637-5.3-7.725-3.989-16.323-8.1-24.751-6.114-1.642.387-3.291,1.01-4.972.8-3.347-.409-5.655-3.908-8.989-4.417-3.057-.467-5.778,1.689-8.629,2.842s-7.251.405-7.474-2.645c-.107-1.473.885-2.769,1.826-3.908,2.775-3.363,6.688-7.094,10.9-5.772,2.436.764,4.9,3.155,7.094,1.89,1.274-.735,1.765-2.5,3.155-2.99,1.815-.644,3.475,1.283,5.329,1.852,2.458.755,4.874-.956,7.153-2.107s1.749,3.18,2.742,5.532c-.985,3.32,2.058,2.078,1.073,5.4a83.711,83.711,0,0,0,26.718-5.061,7.775,7.775,0,0,0,3.251-1.864c1.962-2.19.909-5.827-1.191-7.93s-4.969-3.247-7.39-4.979a4.815,4.815,0,0,1-2.165-2.757,5.345,5.345,0,0,1,.445-2.749q1.279-3.652,2.559-7.3a7.577,7.577,0,0,1,1.457-2.816c1.515-1.6,4.035-1.615,6.261-1.551,4.091.116,8.33.087,12.046-1.575s6.773-5.385,6.361-9.414c-.424-4.143-4.221-7.2-8.091-8.867s-1.508-11.907-5.068-14.158c-3.814-2.413-13.076,3.188-16.173-.083-3.446-3.64-5.944-6.125-9.229-7.966a169.584,169.584,0,0,1,110.659,2.393c26.311,9.679,42.526,56.864,54.215,84.363-6.822,2.784-17.443-50-28.856-52.933-.255-.065-.514-.128-.775-.188-.08-.02-.159-.036-.241-.052-.188-.042-.377-.08-.567-.114-.1-.016-.194-.032-.29-.047-.187-.031-.373-.052-.559-.071-.089-.009-.176-.02-.263-.027a7.222,7.222,0,0,0-.766-.016l-.042,0a5.548,5.548,0,0,0-.773.091c-.076.014-.15.038-.226.056a4.437,4.437,0,0,0-.527.161c-.085.033-.168.069-.254.107-.067.031-.137.053-.2.087s-.127.092-.2.134a4.269,4.269,0,0,0-.409.284c-.081.067-.158.136-.234.21-.1.092-.206.163-.3.27a4.9,4.9,0,0,0-1.1,3.944c.025.181.076.349.114.523.011.06.027.12.04.179.047.2.094.393.156.581.02.058.029.12.049.177s.061.114.085.176a8.656,8.656,0,0,0,.684,1.424l.027.04a11.981,11.981,0,0,0,.934,1.3c.062.078.123.156.187.232.34.4.7.795,1.07,1.175.083.085.168.168.252.252.369.371.744.735,1.119,1.091l7.673,7.32c3.1,2.954,6.342,6.169,7.237,10.315a8.142,8.142,0,0,1,.04,3.077c-.286.5-.838.713-1.714.786a7.213,7.213,0,0,1-5.447-1.955c-.092-.085-.174-.179-.261-.268a13.328,13.328,0,0,0-1.752-2.467c-1.426-2.6-2.319-5.539-4.811-6.67a5.56,5.56,0,0,1-2.844-2.556c-.706-1.481-2.384-2.14-4.538-2.788-2.869-.86-5.517,1.989-6.4,4.806s-.918,5.993-2.646,8.39c-.8,1.11-1.944,2.015-2.4,3.3-.876,2.458,1.189,5.108,3.586,6.232s5.133,1.294,7.611,2.226c10.506,3.953,12.41,19.3,22.6,24,3.964,1.826,8.9,1.857,12,4.914a15.764,15.764,0,0,1,3.274,5.977q2.851,7.692,5.7,15.382a6.471,6.471,0,0,0,1.683,2.874c2.281,1.89,5.723-.029,7.6-2.275.308-.367.617-.753.929-1.14q.293-.364.6-.728c.1-.123.208-.242.313-.366.172-.2.349-.4.53-.592.11-.121.223-.237.337-.353.183-.183.371-.355.559-.523.116-.1.23-.2.349-.3a7.937,7.937,0,0,1,.67-.469c.1-.063.2-.138.3-.2a5.366,5.366,0,0,1,1.057-.458c.054-.016.116-.016.17-.031a4.7,4.7,0,0,1,.986-.156,4.431,4.431,0,0,1,.623.036,5.165,5.165,0,0,1,.632.069c2.749.612,4.746,3.593,6.143,6.241l4.632,8.773c1.9,3.595,3.845,7.734,2.456,11.521A4.949,4.949,0,0,1,744.3,788c-1.517.637-3.776-.217-7.423-1.131-3.984,1.68-3.343,7.307-4.279,11.494-1.424,6.38-9.222,9.425-15.8,10.125-4.882.519-7.649.587-11.885-1.135a18.8,18.8,0,0,1-6.377-4.208,6.375,6.375,0,0,0-4.78-3.144,5.136,5.136,0,0,0-.807-.071H692.9a5.717,5.717,0,0,0-.577.025,5.556,5.556,0,0,0-.757.116c-3.532.816-6.051,3.767-8.457,6.438s-5.329,5.4-8.96,5.51c-2.784.083-5.39-1.416-8.165-1.678-3.834-.36-7.419,1.647-10.712,3.584a44.869,44.869,0,0,0-5.9,3.908c-1.768,1.459-3.3,3.177-4.963,4.749a39.832,39.832,0,0,1-21.912,10.4c-4.007.534-9.067,1.169-10.205,5-1.745,5.877,8,9.186,9.15,15.232.755,3.966-2.472,7.53-3.137,11.5-1.374,8.209,7.834,14.008,11.868,21.364,5.91,10.777,1.041,26.432,10.4,34.482,1.472,1.265-2.346,6.864-1.6,8.652,2.494,5.977,2.652,17.806,7.724,21.118,4.9,3.2,17.773-11.246,20.316-16.424s2.918-11.28,5.894-16.225c2.382-3.959,6.378-7.1,7.369-11.612,1.1-4.985-1.832-9.973-2.2-15.076-.581-8.064,5.293-15.19,11.919-19.854s14.332-7.841,20.374-13.224,10.2-14.127,6.927-21.56c-1.609-3.651-4.871-6.719-5.179-10.677-.413-5.332,4.762-9.434,9.861-11.161s10.775-2.2,15.19-5.244c5.428-3.741,7.776-10.551,12.536-15.094,4.67-4.458,11.056-6.254,17.617-7.229a170.472,170.472,0,0,1-150.889,182.6c-.521-1.068-1.017-2.083-1.312-2.686-2.674-5.477-5.513-11.161-10.382-14.886-10.2-7.8-24.785-19.516-37.446-21.7-14.33-2.465-39.454-9.765-53.172-14.609-10.991-3.881-13.861,10.723-24.78,16.236a170.741,170.741,0,0,1-55.489-84.267A35.26,35.26,0,0,1,437.423,852.87Zm148.256-170.2c-2.13-.534-10.743,5.609-13.539,6.366a6.5,6.5,0,0,0-3.423,1.638,5.861,5.861,0,0,0-.94,3.8,4.065,4.065,0,0,0,.293,1.933A4.2,4.2,0,0,0,570.046,698c2.6,1.327,6.084,2.547,8.124.51,1.408-1.4,1.49-3.922,3.224-4.907,1.206-.684,2.713-.335,4.1-.156s3.075.007,3.716-1.213C590.021,690.683,586.854,682.963,585.679,682.666Zm113.856,96.6a34.191,34.191,0,0,0,15.655,3.111l.288-.009c.876.657,1.2.482,2.281.659a5.192,5.192,0,0,0,.742-3.531,3.659,3.659,0,0,1-2.516-3.093,4.653,4.653,0,0,0-.152-1.292,2.229,2.229,0,0,0-1.135-1.1,9.623,9.623,0,0,0-4.208-.72,15.587,15.587,0,0,0-6.675.842A7.657,7.657,0,0,0,699.535,779.267Zm-54.624-84.3c2.319.215,4.261-1.606,5.725-3.379a30.1,30.1,0,0,0,6.94-14.195c.454-2.787.081-5.66.829-8.4.538-1.977,2.4-3.676,1.85-5.868-1.509-5.977-19.228-10.746-24.1-8.65a9.025,9.025,0,0,0-4.851,5.687,5.856,5.856,0,0,0-.282,2.581c.315,2.107,2.167,3.6,3.752,5.054A32.184,32.184,0,0,1,644.911,694.971Z" transform="translate(-415.899 -629.849)" fill="#00c9ff"/>
      </g>
    </g>
    <g id="Group_2661" data-name="Group 2661" transform="translate(21.27 11.6)">
      <path id="Path_1157" data-name="Path 1157" d="M473.153,769.239c.123-.954.257-1.9.4-2.849.121-.833.255-1.662.387-2.491q.266-1.648.561-3.283a169.509,169.509,0,0,1,10.935-36.538,162.929,162.929,0,0,1,7.456-15.2c12.442-22.332,29.643-40.69,49.68-53.362,23.556-14.9,51.023-21.94,79.277-18.323a117.1,117.1,0,0,1,59.676,26.03c24.369,19.988,41.821,49.568,48.877,83.527a169.075,169.075,0,0,1,2.523,51.974c-.141,1.345-.295,2.692-.469,4.04-7.11,55.565-39.79,100.628-82.317,121.216a117.363,117.363,0,0,1-66.42,11.168c-28.052-3.591-52.71-17.149-71.7-37.256-17.99-19.051-30.888-43.983-36.762-71.89-.17-.811-.331-1.625-.489-2.44a168.85,168.85,0,0,1-2.456-46.419c.134-1.6.3-3.2.478-4.811.1-.918.2-1.837.322-2.757C473.121,769.462,473.139,769.35,473.153,769.239Z" transform="translate(-471.699 -636.258)" fill="#fff" opacity="0.15"/>
      <path id="Path_1158" data-name="Path 1158" d="M524.674,717.915q.182-.79.375-1.573.171-.689.351-1.374.236-.91.487-1.81a97.436,97.436,0,0,1,8.006-19.885,93.277,93.277,0,0,1,4.923-8.123,83.3,83.3,0,0,1,30.164-27.326c13.729-7.135,29.167-9.677,44.449-6.214a63.392,63.392,0,0,1,31.263,17.6c12.25,12.424,20.182,29.862,22.175,49.221a97,97,0,0,1-1.482,29.207c-.152.746-.31,1.491-.48,2.237-6.96,30.726-27.352,54.273-51.789,63.625a63.546,63.546,0,0,1-37.01,2.865c-15.172-3.435-27.936-12.278-37.233-24.5A84.031,84.031,0,0,1,522.7,749.779c-.049-.462-.092-.925-.134-1.39a96.865,96.865,0,0,1,1.213-26.1q.244-1.333.529-2.666c.107-.509.212-1.017.328-1.528C524.645,718.038,524.661,717.977,524.674,717.915Z" transform="translate(-496.566 -625.064)" fill="#fff" opacity="0.15" style="mix-blend-mode: screen;isolation: isolate"/>
    </g>
  </g>
  <g id="Group_2663" data-name="Group 2663" transform="translate(282.689)">
    <path id="Path_1159" data-name="Path 1159" d="M312.467,212.591c-1.258,3.707-8.071,8.247-10.75,10.875q-12.954,12.712-26.083,25.245c-21.489,20.606-43.086,41.119-65.138,61.125-15.395,13.965-26.17,27.522-47.023,33.314-20.835,5.789-42.67-1.879-51.838-18.857-15.628-28.937-1.738-60.192,48.037-82.765,50.7-22.989,127.909-62.507,127.909-62.507l-21.415,27.2L326.937,182.5,287,221.272Z" transform="translate(-104.146 -179.022)" fill="url(#linear-gradient)"/>
    <ellipse id="Ellipse_19" data-name="Ellipse 19" cx="38.045" cy="38.045" rx="38.045" ry="38.045" transform="translate(97.844 142.709) rotate(159.595)" fill="#ff7300"/>
    <path id="Path_1160" data-name="Path 1160" d="M184.175,218.808c-2.771-6.3-2.08-12.7,1.544-14.29s8.808,2.217,11.579,8.516,2.08,12.7-1.544,14.29S186.947,225.107,184.175,218.808Z" transform="translate(-115.46 -107.138)" fill="#da6600"/>
    <path id="Path_1161" data-name="Path 1161" d="M188.614,196.247a5.078,5.078,0,1,1,6.813.36A4.836,4.836,0,0,1,188.614,196.247Z" transform="translate(-123.248 -48.543)" fill="#da6600"/>
    <path id="Path_1162" data-name="Path 1162" d="M198.533,212.334a9.99,9.99,0,1,1,9.99,9.99A9.99,9.99,0,0,1,198.533,212.334Z" transform="translate(-164.038 -98.498)" fill="#da6600"/>
    <path id="Path_1163" data-name="Path 1163" d="M214.1,206.87c-2.072-6.426-.849-12.571,2.733-13.726s8.169,3.115,10.241,9.539.849,12.569-2.735,13.726S216.173,213.294,214.1,206.87Z" transform="translate(-199.961 -75.779)" fill="#da6600"/>
    <ellipse id="Ellipse_20" data-name="Ellipse 20" cx="2.938" cy="2.938" rx="2.938" ry="2.938" transform="translate(20.861 102.201)" fill="#da6600"/>
    <path id="Path_1164" data-name="Path 1164" d="M211.175,220.218a2.117,2.117,0,1,1,2.118,2.118A2.118,2.118,0,0,1,211.175,220.218Z" transform="translate(-183.817 -127.029)" fill="#da6600"/>
    <ellipse id="Ellipse_21" data-name="Ellipse 21" cx="2.938" cy="2.938" rx="2.938" ry="2.938" transform="translate(58.471 123.356)" fill="#da6600"/>
    <ellipse id="Ellipse_22" data-name="Ellipse 22" cx="1.528" cy="1.528" rx="1.528" ry="1.528" transform="translate(44.132 150.388)" fill="#da6600"/>
    <ellipse id="Ellipse_23" data-name="Ellipse 23" cx="2.233" cy="2.233" rx="2.233" ry="2.233" transform="translate(54.239 149.213)" fill="#da6600"/>
    <path id="Path_1165" data-name="Path 1165" d="M185.547,197.792a1.292,1.292,0,1,1,1.292,1.292A1.292,1.292,0,0,1,185.547,197.792Z" transform="translate(-110.152 -64.681)" fill="#da6600"/>
    <ellipse id="Ellipse_24" data-name="Ellipse 24" cx="2.586" cy="2.586" rx="2.586" ry="2.586" transform="translate(60.116 91.623)" fill="#da6600"/>
    <ellipse id="Ellipse_25" data-name="Ellipse 25" cx="0.705" cy="0.705" rx="0.705" ry="0.705" transform="translate(41.076 91.388)" fill="#da6600"/>
    <path id="Path_1166" data-name="Path 1166" d="M207.234,196.563a1.881,1.881,0,1,1,1.881,1.881A1.883,1.883,0,0,1,207.234,196.563Z" transform="translate(-172.27 -60.749)" fill="#da6600"/>
    <path id="Path_1167" data-name="Path 1167" d="M202.688,200.049a.824.824,0,1,1,.824.824A.823.823,0,0,1,202.688,200.049Z" transform="translate(-157.382 -71.405)" fill="#da6600"/>
    <path id="Path_1168" data-name="Path 1168" d="M211.909,188.858a1.058,1.058,0,1,1,1.059,1.057A1.059,1.059,0,0,1,211.909,188.858Z" transform="translate(-183.762 -39.762)" fill="#da6600"/>
    <path id="Path_1169" data-name="Path 1169" d="M198.888,224.561c-.092-1.348,2.8-2.643,6.453-2.889s6.694.648,6.784,2-2.8,2.643-6.455,2.889S198.978,225.911,198.888,224.561Z" transform="translate(-158.291 -137.684)" fill="#da6600"/>
  </g>
</svg>
