<svg xmlns="http://www.w3.org/2000/svg" width="53.48" height="53.185" viewBox="0 0 53.48 53.185">
    <path d="M12.597 22.669a5.608 5.608 0 1 0 3.054 5.196l2.06-.46a7.232 7.232 0 0 0 4.671 4.175l-.276 3.338a5.6 5.6 0 1 0 3.42.54c-.107-.055-.214-.104-.323-.151l.293-3.527a7.282 7.282 0 0 0 4.416-2.432L34.44 31.5a5.6 5.6 0 1 0 1.285-2.842L31.396 26.6a7.263 7.263 0 0 0-.26-4.734l1.98-1.558a5.614 5.614 0 1 0-1.948-2.437l-1.803 1.42a7.241 7.241 0 0 0-5.858-1.892l-.424-2.586a5.6 5.6 0 1 0-3.049.68l.486 2.987a7.241 7.241 0 0 0-3.365 5.851l-2.265.507a5.569 5.569 0 0 0-2.293-2.17zm12.594 18.916a2.484 2.484 0 1 1-1.086-3.34 2.484 2.484 0 0 1 1.086 3.34zm15.918-11.494a2.484 2.484 0 1 1-3.344 1.084 2.484 2.484 0 0 1 3.344-1.084zm-3.643-16.57a2.484 2.484 0 1 1-3.341 1.086 2.484 2.484 0 0 1 3.34-1.086zM8.93 29.877a2.484 2.484 0 1 1 3.34-1.087 2.484 2.484 0 0 1-3.345 1.084zm17.365-8.963a4.144 4.144 0 1 1-5.574 1.811 4.144 4.144 0 0 1 5.574-1.81zM18.178 8.775a2.484 2.484 0 1 1 1.085 3.341 2.484 2.484 0 0 1-1.085-3.34z"/>
</svg>
