<svg xmlns="http://www.w3.org/2000/svg" width="38.831" height="46.129" viewBox="0 0 38.831 46.129">
    <defs>
        <style>
            .prefix__cls-1{stroke:#000;stroke-width:.7px}
        </style>
    </defs>
    <g id="prefix__online-order" transform="translate(-40.779 .35)">
        <g id="prefix__Group_8" data-name="Group 8" transform="translate(41.129)">
            <path id="prefix__Path_7" d="M79.259 18.974a3.579 3.579 0 0 0-1.229-2.7 3.585 3.585 0 0 0-2.358-6.287H74.9a2.955 2.955 0 0 0-1.2.253V3.4A3.4 3.4 0 0 0 70.3 0H55.366a3.4 3.4 0 0 0-3.4 3.4v7.109a6.313 6.313 0 0 0-3.5-1.976 1.905 1.905 0 0 0-2.245 1.855V21.27a11.151 11.151 0 0 1-.726 3.977 25.1 25.1 0 0 0-1.715 8.229l-2.48 3.34a.888.888 0 0 0-.175.529v7.2a.887.887 0 0 0 .887.887h13.932a.887.887 0 0 0 .679-.316l3.042-3.616c1.449-.167 6.62-.959 9.467-3.991h1.175a3.4 3.4 0 0 0 3.4-3.4v-1.002a2.955 2.955 0 0 0 1.2.253h.77a3.585 3.585 0 0 0 2.358-6.287 3.58 3.58 0 0 0 0-5.4 3.579 3.579 0 0 0 1.229-2.7zM74.9 11.762h.77a1.813 1.813 0 1 1 0 3.625h-.77a1.2 1.2 0 0 1-1.2-1.2V12.96a1.2 1.2 0 0 1 1.2-1.198zM64.5 1.775v.2a1.662 1.662 0 1 1-3.325 0v-.2zm7.422 32.338a1.624 1.624 0 0 1-1.622 1.622H55.366a1.624 1.624 0 0 1-1.622-1.622v-4.67a.887.887 0 1 0-1.775 0v4.669a3.4 3.4 0 0 0 3.4 3.4H66.35a18.328 18.328 0 0 1-7.2 2.26.887.887 0 0 0-.609.313l-3.008 3.572H42.9v-6.02l2.479-3.337a.888.888 0 0 0 .175-.529 23.044 23.044 0 0 1 1.6-7.895A12.92 12.92 0 0 0 48 21.27V10.385a.113.113 0 0 1 .128-.113 4.942 4.942 0 0 1 3.845 5.117v6.247a.887.887 0 0 0 1.775 0V3.4a1.624 1.624 0 0 1 1.622-1.622h4.042v.2a3.437 3.437 0 1 0 6.874 0v-.2h4.025A1.624 1.624 0 0 1 71.929 3.4v30.713zm5.556-4.339a1.815 1.815 0 0 1-1.813 1.813H74.9a1.2 1.2 0 0 1-1.2-1.2V29.16a1.2 1.2 0 0 1 1.2-1.2h.77a1.814 1.814 0 0 1 1.815 1.814zm0-5.4a1.815 1.815 0 0 1-1.813 1.813H74.9a1.2 1.2 0 0 1-1.2-1.2V23.76a1.2 1.2 0 0 1 1.2-1.2h.77a1.815 1.815 0 0 1 1.815 1.814zM74.9 20.787a1.2 1.2 0 0 1-1.2-1.2V18.36a1.2 1.2 0 0 1 1.2-1.2h.77a1.813 1.813 0 1 1 0 3.625h-.77z" class="prefix__cls-1" data-name="Path 7" transform="translate(-41.129)"/>
            <path id="prefix__Path_8" d="M234.566 286.549h-4.238a3.068 3.068 0 0 0 0 6.136h4.238a3.068 3.068 0 1 0 0-6.136zm0 4.362h-4.238a1.294 1.294 0 0 1 0-2.587h4.238a1.294 1.294 0 1 1 0 2.587z" class="prefix__cls-1" data-name="Path 8" transform="translate(-210.744 -261.124)"/>
            <path id="prefix__Path_9" d="M219.825 92.751a.887.887 0 0 0-.882-.794h-2.327V91.3a2.9 2.9 0 1 0-5.8 0v.656h-2.352a.887.887 0 0 0-.882.794l-.887 8.366a.887.887 0 0 0 .882.981h12.25a.887.887 0 0 0 .882-.981zm-7.23-1.451a1.124 1.124 0 1 1 2.247 0v.656h-2.247zm-4.028 9.022l.7-6.591h1.554v.882a.887.887 0 0 0 1.775 0v-.882h2.247v.882a.887.887 0 1 0 1.775 0v-.882h1.528l.7 6.591z" class="prefix__cls-1" data-name="Path 9" transform="translate(-192.003 -80.559)"/>
            <path id="prefix__Path_10" d="M165.121 277.813a.887.887 0 1 0-.48 1.159.895.895 0 0 0 .48-1.159z" class="prefix__cls-1" data-name="Path 10" transform="translate(-152.566 -252.665)"/>
        </g>
    </g>
</svg>
