<svg xmlns="http://www.w3.org/2000/svg" width="80" height="80" viewBox="0 0 80 80">
    <defs>
        <clipPath id="prefix__clip-path">
            <path id="prefix__Rectangle_138" d="M0 0H80V80H0z" data-name="Rectangle 138" transform="translate(256 2432)" style="fill:#737373"/>
        </clipPath>
    </defs>
    <g id="prefix__Mask_Group_53" data-name="Mask Group 53" transform="translate(-256 -2432)">
        <g id="prefix__delivery-boy" transform="translate(256 2432)">
            <path id="prefix__Path_1603" d="M63.885 55.374H48.318v-2.968a17.794 17.794 0 0 0 9.375-15.654V23.613a4.67 4.67 0 0 0 3.441-5.173 21.418 21.418 0 0 0-42.5.637H6.788a2.344 2.344 0 1 0 0 4.687h15.225l.018 12.989a17.793 17.793 0 0 0 9.375 15.654v2.968H16.114A16.112 16.112 0 0 0 0 71.447v1.527A7.042 7.042 0 0 0 7.041 80h65.918A7.042 7.042 0 0 0 80 72.974v-1.527a16.112 16.112 0 0 0-16.115-16.073zm-24.023 9.279a8.468 8.468 0 0 0 7.526-4.591h4.886v15.251H27.543V60.062h4.794a8.467 8.467 0 0 0 7.525 4.591zm.062-59.965a16.739 16.739 0 0 1 16.569 14.388h-6.625a10.143 10.143 0 0 0-19.736 0h-6.774A16.756 16.756 0 0 1 39.924 4.688zm5 14.388h-9.848a5.453 5.453 0 0 1 9.848 0zm-18.2 17.673L26.7 23.763h26.306v12.989a13.144 13.144 0 0 1-26.287 0zm13.138 17.787a17.878 17.878 0 0 0 3.769-.4v2.079a3.769 3.769 0 0 1-7.537 0v-2.079a17.877 17.877 0 0 0 3.768.4zM4.687 72.974v-1.527a11.419 11.419 0 0 1 11.427-11.385h6.741v15.251h-4.121v-4.371a2.344 2.344 0 1 0-4.687 0v4.371H7.041a2.349 2.349 0 0 1-2.354-2.339zm70.625 0a2.349 2.349 0 0 1-2.354 2.339h-7.005v-4.371a2.344 2.344 0 1 0-4.687 0v4.371h-4.3V60.062h6.924a11.419 11.419 0 0 1 11.422 11.385zm0 0" data-name="Path 1603"/>
            <path id="prefix__Path_1604" d="M36.516 72.348h6.655a2.344 2.344 0 0 0 0-4.687h-6.655a2.344 2.344 0 0 0 0 4.688zm0 0" data-name="Path 1604" style="fill:#5fb709"/>
        </g>
    </g>
</svg>
