<svg xmlns="http://www.w3.org/2000/svg" width="80" height="80" viewBox="0 0 80 80">
    <defs>
        <clipPath id="prefix__clip-path">
            <path id="prefix__Rectangle_140" d="M0 0H80V80H0z" data-name="Rectangle 140" transform="translate(256 2432)" style="fill:#737373"/>
        </clipPath>
    </defs>
    <g id="prefix__Mask_Group_63" data-name="Mask Group 63" transform="translate(-256 -2432)">
        <g id="prefix__disapprove" transform="translate(249.125 2425.125)">
            <path id="prefix__Path_1631" d="M46.785 54.375a6.917 6.917 0 0 1-4.922-2.041L35.625 46.1l-6.238 6.235a7.126 7.126 0 0 1-9.846 0 6.961 6.961 0 0 1 0-9.849l6.235-6.235-6.235-6.238a6.961 6.961 0 0 1 0-9.849 7.134 7.134 0 0 1 9.849 0l6.235 6.236 6.238-6.235a7.129 7.129 0 0 1 9.849 0 6.964 6.964 0 0 1 0 9.849l-6.238 6.236 6.235 6.238a6.963 6.963 0 0 1-4.924 11.887zm-11.16-14.312a2.491 2.491 0 0 1 1.767.732l8.005 8a2.009 2.009 0 0 0 2.776 0 1.957 1.957 0 0 0 0-2.774l-8-8.008a2.5 2.5 0 0 1 0-3.535l8-8.005a1.957 1.957 0 0 0 0-2.774 1.991 1.991 0 0 0-2.773 0l-8.008 8a2.5 2.5 0 0 1-3.535 0l-8.005-8a1.994 1.994 0 0 0-2.773 0 1.954 1.954 0 0 0 0 2.773l8 8.008a2.5 2.5 0 0 1 0 3.535l-8 8.005a1.957 1.957 0 0 0 0 2.773 2.006 2.006 0 0 0 2.776 0l8.005-8a2.491 2.491 0 0 1 1.767-.732z" data-name="Path 1631" style="fill:#5fb709"/>
            <path id="prefix__Path_1632" d="M71.875 43.188V16.416a9.551 9.551 0 0 0-9.541-9.541h-5.918a2.391 2.391 0 0 0-.528.107 9.307 9.307 0 0 0-1.053-.107H16.416a9.551 9.551 0 0 0-9.541 9.541v38.418a9.551 9.551 0 0 0 9.541 9.541h25.459a22.5 22.5 0 1 0 30-21.187zm-5-26.772v25.606a22.615 22.615 0 0 0-2.5-.147V16.416a9.418 9.418 0 0 0-1.153-4.451 4.545 4.545 0 0 1 3.653 4.451zM16.416 59.375a4.545 4.545 0 0 1-4.541-4.541V16.416a4.545 4.545 0 0 1 4.541-4.541h38.418a4.545 4.545 0 0 1 4.541 4.541v26.038a22.547 22.547 0 0 0-16.921 16.921H16.416zm47.959 22.5a17.5 17.5 0 1 1 17.5-17.5 17.521 17.521 0 0 1-17.5 17.5z" data-name="Path 1632"/>
            <circle id="prefix__Ellipse_53" cx="2.5" cy="2.5" r="2.5" data-name="Ellipse 53" transform="translate(56.875 56.875)"/>
            <circle id="prefix__Ellipse_54" cx="2.5" cy="2.5" r="2.5" data-name="Ellipse 54" transform="translate(66.875 56.875)"/>
            <path id="prefix__Path_1633" d="M69.929 74.375H58.821a2.5 2.5 0 0 1-1.856-4.175 9.918 9.918 0 0 1 14.819 0 2.5 2.5 0 0 1-1.856 4.175z" data-name="Path 1633"/>
        </g>
    </g>
</svg>
