<svg xmlns="http://www.w3.org/2000/svg" width="80" height="80" viewBox="0 0 80 80">
    <defs>
        <clipPath id="prefix__clip-path">
            <path id="prefix__Rectangle_138" d="M0 0H80V80H0z" data-name="Rectangle 138" transform="translate(256 2432)" style="fill:#737373"/>
        </clipPath>
        <style>
            .prefix__cls-3{fill:#5fb709}
        </style>
    </defs>
    <g id="prefix__Mask_Group_65" data-name="Mask Group 65" transform="translate(-256 -2432)">
        <path id="prefix__content" d="M77.256 64A9.375 9.375 0 0 1 64 77.254l-17.093-17.12a3.119 3.119 0 0 1-.8-1.374l-3.494-12.613a3.125 3.125 0 0 1 3.92-3.824l12.3 3.737a3.12 3.12 0 0 1 1.3.782zm-25.345-7.7L63.4 67.808l4.42-4.42-11.553-11.577-6.114-1.857zm20.923 12.116l-.6-.6-4.42 4.42.6.605a3.125 3.125 0 0 0 4.417-4.421zM67.5 0h-55A12.514 12.514 0 0 0 0 12.5v55A12.514 12.514 0 0 0 12.5 80h38.281a3.125 3.125 0 0 0 0-6.25H12.5a6.257 6.257 0 0 1-6.25-6.25v-55a6.257 6.257 0 0 1 6.25-6.25h55a6.257 6.257 0 0 1 6.25 6.25v38.438a3.125 3.125 0 0 0 6.25 0V12.5A12.514 12.514 0 0 0 67.5 0zm0 0" transform="translate(256 2432)"/>
        <rect id="prefix__Rectangle_158" width="53" height="7" class="prefix__cls-3" data-name="Rectangle 158" rx="3.5" transform="translate(269 2447)"/>
        <rect id="prefix__Rectangle_159" width="53" height="7" class="prefix__cls-3" data-name="Rectangle 159" rx="3.5" transform="translate(269 2459)"/>
        <rect id="prefix__Rectangle_160" width="26" height="7" class="prefix__cls-3" data-name="Rectangle 160" rx="3.5" transform="translate(269 2471)"/>
    </g>
</svg>
