<svg xmlns="http://www.w3.org/2000/svg" width="80" height="80" viewBox="0 0 80 80">
    <defs>
        <clipPath id="prefix__clip-path">
            <path id="prefix__Rectangle_138" d="M0 0H80V80H0z" data-name="Rectangle 138" transform="translate(256 2432)" style="fill:#737373"/>
        </clipPath>
    </defs>
    <g id="prefix__Mask_Group_58" data-name="Mask Group 58" transform="translate(-256 -2432)">
        <g id="prefix__admin" transform="translate(265.531 2432)">
            <path id="prefix__Path_1615" d="M37.5 16.406a7.031 7.031 0 1 0-7.031 7.031 7.039 7.039 0 0 0 7.031-7.031zm-7.031 2.344a2.344 2.344 0 1 1 2.344-2.344 2.347 2.347 0 0 1-2.344 2.344zm0 0" data-name="Path 1615" style="fill:#5fb709"/>
            <path id="prefix__Path_1616" d="M58.594 56.563H56.25v-7.032a2.344 2.344 0 0 0-2.344-2.344H32.813v-5.131a21.094 21.094 0 1 0-4.687 0v5.131H7.031a2.344 2.344 0 0 0-2.344 2.344v7.031H2.344A2.344 2.344 0 0 0 0 58.906v9.375a2.344 2.344 0 0 0 2.344 2.344h2.344v7.031a2.344 2.344 0 0 0 4.688 0v-7.031h2.344a2.344 2.344 0 0 0 2.344-2.344v-9.375a2.344 2.344 0 0 0-2.344-2.344H9.375v-4.687h18.75v4.688h-2.344a2.344 2.344 0 0 0-2.344 2.344v9.375a2.344 2.344 0 0 0 2.344 2.344h2.344v7.031a2.344 2.344 0 1 0 4.687 0v-7.032h2.344a2.344 2.344 0 0 0 2.344-2.344v-9.375a2.344 2.344 0 0 0-2.344-2.344h-2.343v-4.687h18.75v4.688h-2.344a2.344 2.344 0 0 0-2.344 2.344v9.375a2.344 2.344 0 0 0 2.344 2.344h2.344v7.031a2.344 2.344 0 0 0 4.688 0v-7.032h2.344a2.344 2.344 0 0 0 2.344-2.344v-9.375a2.344 2.344 0 0 0-2.345-2.343zM23.438 35.915v-.759a7.031 7.031 0 0 1 14.063 0v.759a16.315 16.315 0 0 1-7.03 1.585 16.315 16.315 0 0 1-7.029-1.585zm-9.375-14.821A16.406 16.406 0 1 1 41.949 32.8a11.72 11.72 0 0 0-22.961 0 16.357 16.357 0 0 1-4.925-11.706zM9.375 65.937H4.688V61.25h4.687zm23.438 0h-4.688V61.25h4.687zm23.438 0h-4.688V61.25h4.687zm0 0" data-name="Path 1616"/>
        </g>
    </g>
</svg>
