<svg xmlns="http://www.w3.org/2000/svg" width="80" height="80" viewBox="0 0 80 80">
  <g id="Group_3597" data-name="Group 3597" transform="translate(-256 -2432)">
    <rect id="Rectangle_138" data-name="Rectangle 138" width="80" height="80" transform="translate(256 2432)" fill="#737373" opacity="0"/>
    <g id="Group_3596" data-name="Group 3596" transform="translate(909.983 2035.105)">
      <path id="Path_1587" data-name="Path 1587" d="M-614.26,469.574h-37a2.492,2.492,0,0,1-2.722-2.687q0-29.654,0-59.308a2.489,2.489,0,0,1,2.725-2.683q37.038,0,74.076,0a2.52,2.52,0,0,1,2.8,2.842q0,29.5,0,59a2.538,2.538,0,0,1-2.882,2.841Zm-34.718-5.027h69.566V419.785h-57.1v-4.957H-579.4v-4.907H-648.95v4.959h7.343v4.961h-7.37Z"/>
      <path id="Path_1588" data-name="Path 1588" d="M-349.989,550.268q0-7.266,0-14.531,0-2.84,2.877-2.844,8.392,0,16.785,0a2.5,2.5,0,0,1,2.724,2.762q0,14.57,0,29.14c0,2-.928,2.92-2.953,2.92h-16.629a2.511,2.511,0,0,1-2.8-2.763Q-349.992,557.612-349.989,550.268Zm17.361,12.443V537.925h-12.35v24.786Z" transform="translate(-256.725 -108.095)" fill="#5fb709"/>
      <path id="Path_1589" data-name="Path 1589" d="M-590,540.265c0-1.554,0-3.107,0-4.66a2.489,2.489,0,0,1,2.685-2.72q4.816-.009,9.631,0a2.462,2.462,0,0,1,2.6,2.569q.014,4.893,0,9.787a2.452,2.452,0,0,1-2.527,2.561q-4.932.016-9.864,0A2.457,2.457,0,0,1-590,545.236C-590.011,543.579-590,541.922-590,540.265Zm9.906,2.531v-4.891h-4.877V542.8Z" transform="translate(-54.029 -108.085)" fill="#5fb709"/>
      <path id="Path_1590" data-name="Path 1590" d="M-589.992,668.346c0-1.605,0-3.21,0-4.816a2.472,2.472,0,0,1,2.6-2.645q4.854-.01,9.709,0a2.471,2.471,0,0,1,2.609,2.639q.006,4.777,0,9.554a2.488,2.488,0,0,1-2.681,2.724q-4.816.01-9.631,0a2.471,2.471,0,0,1-2.607-2.643C-590,671.557-589.991,669.951-589.992,668.346Zm5.025-2.458v4.885h4.885v-4.885Z" transform="translate(-54.04 -216.183)" fill="#5fb709"/>
      <path id="Path_1591" data-name="Path 1591" d="M-449.258,597.231v4.881h-12.336v-4.881Z" transform="translate(-162.475 -162.43)"/>
      <path id="Path_1592" data-name="Path 1592" d="M-449.382,725.252v4.874h-12.364v-4.874Z" transform="translate(-162.346 -270.545)"/>
      <path id="Path_1593" data-name="Path 1593" d="M-454.218,533.254v4.874h-7.362v-4.874Z" transform="translate(-162.486 -108.401)"/>
      <path id="Path_1594" data-name="Path 1594" d="M-454.227,661.244v4.877h-7.361v-4.877Z" transform="translate(-162.48 -216.49)"/>
    </g>
  </g>
</svg>
