<svg xmlns="http://www.w3.org/2000/svg" width="80" height="80" viewBox="0 0 80 80">
    <defs>
        <clipPath id="prefix__clip-path">
            <path id="prefix__Rectangle_138" d="M0 0H80V80H0z" data-name="Rectangle 138" transform="translate(256 2432)" style="fill:#737373"/>
        </clipPath>
    </defs>
    <g id="prefix__Mask_Group_51" data-name="Mask Group 51" transform="translate(-256 -2432)">
        <g id="prefix__bakery" transform="translate(256 2432)">
            <path id="prefix__Path_1598" d="M80 27.448a2.344 2.344 0 0 0-2.344-2.348H62.427v-5.35h.167a7.361 7.361 0 0 0 7.365-7.365A12.4 12.4 0 0 0 57.573 0H22.427a12.4 12.4 0 0 0-12.385 12.385 7.363 7.363 0 0 0 7.365 7.365h.167v5.35H2.344A2.344 2.344 0 0 0 0 27.448v50.208A2.344 2.344 0 0 0 2.344 80h75.312A2.344 2.344 0 0 0 80 77.656zm-4.687 6.276a3.932 3.932 0 0 1-7.865 0v-3.932h7.865zm-12.552 0a3.932 3.932 0 0 1-7.865 0v-3.932h7.864v3.932zM14.729 12.385a7.707 7.707 0 0 1 7.7-7.7h.167v2.68a2.344 2.344 0 0 0 4.688 0V4.688h5.354v2.677a2.344 2.344 0 0 0 4.688 0V4.688h5.354v2.677a2.344 2.344 0 0 0 4.688 0V4.688h5.354v2.677a2.344 2.344 0 0 0 4.688 0V4.688h.167a7.707 7.707 0 0 1 7.7 7.7 2.677 2.677 0 0 1-2.677 2.677H17.406a2.677 2.677 0 0 1-2.677-2.677zm7.531 7.365h35.48v5.35H22.26zm20.084 10.042h7.865v3.932a3.932 3.932 0 1 1-7.865 0zm-12.552 0h7.865v3.932a3.932 3.932 0 0 1-7.865 0v-3.932zM17.24 33.654v-3.862h7.86v3.932a3.932 3.932 0 0 1-7.865 0v-.07zM4.687 29.792h7.865v3.862a4 4 0 0 1-4.005 4 3.856 3.856 0 0 1-3.86-3.86zm40.167 45.521V52.385h7.865v22.928zm12.552 0V52.385h7.865v22.928zm12.552 0V50.042a2.344 2.344 0 0 0-2.343-2.342H42.51a2.344 2.344 0 0 0-2.344 2.344v25.269H4.688V41.425a8.517 8.517 0 0 0 3.862.919 8.634 8.634 0 0 0 6.144-2.544c.063-.063.123-.129.184-.193a8.6 8.6 0 0 0 12.57.018 8.6 8.6 0 0 0 12.552 0 8.6 8.6 0 0 0 12.552 0 8.6 8.6 0 0 0 12.552 0 8.6 8.6 0 0 0 10.208 1.767v33.921z" data-name="Path 1598"/>
            <path id="prefix__Path_1599" d="M32.469 47.7H12.385a2.344 2.344 0 0 0-2.344 2.344v17.571a2.344 2.344 0 0 0 2.344 2.344h20.084a2.344 2.344 0 0 0 2.344-2.344V50.042a2.344 2.344 0 0 0-2.344-2.342zm-2.344 17.571h-15.4V52.385h15.4z" data-name="Path 1599" style="fill:#5fb709"/>
        </g>
    </g>
</svg>
