<svg xmlns="http://www.w3.org/2000/svg" width="80" height="80" viewBox="0 0 80 80">
    <defs>
        <clipPath id="prefix__clip-path">
            <path id="prefix__Rectangle_155" d="M0 0H80V80H0z" data-name="Rectangle 155" transform="translate(256 2432)" style="fill:#737373"/>
        </clipPath>
        <style>
            .prefix__cls-3,.prefix__cls-4{stroke:#000;stroke-width:1.2px}.prefix__cls-4{fill:#5fb709;stroke:#5fb709}
        </style>
    </defs>
    <g id="prefix__Mask_Group_57" data-name="Mask Group 57" transform="translate(-256 -2432)">
        <g id="prefix__online-order" transform="translate(256 2432)">
            <g id="prefix__Group_3606" data-name="Group 3606">
                <path id="prefix__Path_1611" d="M73.573 33.413a6.3 6.3 0 0 0-2.165-4.755 6.313 6.313 0 0 0-4.152-11.071H65.9a5.2 5.2 0 0 0-2.11.446V5.981A5.988 5.988 0 0 0 57.808 0H31.5a5.988 5.988 0 0 0-5.981 5.981V18.5a11.118 11.118 0 0 0-6.168-3.479 3.355 3.355 0 0 0-3.954 3.266v19.169a19.637 19.637 0 0 1-1.278 7A44.191 44.191 0 0 0 11.1 58.95l-4.366 5.882a1.564 1.564 0 0 0-.307.931v12.675A1.563 1.563 0 0 0 7.989 80h24.527a1.562 1.562 0 0 0 1.2-.556l5.358-6.363c2.552-.293 11.658-1.688 16.671-7.029h2.069a5.988 5.988 0 0 0 5.981-5.981V58.3a5.2 5.2 0 0 0 2.11.446h1.357a6.313 6.313 0 0 0 4.152-11.071 6.3 6.3 0 0 0 0-9.509 6.3 6.3 0 0 0 2.165-4.754zM65.9 20.712h1.357a3.192 3.192 0 1 1 0 6.384H65.9a2.113 2.113 0 0 1-2.11-2.11v-2.163a2.113 2.113 0 0 1 2.11-2.111zM47.594 3.125v.345a2.927 2.927 0 1 1-5.855 0v-.345zm13.07 56.947a2.86 2.86 0 0 1-2.856 2.856H31.5a2.86 2.86 0 0 1-2.856-2.856v-8.223a1.563 1.563 0 0 0-3.125 0v8.223a5.988 5.988 0 0 0 5.981 5.981h19.34c-5.24 3.347-12.593 3.973-12.681 3.98a1.562 1.562 0 0 0-1.073.551l-5.3 6.291H9.552v-10.6L13.91 60.4a1.564 1.564 0 0 0 .308-.931 40.579 40.579 0 0 1 2.82-13.9 22.753 22.753 0 0 0 1.482-8.113V18.288a.2.2 0 0 1 .226-.2c4.05.8 6.771 4.42 6.771 9.011v11a1.562 1.562 0 0 0 3.125 0V5.981A2.86 2.86 0 0 1 31.5 3.125h7.117v.345a6.052 6.052 0 1 0 12.1 0v-.345h7.089a2.86 2.86 0 0 1 2.856 2.856v54.09zm9.784-7.641a3.2 3.2 0 0 1-3.192 3.192H65.9a2.113 2.113 0 0 1-2.11-2.11v-2.164a2.113 2.113 0 0 1 2.11-2.11h1.357a3.2 3.2 0 0 1 3.191 3.192zm0-9.509a3.2 3.2 0 0 1-3.192 3.192H65.9A2.113 2.113 0 0 1 63.789 44v-2.16a2.113 2.113 0 0 1 2.11-2.11h1.357a3.2 3.2 0 0 1 3.192 3.192zM65.9 36.6a2.113 2.113 0 0 1-2.11-2.11v-2.158a2.113 2.113 0 0 1 2.11-2.11h1.357a3.192 3.192 0 1 1 0 6.384H65.9z" class="prefix__cls-3" data-name="Path 1611"/>
                <path id="prefix__Path_1612" d="M48.376 44.773h-7.464a5.4 5.4 0 1 0 0 10.806h7.464a5.4 5.4 0 1 0 0-10.806zm0 7.681h-7.464a2.278 2.278 0 0 1 0-4.556h7.464a2.278 2.278 0 1 1 0 4.556z" class="prefix__cls-4" data-name="Path 1612"/>
                <path id="prefix__Path_1613" d="M55.421 21.469a1.562 1.562 0 0 0-1.554-1.4h-4.1v-1.152a5.1 5.1 0 1 0-10.207 0v1.155h-4.139a1.562 1.562 0 0 0-1.554 1.4L32.3 36.2a1.563 1.563 0 0 0 1.554 1.727H55.43a1.563 1.563 0 0 0 1.554-1.727zm-12.733-2.552a1.979 1.979 0 1 1 3.957 0v1.155h-3.957zM35.6 34.8l1.226-11.6h2.737v1.55a1.563 1.563 0 0 0 3.125 0V23.2h3.957v1.55a1.563 1.563 0 1 0 3.125 0V23.2h2.692l1.231 11.6z" class="prefix__cls-4" data-name="Path 1613"/>
                <path id="prefix__Path_1614" d="M28.536 44.284a1.562 1.562 0 1 0-.845 2.041 1.576 1.576 0 0 0 .845-2.041z" class="prefix__cls-3" data-name="Path 1614"/>
            </g>
        </g>
    </g>
</svg>
