<svg xmlns="http://www.w3.org/2000/svg" width="80" height="80" viewBox="0 0 80 80">
    <defs>
        <clipPath id="prefix__clip-path">
            <path id="prefix__Rectangle_138" d="M0 0H80V80H0z" data-name="Rectangle 138" transform="translate(256 2432)" style="fill:#737373"/>
        </clipPath>
        <style>
            .prefix__cls-3{fill:#5fb709}
        </style>
    </defs>
    <g id="prefix__Mask_Group_52" data-name="Mask Group 52" transform="translate(-256 -2432)">
        <g id="prefix__map" transform="translate(256 2432)">
            <path id="prefix__Path_1600" d="M72.969 0h-7.03A2.344 2.344 0 0 0 63.6 2.344v7.187H2.344A2.344 2.344 0 0 0 0 11.875v65.781A2.344 2.344 0 0 0 2.344 80h70.547A7.117 7.117 0 0 0 80 72.891V7.031A7.039 7.039 0 0 0 72.969 0zM45.5 36.332L40.441 30.3l3.359-6.762h19.8V40.72l-2.857 4.365c-.651-.888-.887-1.953-2.132-2.331L54.16 41.4a2.344 2.344 0 0 0-2.993 1.856l-3.161 18.9-11.715-16.807 8.67-5.537a2.344 2.344 0 0 0 .536-3.48zm27.395 38.98H4.688V14.219H63.6v4.631H42.347a2.344 2.344 0 0 0-2.1 1.3l-4.687 9.431a2.344 2.344 0 0 0 .3 2.548l4.33 5.171-8.479 5.415a2.345 2.345 0 0 0-.661 3.315l16.4 23.534a2.346 2.346 0 0 0 4.235-.953l3.669-21.943 1.048.318 2.294 3.7a2.347 2.347 0 0 0 3.953.048l.95-1.451v18.842a2.344 2.344 0 0 0 2.344 2.344h6.952a2.422 2.422 0 0 1 0 4.844zm2.421-9.107c-1.864-.677-3.028-.329-7.03-.425V4.688h4.687a2.346 2.346 0 0 1 2.343 2.344z" data-name="Path 1600"/>
            <path id="prefix__Path_1601" d="M20.318 37.188l9.366-7.023a2.344 2.344 0 0 0 .77-2.746l-2.816-7.034a2.344 2.344 0 0 0-2.176-1.472H11.924a2.344 2.344 0 0 0-2.344 2.344v5.3a2.344 2.344 0 0 0 .512 1.462l6.988 8.754a2.344 2.344 0 0 0 3.238.413zM14.268 23.6h9.608l1.559 3.893-6.109 4.581-5.057-6.335z" class="prefix__cls-3" data-name="Path 1601"/>
            <path id="prefix__Path_1602" d="M20.743 40.88a2.346 2.346 0 0 0-4.119.96l-5.661 25.721a2.346 2.346 0 0 0 3.886 2.219l15.035-14a2.344 2.344 0 0 0 .233-3.179zm-3.586 20.345l2.99-13.586 4.951 6.19z" class="prefix__cls-3" data-name="Path 1602"/>
        </g>
    </g>
</svg>
