<svg xmlns="http://www.w3.org/2000/svg" width="80" height="80" viewBox="0 0 80 80">
    <defs>
        <clipPath id="prefix__clip-path">
            <path id="prefix__Rectangle_138" d="M0 0H80V80H0z" data-name="Rectangle 138" transform="translate(256 2432)" style="fill:#737373"/>
        </clipPath>
    </defs>
    <g id="prefix__Mask_Group_64" data-name="Mask Group 64" transform="translate(-256 -2432)">
        <g id="prefix__phone_1_" data-name="phone (1)" transform="translate(256 2432)">
            <g id="prefix__Group_3614" data-name="Group 3614">
                <g id="prefix__Group_3613" data-name="Group 3613">
                    <path id="prefix__Path_1634" d="M63.592 68.359H57.7a1.563 1.563 0 0 0 0 3.125h5.891a1.563 1.563 0 0 0 0-3.125z" data-name="Path 1634"/>
                </g>
            </g>
            <g id="prefix__Group_3616" data-name="Group 3616">
                <g id="prefix__Group_3615" data-name="Group 3615">
                    <path id="prefix__Path_1635" d="M72.347 19.886a1.72 1.72 0 0 0-.089-.292 1.552 1.552 0 0 0-.144-.27 1.6 1.6 0 0 0-.2-.237 1.5 1.5 0 0 0-.238-.194 1.585 1.585 0 0 0-.269-.144 1.468 1.468 0 0 0-.292-.089 1.547 1.547 0 0 0-.611 0 1.471 1.471 0 0 0-.292.089 1.546 1.546 0 0 0-.27.144 1.516 1.516 0 0 0-.431.431 1.552 1.552 0 0 0-.144.27 1.577 1.577 0 0 0-.089.292 1.5 1.5 0 0 0 0 .609 1.63 1.63 0 0 0 .089.294 1.6 1.6 0 0 0 .144.269 1.5 1.5 0 0 0 .194.238 1.589 1.589 0 0 0 .238.2 1.546 1.546 0 0 0 .27.144 1.578 1.578 0 0 0 .292.089 1.536 1.536 0 0 0 .3.03 1.553 1.553 0 0 0 .306-.03 1.565 1.565 0 0 0 .561-.233 1.565 1.565 0 0 0 .577-.7 1.781 1.781 0 0 0 .089-.294 1.578 1.578 0 0 0 0-.609z" data-name="Path 1635"/>
                </g>
            </g>
            <g id="prefix__Group_3618" data-name="Group 3618">
                <g id="prefix__Group_3617" data-name="Group 3617">
                    <path id="prefix__Path_1636" d="M64.628 18.628H50.48a1.562 1.562 0 0 0 0 3.125h14.148a1.563 1.563 0 0 0 0-3.125z" data-name="Path 1636"/>
                </g>
            </g>
            <g id="prefix__Group_3620" data-name="Group 3620">
                <g id="prefix__Group_3619" data-name="Group 3619">
                    <path id="prefix__Path_1637" d="M20.438 4c-7.512 0-15.6 1.929-15.6 6.163v14.403c0 4.234 8.085 6.163 15.6 6.163s15.6-1.929 15.6-6.163V10.159C36.034 5.925 27.949 4 20.438 4zM7.967 10.161c.024-.171.669-1.026 3.22-1.829a32.078 32.078 0 0 1 9.251-1.21 32.078 32.078 0 0 1 9.251 1.21c2.545.8 3.193 1.654 3.22 1.828-.027.174-.675 1.026-3.22 1.828a32.077 32.077 0 0 1-9.251 1.21 32.077 32.077 0 0 1-9.251-1.21c-2.551-.8-3.2-1.658-3.22-1.825zm0 3.9c3.041 1.538 7.864 2.264 12.471 2.264s9.43-.726 12.471-2.264v4.328c-2.585 1.352-7.332 2.2-12.471 2.2s-9.886-.852-12.471-2.2zm24.942 10.503c-.022.169-.665 1.025-3.221 1.83a32.077 32.077 0 0 1-9.251 1.21 32.077 32.077 0 0 1-9.251-1.21c-2.556-.8-3.2-1.661-3.22-1.828V21.8a36.444 36.444 0 0 0 12.471 1.919A36.445 36.445 0 0 0 32.909 21.8v2.767z" data-name="Path 1637" style="fill:#5fb709"/>
                </g>
            </g>
            <g id="prefix__Group_3622" data-name="Group 3622">
                <g id="prefix__Group_3621" data-name="Group 3621">
                    <path id="prefix__Path_1638" d="M60.647 31.9A13.793 13.793 0 1 0 74.44 45.691 13.808 13.808 0 0 0 60.647 31.9zm0 24.46a10.668 10.668 0 1 1 10.668-10.669 10.679 10.679 0 0 1-10.668 10.667z" data-name="Path 1638"/>
                </g>
            </g>
            <g id="prefix__Group_3624" data-name="Group 3624">
                <g id="prefix__Group_3623" data-name="Group 3623">
                    <path id="prefix__Path_1639" d="M61.48 43.847v-2.61c1.116.089 1.443.661 2.01.661.756 0 1.065-.983 1.065-1.466 0-1.233-2.01-1.519-3.075-1.555v-.447c0-.25-.326-.483-.653-.483-.378 0-.653.232-.653.483v.5c-1.82.268-3.435 1.359-3.435 3.629 0 2.288 1.855 3.057 3.435 3.682v2.9c-1.271-.232-1.855-1.287-2.576-1.287-.653 0-1.168.894-1.168 1.5 0 1.144 1.683 2.252 3.744 2.324v.447c0 .25.275.483.653.483.326 0 .653-.232.653-.483V51.6a3.745 3.745 0 0 0 3.384-3.9c0-2.405-1.821-3.245-3.384-3.853zm-1.134-.429c-.653-.286-1.1-.608-1.1-1.126 0-.429.326-.84 1.1-1zm.962 5.7v-2.4c.618.3 1.048.679 1.048 1.269 0 .65-.464.99-1.048 1.133z" data-name="Path 1639"/>
                </g>
            </g>
            <g id="prefix__Group_3626" data-name="Group 3626">
                <g id="prefix__Group_3625" data-name="Group 3625">
                    <path id="prefix__Path_1640" d="M16.656 48.084a1.467 1.467 0 0 0-.089-.292 1.543 1.543 0 0 0-.144-.27 1.513 1.513 0 0 0-.431-.431 1.546 1.546 0 0 0-.27-.144 1.467 1.467 0 0 0-.292-.089 1.539 1.539 0 0 0-.609 0 1.471 1.471 0 0 0-.292.089 1.546 1.546 0 0 0-.27.144 1.5 1.5 0 0 0-.238.194 1.6 1.6 0 0 0-.2.237 1.553 1.553 0 0 0-.144.27 1.577 1.577 0 0 0-.089.292 1.578 1.578 0 0 0 0 .609 1.63 1.63 0 0 0 .089.294 1.556 1.556 0 0 0 .339.506 1.5 1.5 0 0 0 .238.194 1.448 1.448 0 0 0 .27.144 1.582 1.582 0 0 0 .292.091 1.578 1.578 0 0 0 .609 0 1.586 1.586 0 0 0 .292-.091 1.448 1.448 0 0 0 .27-.144 1.513 1.513 0 0 0 .431-.431 1.586 1.586 0 0 0 .144-.269 1.513 1.513 0 0 0 .089-.294 1.5 1.5 0 0 0 0-.609z" data-name="Path 1640"/>
                </g>
            </g>
            <g id="prefix__Group_3628" data-name="Group 3628">
                <g id="prefix__Group_3627" data-name="Group 3627">
                    <path id="prefix__Path_1641" d="M75.8 13.667H45.5a4.208 4.208 0 0 0-4.2 4.2v22.618a4.675 4.675 0 0 0-1.57-.27h-1.075v-.87a4.7 4.7 0 0 0-4.7-4.7H7.128A7.137 7.137 0 0 0 0 41.774v27.1A7.136 7.136 0 0 0 7.128 76h33.109a4.162 4.162 0 0 0 2.627-.93A4.183 4.183 0 0 0 45.5 76h30.3a4.208 4.208 0 0 0 4.2-4.2V17.87a4.208 4.208 0 0 0-4.2-4.203zM7.128 37.775H33.96a1.572 1.572 0 0 1 1.57 1.57v.87H3.443a4.01 4.01 0 0 1 3.685-2.44zM41.294 52.5H31.9a5.968 5.968 0 0 0 0 11.936h9.4v7.386a1.059 1.059 0 0 1-1.058 1.058H7.128a4.007 4.007 0 0 1-4-4V43.34h36.6a1.572 1.572 0 0 1 1.57 1.57v1.916H21.357a1.563 1.563 0 0 0 0 3.125h19.937zm0 3.125v5.685H31.9a2.843 2.843 0 0 1 0-5.686zM76.875 71.8a1.08 1.08 0 0 1-1.075 1.078H45.5a1.079 1.079 0 0 1-1.081-1.078v-4.835h32.456zm0-7.96H44.419V26.714h32.456zm0-40.25H44.419v-5.72a1.08 1.08 0 0 1 1.081-1.078h30.3a1.079 1.079 0 0 1 1.078 1.078z" data-name="Path 1641"/>
                </g>
            </g>
        </g>
    </g>
</svg>
