<svg xmlns="http://www.w3.org/2000/svg" width="80" height="80" viewBox="0 0 80 80">
    <defs>
        <clipPath id="prefix__clip-path">
            <path id="prefix__Rectangle_138" d="M0 0H80V80H0z" data-name="Rectangle 138" transform="translate(256 2432)" style="fill:#737373"/>
        </clipPath>
    </defs>
    <g id="prefix__Mask_Group_62" data-name="Mask Group 62" transform="translate(-256 -2432)">
        <path id="prefix__salary" d="M75.313 66.615c0-4.882-4.342-8.854-9.679-8.854-2.269 0-3.915-1.1-3.915-2.6a2.594 2.594 0 0 1 2.578-2.6 16.255 16.255 0 0 1 6.28 1.315 3.125 3.125 0 1 0 2.265-5.825 27.535 27.535 0 0 0-4.093-1.259v-2.417a3.125 3.125 0 0 0-6.25 0v2.112a8.863 8.863 0 0 0-7.031 8.669c0 5.048 4.37 8.854 10.165 8.854 1.859 0 3.429 1.192 3.429 2.6a2.756 2.756 0 0 1-2.76 2.6 21.888 21.888 0 0 1-6.866-1.55 3.125 3.125 0 0 0-2.309 5.808 30.6 30.6 0 0 0 5.373 1.567v1.84a3.125 3.125 0 0 0 6.25 0V75.13a9.086 9.086 0 0 0 3.85-2.214 8.7 8.7 0 0 0 2.713-6.3z" transform="translate(256 2432)" style="fill:#5fb709"/>
        <path id="prefix__salary-2" d="M49.644 54.273a3.125 3.125 0 0 1-4.025 1.827 22.1 22.1 0 0 0-7.807-1.411h-4.687a22.213 22.213 0 0 0-22.187 22.186 3.125 3.125 0 0 1-6.25 0 28.47 28.47 0 0 1 28.437-28.437h4.688a28.334 28.334 0 0 1 10.006 1.811 3.125 3.125 0 0 1 1.825 4.024zm6.606-33.18A21.094 21.094 0 1 1 35.156 0 21.118 21.118 0 0 1 56.25 21.094zm-6.25 0a14.844 14.844 0 1 0-14.844 14.845A14.861 14.861 0 0 0 50 21.094z" data-name="salary" transform="translate(256 2432)"/>
    </g>
</svg>
