<svg xmlns="http://www.w3.org/2000/svg" width="80" height="80" viewBox="0 0 80 80">
    <defs>
        <clipPath id="prefix__clip-path">
            <path id="prefix__Rectangle_138" d="M0 0H80V80H0z" data-name="Rectangle 138" transform="translate(256 2432)" style="fill:#737373"/>
        </clipPath>
        <style>
            .prefix__cls-3{fill:#5fb709}
        </style>
    </defs>
    <g id="prefix__Mask_Group_50" data-name="Mask Group 50" transform="translate(-256 -2432)">
        <g id="prefix__route" transform="translate(256 2432)">
            <g id="prefix__Group_3599" data-name="Group 3599">
                <g id="prefix__Group_3598" data-name="Group 3598">
                    <path id="prefix__Path_1595" d="M62.656 62.656a7.355 7.355 0 0 0-6.958 5H12.344a7.656 7.656 0 0 1 0-15.312h15a12.344 12.344 0 0 0 0-24.687H14.3a7.375 7.375 0 0 0-4.614-4.614v-5.7h12.658A2.344 2.344 0 0 0 24.688 15V5a2.344 2.344 0 0 0-2.344-2.344h-15A2.344 2.344 0 0 0 5 5v18.042a7.343 7.343 0 1 0 9.3 9.3h13.044a7.656 7.656 0 0 1 0 15.313h-15a12.344 12.344 0 0 0 0 24.688H55.7a7.343 7.343 0 1 0 6.958-9.687zM9.688 7.344H20v5.313H9.688zM7.344 32.656A2.656 2.656 0 1 1 10 30a2.659 2.659 0 0 1-2.656 2.656zm55.313 40A2.656 2.656 0 1 1 65.313 70a2.659 2.659 0 0 1-2.657 2.656z" data-name="Path 1595"/>
                </g>
            </g>
            <g id="prefix__Group_3601" data-name="Group 3601">
                <g id="prefix__Group_3600" data-name="Group 3600">
                    <path id="prefix__Path_1596" d="M62.656 17.656A7.344 7.344 0 1 0 70 25a7.352 7.352 0 0 0-7.344-7.344zm0 10A2.656 2.656 0 1 1 65.313 25a2.659 2.659 0 0 1-2.657 2.656z" class="prefix__cls-3" data-name="Path 1596"/>
                </g>
            </g>
            <g id="prefix__Group_3603" data-name="Group 3603">
                <g id="prefix__Group_3602" data-name="Group 3602">
                    <path id="prefix__Path_1597" d="M62.656 7.656A17.344 17.344 0 0 0 51.5 38.284l9.064 17.781a2.344 2.344 0 0 0 4.176 0l9.064-17.781A17.344 17.344 0 0 0 62.656 7.656zm7.836 27.284a2.344 2.344 0 0 0-.636.775l-7.2 14.125-7.2-14.125a2.343 2.343 0 0 0-.636-.775 12.656 12.656 0 1 1 15.672 0z" class="prefix__cls-3" data-name="Path 1597"/>
                </g>
            </g>
        </g>
    </g>
</svg>
