<svg xmlns="http://www.w3.org/2000/svg" width="80" height="80" viewBox="0 0 80 80">
    <defs>
        <clipPath id="prefix__clip-path">
            <path id="prefix__Rectangle_153" d="M0 0H80V80H0z" data-name="Rectangle 153" transform="translate(256 2432)" style="fill:#737373"/>
        </clipPath>
    </defs>
    <g id="prefix__Mask_Group_54" data-name="Mask Group 54" transform="translate(-256 -2432)">
        <path id="prefix__card_to_card_transaction" d="M58.182 61.818a3.636 3.636 0 0 0-3.636 3.636v3.636a3.636 3.636 0 0 1-3.636 3.636H14.545a3.636 3.636 0 0 1-3.636-3.636V54.545h3.636a3.636 3.636 0 0 0 0-7.273h-3.636v-3.636A3.636 3.636 0 0 1 14.545 40a3.636 3.636 0 0 0 0-7.273A10.909 10.909 0 0 0 3.636 43.636v25.455A10.909 10.909 0 0 0 14.545 80h36.364a10.909 10.909 0 0 0 10.909-10.909v-3.636a3.636 3.636 0 0 0-3.636-3.637zm-36.364 3.637h3.636a3.636 3.636 0 1 0 0-7.273h-3.636a3.636 3.636 0 1 0 0 7.273z" data-name="card to card transaction" transform="translate(252.364 2428.364)" style="fill:#5fb709"/>
        <path id="prefix__card_to_card_transaction-2" d="M72.727 7.273H36.364a10.909 10.909 0 0 0-10.909 10.909v25.454a10.909 10.909 0 0 0 10.909 10.909h36.363a10.909 10.909 0 0 0 10.909-10.909V18.182A10.909 10.909 0 0 0 72.727 7.273zm3.636 36.364a3.636 3.636 0 0 1-3.636 3.636H36.364a3.636 3.636 0 0 1-3.636-3.636V18.182a3.636 3.636 0 0 1 3.636-3.636h36.363a3.636 3.636 0 0 1 3.636 3.636zM63.636 29.091A5.418 5.418 0 0 0 60 30.509a5.455 5.455 0 1 0 0 8.073 5.455 5.455 0 1 0 3.636-9.491z" data-name="card to card transaction" transform="translate(252.364 2428.364)"/>
    </g>
</svg>
