<svg xmlns="http://www.w3.org/2000/svg" width="175" height="175" viewBox="0 0 175 175">
    <defs>
        <style>
            .prefix__cls-2{fill:#5fb709}
        </style>
    </defs>
    <g id="prefix__Group_883" data-name="Group 883" transform="translate(-1211 -117)" style="opacity:.2">
        <circle id="prefix__Ellipse_1" cx="5" cy="5" r="5" class="prefix__cls-2" data-name="Ellipse 1" transform="translate(1211 117)"/>
        <circle id="prefix__Ellipse_1-2" cx="5" cy="5" r="5" class="prefix__cls-2" data-name="Ellipse 1" transform="translate(1235 117)"/>
        <circle id="prefix__Ellipse_1-3" cx="5" cy="5" r="5" class="prefix__cls-2" data-name="Ellipse 1" transform="translate(1258 117)"/>
        <circle id="prefix__Ellipse_1-4" cx="5" cy="5" r="5" class="prefix__cls-2" data-name="Ellipse 1" transform="translate(1282 117)"/>
        <circle id="prefix__Ellipse_1-5" cx="5" cy="5" r="5" class="prefix__cls-2" data-name="Ellipse 1" transform="translate(1305 117)"/>
        <circle id="prefix__Ellipse_1-6" cx="5" cy="5" r="5" class="prefix__cls-2" data-name="Ellipse 1" transform="translate(1329 117)"/>
        <circle id="prefix__Ellipse_1-7" cx="5" cy="5" r="5" class="prefix__cls-2" data-name="Ellipse 1" transform="translate(1352 117)"/>
        <circle id="prefix__Ellipse_1-8" cx="5" cy="5" r="5" class="prefix__cls-2" data-name="Ellipse 1" transform="translate(1376 117)"/>
        <circle id="prefix__Ellipse_1-9" cx="5" cy="5" r="5" class="prefix__cls-2" data-name="Ellipse 1" transform="translate(1211 141)"/>
        <circle id="prefix__Ellipse_1-10" cx="5" cy="5" r="5" class="prefix__cls-2" data-name="Ellipse 1" transform="translate(1235 141)"/>
        <circle id="prefix__Ellipse_1-11" cx="5" cy="5" r="5" class="prefix__cls-2" data-name="Ellipse 1" transform="translate(1258 141)"/>
        <circle id="prefix__Ellipse_1-12" cx="5" cy="5" r="5" class="prefix__cls-2" data-name="Ellipse 1" transform="translate(1282 141)"/>
        <circle id="prefix__Ellipse_1-13" cx="5" cy="5" r="5" class="prefix__cls-2" data-name="Ellipse 1" transform="translate(1305 141)"/>
        <circle id="prefix__Ellipse_1-14" cx="5" cy="5" r="5" class="prefix__cls-2" data-name="Ellipse 1" transform="translate(1329 141)"/>
        <circle id="prefix__Ellipse_1-15" cx="5" cy="5" r="5" class="prefix__cls-2" data-name="Ellipse 1" transform="translate(1352 141)"/>
        <circle id="prefix__Ellipse_1-16" cx="5" cy="5" r="5" class="prefix__cls-2" data-name="Ellipse 1" transform="translate(1376 141)"/>
        <circle id="prefix__Ellipse_1-17" cx="5" cy="5" r="5" class="prefix__cls-2" data-name="Ellipse 1" transform="translate(1211 164)"/>
        <circle id="prefix__Ellipse_1-18" cx="5" cy="5" r="5" class="prefix__cls-2" data-name="Ellipse 1" transform="translate(1235 164)"/>
        <circle id="prefix__Ellipse_1-19" cx="5" cy="5" r="5" class="prefix__cls-2" data-name="Ellipse 1" transform="translate(1258 164)"/>
        <circle id="prefix__Ellipse_1-20" cx="5" cy="5" r="5" class="prefix__cls-2" data-name="Ellipse 1" transform="translate(1282 164)"/>
        <circle id="prefix__Ellipse_1-21" cx="5" cy="5" r="5" class="prefix__cls-2" data-name="Ellipse 1" transform="translate(1305 164)"/>
        <circle id="prefix__Ellipse_1-22" cx="5" cy="5" r="5" class="prefix__cls-2" data-name="Ellipse 1" transform="translate(1329 164)"/>
        <circle id="prefix__Ellipse_1-23" cx="5" cy="5" r="5" class="prefix__cls-2" data-name="Ellipse 1" transform="translate(1352 164)"/>
        <circle id="prefix__Ellipse_1-24" cx="5" cy="5" r="5" class="prefix__cls-2" data-name="Ellipse 1" transform="translate(1376 164)"/>
        <circle id="prefix__Ellipse_1-25" cx="5" cy="5" r="5" class="prefix__cls-2" data-name="Ellipse 1" transform="translate(1211 188)"/>
        <circle id="prefix__Ellipse_1-26" cx="5" cy="5" r="5" class="prefix__cls-2" data-name="Ellipse 1" transform="translate(1235 188)"/>
        <circle id="prefix__Ellipse_1-27" cx="5" cy="5" r="5" class="prefix__cls-2" data-name="Ellipse 1" transform="translate(1258 188)"/>
        <circle id="prefix__Ellipse_1-28" cx="5" cy="5" r="5" class="prefix__cls-2" data-name="Ellipse 1" transform="translate(1282 188)"/>
        <circle id="prefix__Ellipse_1-29" cx="5" cy="5" r="5" class="prefix__cls-2" data-name="Ellipse 1" transform="translate(1305 188)"/>
        <circle id="prefix__Ellipse_1-30" cx="5" cy="5" r="5" class="prefix__cls-2" data-name="Ellipse 1" transform="translate(1329 188)"/>
        <circle id="prefix__Ellipse_1-31" cx="5" cy="5" r="5" class="prefix__cls-2" data-name="Ellipse 1" transform="translate(1352 188)"/>
        <circle id="prefix__Ellipse_1-32" cx="5" cy="5" r="5" class="prefix__cls-2" data-name="Ellipse 1" transform="translate(1376 188)"/>
        <circle id="prefix__Ellipse_1-33" cx="5" cy="5" r="5" class="prefix__cls-2" data-name="Ellipse 1" transform="translate(1211 211)"/>
        <circle id="prefix__Ellipse_1-34" cx="5" cy="5" r="5" class="prefix__cls-2" data-name="Ellipse 1" transform="translate(1235 211)"/>
        <circle id="prefix__Ellipse_1-35" cx="5" cy="5" r="5" class="prefix__cls-2" data-name="Ellipse 1" transform="translate(1258 211)"/>
        <circle id="prefix__Ellipse_1-36" cx="5" cy="5" r="5" class="prefix__cls-2" data-name="Ellipse 1" transform="translate(1282 211)"/>
        <circle id="prefix__Ellipse_1-37" cx="5" cy="5" r="5" class="prefix__cls-2" data-name="Ellipse 1" transform="translate(1305 211)"/>
        <circle id="prefix__Ellipse_1-38" cx="5" cy="5" r="5" class="prefix__cls-2" data-name="Ellipse 1" transform="translate(1329 211)"/>
        <circle id="prefix__Ellipse_1-39" cx="5" cy="5" r="5" class="prefix__cls-2" data-name="Ellipse 1" transform="translate(1352 211)"/>
        <circle id="prefix__Ellipse_1-40" cx="5" cy="5" r="5" class="prefix__cls-2" data-name="Ellipse 1" transform="translate(1376 211)"/>
        <circle id="prefix__Ellipse_1-41" cx="5" cy="5" r="5" class="prefix__cls-2" data-name="Ellipse 1" transform="translate(1211 235)"/>
        <circle id="prefix__Ellipse_1-42" cx="5" cy="5" r="5" class="prefix__cls-2" data-name="Ellipse 1" transform="translate(1235 235)"/>
        <circle id="prefix__Ellipse_1-43" cx="5" cy="5" r="5" class="prefix__cls-2" data-name="Ellipse 1" transform="translate(1258 235)"/>
        <circle id="prefix__Ellipse_1-44" cx="5" cy="5" r="5" class="prefix__cls-2" data-name="Ellipse 1" transform="translate(1282 235)"/>
        <circle id="prefix__Ellipse_1-45" cx="5" cy="5" r="5" class="prefix__cls-2" data-name="Ellipse 1" transform="translate(1305 235)"/>
        <circle id="prefix__Ellipse_1-46" cx="5" cy="5" r="5" class="prefix__cls-2" data-name="Ellipse 1" transform="translate(1329 235)"/>
        <circle id="prefix__Ellipse_1-47" cx="5" cy="5" r="5" class="prefix__cls-2" data-name="Ellipse 1" transform="translate(1352 235)"/>
        <circle id="prefix__Ellipse_1-48" cx="5" cy="5" r="5" class="prefix__cls-2" data-name="Ellipse 1" transform="translate(1376 235)"/>
        <circle id="prefix__Ellipse_1-49" cx="5" cy="5" r="5" class="prefix__cls-2" data-name="Ellipse 1" transform="translate(1211 258)"/>
        <circle id="prefix__Ellipse_1-50" cx="5" cy="5" r="5" class="prefix__cls-2" data-name="Ellipse 1" transform="translate(1235 258)"/>
        <circle id="prefix__Ellipse_1-51" cx="5" cy="5" r="5" class="prefix__cls-2" data-name="Ellipse 1" transform="translate(1258 258)"/>
        <circle id="prefix__Ellipse_1-52" cx="5" cy="5" r="5" class="prefix__cls-2" data-name="Ellipse 1" transform="translate(1282 258)"/>
        <circle id="prefix__Ellipse_1-53" cx="5" cy="5" r="5" class="prefix__cls-2" data-name="Ellipse 1" transform="translate(1305 258)"/>
        <circle id="prefix__Ellipse_1-54" cx="5" cy="5" r="5" class="prefix__cls-2" data-name="Ellipse 1" transform="translate(1329 258)"/>
        <circle id="prefix__Ellipse_1-55" cx="5" cy="5" r="5" class="prefix__cls-2" data-name="Ellipse 1" transform="translate(1352 258)"/>
        <circle id="prefix__Ellipse_1-56" cx="5" cy="5" r="5" class="prefix__cls-2" data-name="Ellipse 1" transform="translate(1376 258)"/>
        <circle id="prefix__Ellipse_1-57" cx="5" cy="5" r="5" class="prefix__cls-2" data-name="Ellipse 1" transform="translate(1211 282)"/>
        <circle id="prefix__Ellipse_1-58" cx="5" cy="5" r="5" class="prefix__cls-2" data-name="Ellipse 1" transform="translate(1235 282)"/>
        <circle id="prefix__Ellipse_1-59" cx="5" cy="5" r="5" class="prefix__cls-2" data-name="Ellipse 1" transform="translate(1258 282)"/>
        <circle id="prefix__Ellipse_1-60" cx="5" cy="5" r="5" class="prefix__cls-2" data-name="Ellipse 1" transform="translate(1282 282)"/>
        <circle id="prefix__Ellipse_1-61" cx="5" cy="5" r="5" class="prefix__cls-2" data-name="Ellipse 1" transform="translate(1305 282)"/>
        <circle id="prefix__Ellipse_1-62" cx="5" cy="5" r="5" class="prefix__cls-2" data-name="Ellipse 1" transform="translate(1329 282)"/>
        <circle id="prefix__Ellipse_1-63" cx="5" cy="5" r="5" class="prefix__cls-2" data-name="Ellipse 1" transform="translate(1352 282)"/>
        <circle id="prefix__Ellipse_1-64" cx="5" cy="5" r="5" class="prefix__cls-2" data-name="Ellipse 1" transform="translate(1376 282)"/>
    </g>
</svg>
