<svg xmlns="http://www.w3.org/2000/svg" width="80" height="80" viewBox="0 0 80 80">
    <defs>
        <clipPath id="prefix__clip-path">
            <path id="prefix__Rectangle_138" d="M0 0H80V80H0z" data-name="Rectangle 138" transform="translate(256 2432)" style="fill:#737373"/>
        </clipPath>
        <style>
            .prefix__cls-3{fill:#5fb709}
        </style>
    </defs>
    <g id="prefix__Mask_Group_36" data-name="Mask Group 36" transform="translate(-256 -2432)">
        <g id="prefix__earnings_1_" data-name="earnings (1)" transform="translate(256 2432)">
            <path id="prefix__Path_1514" d="M68.884 49.208l-10.2 7.534a11.668 11.668 0 0 1-3.226 1.616A7.028 7.028 0 0 0 51.03 49.4l-20.361-6.741C24.541 40.616 16.3 41.5 10.794 46.4h-8.45A2.344 2.344 0 0 0 0 48.749v23.437a2.344 2.344 0 0 0 2.344 2.344h9.375a2.344 2.344 0 0 0 2.344-2.344v-1.751l18.383 4.177a45.363 45.363 0 0 0 9.967 1.17h.434a43.462 43.462 0 0 0 24.846-8.193l9.365-6.936a7.031 7.031 0 1 0-8.173-11.443zM9.375 69.842H4.687v-18.75h4.688zm64.958-13.005l-9.365 6.936a38.8 38.8 0 0 1-22.176 7.32 40.335 40.335 0 0 1-9.3-1.051l-19.43-4.414V49.772c5.05-4.383 12.022-3.7 15.129-2.663l20.362 6.737a2.344 2.344 0 0 1-1.482 4.447h-.007L33.7 53.554a2.344 2.344 0 0 0-1.468 4.452l14.452 4.764a16.455 16.455 0 0 0 14.724-2.214l10.2-7.533a2.344 2.344 0 1 1 2.724 3.814z" data-name="Path 1514"/>
            <path id="prefix__Path_1515" d="M63.424 24.2a14.067 14.067 0 0 0-4.091-1.195 11.138 11.138 0 0 1-2.739-.721c-.312-.167-.312-.21-.312-.49 0-.166.27-.469.787-.728a4.233 4.233 0 0 1 4.023.117 2.344 2.344 0 1 0 2.812-3.75A7.451 7.451 0 0 0 61.25 16.2v-.574a2.344 2.344 0 1 0-4.687 0v.644a8.819 8.819 0 0 0-1.588.607A5.533 5.533 0 0 0 51.6 21.8a4.988 4.988 0 0 0 2.792 4.626 14.064 14.064 0 0 0 4.091 1.195 11.136 11.136 0 0 1 2.739.721c.312.166.312.21.312.49 0 .161-.277.47-.791.727a4.229 4.229 0 0 1-4.019-.116 2.344 2.344 0 1 0-2.812 3.75 7.449 7.449 0 0 0 2.656 1.237V35a2.344 2.344 0 1 0 4.687 0v-.648a8.811 8.811 0 0 0 1.584-.6 5.535 5.535 0 0 0 3.382-4.92 4.988 4.988 0 0 0-2.797-4.632z" class="prefix__cls-3" data-name="Path 1515"/>
            <path id="prefix__Path_1516" d="M58.906 46.4a21.094 21.094 0 1 0-21.094-21.089A21.118 21.118 0 0 0 58.906 46.4zm0-37.5A16.406 16.406 0 1 1 42.5 25.311 16.425 16.425 0 0 1 58.906 8.9z" class="prefix__cls-3" data-name="Path 1516"/>
        </g>
    </g>
</svg>
