<svg xmlns="http://www.w3.org/2000/svg" width="80" height="80" viewBox="0 0 80 80">
    <defs>
        <clipPath id="prefix__clip-path">
            <path id="prefix__Rectangle_138" d="M0 0H80V80H0z" data-name="Rectangle 138" transform="translate(256 2432)" style="fill:#737373"/>
        </clipPath>
        <style>
            .prefix__cls-3{fill:#5fb709}
        </style>
    </defs>
    <g id="prefix__Mask_Group_27" data-name="Mask Group 27" transform="translate(-256 -2432)">
        <g id="prefix__Analytics" transform="translate(253.078 2429.066)">
            <path id="prefix__Path_1483" d="M76.466 59.11H9.458a5.707 5.707 0 0 1-.654-.042c.226.034.444.059.671.092a4.218 4.218 0 0 1-.964-.268l.6.252c-.218-.1-.419-.218-.62-.335-.453-.26.428.394.117.1-.075-.075-.159-.143-.235-.218s-.143-.159-.218-.235c-.293-.319.344.511.134.168a5.164 5.164 0 0 1-.361-.671l.252.6a4.218 4.218 0 0 1-.268-.964c.034.226.059.444.092.671a13.446 13.446 0 0 1-.042-1.643V18.714c0-1.752-.017-3.5 0-5.257a4.892 4.892 0 0 1 .042-.612c-.034.226-.059.444-.092.671a4.218 4.218 0 0 1 .268-.964l-.252.6c.1-.218.218-.419.335-.62.26-.453-.394.428-.1.117.075-.075.143-.159.218-.235s.159-.143.235-.218c.319-.293-.511.344-.168.134a5.164 5.164 0 0 1 .671-.361l-.6.252a4.218 4.218 0 0 1 .964-.268c-.226.034-.444.059-.671.092a18.275 18.275 0 0 1 2.247-.042h65.314a5.707 5.707 0 0 1 .654.042c-.226-.034-.444-.059-.671-.092a4.218 4.218 0 0 1 .964.268l-.6-.252c.218.1.419.218.62.335.453.26-.428-.394-.117-.1.075.075.159.143.235.218s.143.159.218.235c.293.319-.344-.511-.134-.168a5.165 5.165 0 0 1 .361.671l-.252-.6a4.219 4.219 0 0 1 .268.964c-.034-.226-.059-.444-.092-.671a13.446 13.446 0 0 1 .042 1.643V52.4c0 1.752.017 3.5 0 5.257a4.892 4.892 0 0 1-.042.612c.034-.226.059-.444.092-.671a4.218 4.218 0 0 1-.268.964l.252-.6c-.1.218-.218.419-.335.62-.26.453.394-.428.1-.117-.075.075-.143.159-.218.235s-.159.143-.235.218c-.319.293.511-.344.168-.134a5.165 5.165 0 0 1-.671.361l.6-.252a4.218 4.218 0 0 1-.964.268c.226-.034.444-.059.671-.092a3.9 3.9 0 0 1-.553.042 2.515 2.515 0 0 0 0 5.031 6.555 6.555 0 0 0 6.221-4.72 7.6 7.6 0 0 0 .235-2.088V13.566a6.417 6.417 0 0 0-1.082-3.714 6.63 6.63 0 0 0-5.4-2.893c-.587-.008-1.174 0-1.761 0H9.726c-.193 0-.377-.008-.57.008A6.527 6.527 0 0 0 3.111 11.9a15.315 15.315 0 0 0-.184 3.278V57.55a6.729 6.729 0 0 0 1.533 4.293 6.428 6.428 0 0 0 4.955 2.3h67.042a2.515 2.515 0 0 0 .008-5.031z" data-name="Path 1483"/>
            <path id="prefix__Path_1484" d="M45.443 76.382V61.617a2.515 2.515 0 1 0-5.031 0v14.765a2.515 2.515 0 0 0 5.031 0z" data-name="Path 1484"/>
            <path id="prefix__Path_1485" d="M23.225 78.9h34.569c1.593 0 3.186.034 4.779 0h.067a2.515 2.515 0 0 0 0-5.031H28.071c-1.593 0-3.186-.034-4.779 0h-.067a2.515 2.515 0 1 0 0 5.031zm7.823-46.215c-1.266 1.132-2.532 2.272-3.8 3.4q-3.006 2.7-6.02 5.4c-.461.419-.931.83-1.392 1.249a2.53 2.53 0 0 0 0 3.555 2.57 2.57 0 0 0 3.555 0c1.266-1.132 2.532-2.272 3.8-3.4q3.006-2.7 6.02-5.4c.461-.419.931-.83 1.392-1.249a2.53 2.53 0 0 0 0-3.555 2.57 2.57 0 0 0-3.555 0zm31.659-7.647l-3.941 4.419-6.288 7.043-1.442 1.618a2.514 2.514 0 0 0 3.555 3.555l3.941-4.419 6.288-7.043 1.442-1.618a2.514 2.514 0 0 0-3.555-3.555z" data-name="Path 1485"/>
            <path id="prefix__Path_1486" d="M49.468 38.4q-4.6-2.855-9.206-5.7c-.436-.268-.872-.545-1.308-.813a2.514 2.514 0 1 0-2.532 4.343q4.6 2.855 9.206 5.7c.436.268.872.545 1.308.813a2.531 2.531 0 0 0 3.438-.906 2.574 2.574 0 0 0-.906-3.438zm-29.6 8.133a4.112 4.112 0 0 1-.034.453c.034-.226.059-.444.092-.671a3.791 3.791 0 0 1-.21.746l.252-.6a4.237 4.237 0 0 1-.235.428c-.226.4.143-.226.168-.2a1.924 1.924 0 0 1-.184.2c-.05.05-.109.092-.159.151-.193.2.537-.361.21-.168a5.267 5.267 0 0 1-.478.26l.6-.252a3.292 3.292 0 0 1-.746.21c.226-.034.444-.059.671-.092a3.336 3.336 0 0 1-.914 0c.226.034.444.059.671.092a3.791 3.791 0 0 1-.746-.21l.6.252a4.237 4.237 0 0 1-.428-.235c-.4-.226.226.143.2.168a1.924 1.924 0 0 1-.2-.184c-.05-.05-.092-.109-.151-.159-.2-.193.361.537.168.21a5.269 5.269 0 0 1-.26-.478l.252.6a3.292 3.292 0 0 1-.21-.746c.034.226.059.444.092.671a3.577 3.577 0 0 1-.008-.847c-.034.226-.059.444-.092.671a3.3 3.3 0 0 1 .218-.8l-.252.6a3.224 3.224 0 0 1 .245-.439c.252-.394-.168.184-.159.193-.008-.025.176-.184.193-.2.05-.05.109-.1.168-.151.21-.193-.528.361-.193.159a4.733 4.733 0 0 1 .5-.26l-.6.252a3.554 3.554 0 0 1 .78-.2c-.226.034-.444.059-.671.092a3.251 3.251 0 0 1 .755.008c-.226-.034-.444-.059-.671-.092a3.674 3.674 0 0 1 .738.193l-.6-.252a4.426 4.426 0 0 1 .444.226c.034.017.176.143.21.143-.075.017-.511-.436-.176-.109.059.059.109.126.168.184.193.193-.285-.444-.168-.21.084.168.193.327.268.5l-.252-.6a3.851 3.851 0 0 1 .2.755c-.034-.226-.059-.444-.092-.671a2.326 2.326 0 0 1 .034.411 2.515 2.515 0 0 0 5.031 0 5.534 5.534 0 0 0-10.246-2.9 5.521 5.521 0 0 0 .151 6.02 5.525 5.525 0 0 0 10.086-3.127 2.539 2.539 0 0 0-2.515-2.515 2.573 2.573 0 0 0-2.512 2.52z" class="prefix__cls-3" data-name="Path 1486"/>
            <path id="prefix__Path_1487" d="M35.609 32.473a3.672 3.672 0 0 1-.034.428c.034-.226.059-.444.092-.671a3.32 3.32 0 0 1-.226.8l.252-.6c-.075.159-.168.31-.252.461-.151.21-.092.134.176-.218-.05.059-.109.117-.168.176s-.117.109-.176.159c.352-.26.428-.319.218-.176-.143.084-.277.159-.428.235l.6-.252a3.288 3.288 0 0 1-.838.235c.226-.034.444-.059.671-.092a4.126 4.126 0 0 1-.788 0c.226.034.444.059.671.092a4.014 4.014 0 0 1-.755-.2l.6.252a4.628 4.628 0 0 1-.453-.235q-.314-.214.2.176a1.751 1.751 0 0 1-.184-.168c-.059-.059-.117-.117-.176-.184.252.344.3.4.151.193a5.05 5.05 0 0 1-.252-.47l.252.6a3.591 3.591 0 0 1-.218-.78c.034.226.059.444.092.671a3.442 3.442 0 0 1 .008-.88c-.034.226-.059.444-.092.671a3.79 3.79 0 0 1 .21-.746l-.252.6a4.237 4.237 0 0 1 .235-.428c.226-.4-.143.226-.168.2a1.923 1.923 0 0 1 .184-.2c.05-.05.109-.092.159-.151.193-.2-.537.361-.21.168a5.269 5.269 0 0 1 .478-.26l-.6.252a3.292 3.292 0 0 1 .746-.21c-.226.034-.444.059-.671.092a3.336 3.336 0 0 1 .914 0c-.226-.034-.444-.059-.671-.092a3.791 3.791 0 0 1 .746.21l-.6-.252a4.237 4.237 0 0 1 .428.235c.4.226-.226-.143-.2-.168a1.924 1.924 0 0 1 .2.184c.05.05.092.109.151.159.2.193-.361-.537-.168-.21a5.268 5.268 0 0 1 .26.478l-.252-.6a3.292 3.292 0 0 1 .21.746c-.034-.226-.059-.444-.092-.671 0 .143.008.293.017.444a2.515 2.515 0 0 0 5.031 0 5.566 5.566 0 0 0-3.06-4.938 5.64 5.64 0 0 0-6.221.88 5.525 5.525 0 0 0 4.075 9.575 5.639 5.639 0 0 0 3.622-1.635 5.7 5.7 0 0 0 1.593-3.882 2.539 2.539 0 0 0-2.515-2.515 2.569 2.569 0 0 0-2.522 2.512zm15.679 9.659a4.111 4.111 0 0 1-.034.453c.034-.226.059-.444.092-.671a3.791 3.791 0 0 1-.21.746l.252-.6a4.238 4.238 0 0 1-.235.428c-.226.4.143-.226.168-.2a1.924 1.924 0 0 1-.184.2c-.05.05-.109.092-.159.151-.193.2.537-.361.21-.168a5.268 5.268 0 0 1-.478.26l.6-.252a3.292 3.292 0 0 1-.746.21c.226-.034.444-.059.671-.092a3.336 3.336 0 0 1-.914 0c.226.034.444.059.671.092a3.791 3.791 0 0 1-.746-.21l.6.252a4.237 4.237 0 0 1-.428-.235c-.4-.226.226.143.2.168a1.924 1.924 0 0 1-.2-.184c-.05-.05-.092-.109-.151-.159-.2-.193.361.537.168.21a5.27 5.27 0 0 1-.26-.478l.252.6a3.292 3.292 0 0 1-.21-.746c.034.226.059.444.092.671a3.434 3.434 0 0 1-.008-.88c-.034.226-.059.444-.092.671a3.591 3.591 0 0 1 .218-.78l-.252.6c.075-.159.159-.3.243-.453.176-.31-.184.226-.184.226 0-.05.168-.184.2-.218.059-.059.117-.1.176-.159.193-.184-.461.3-.226.184.159-.084.3-.176.47-.252l-.6.252a3.432 3.432 0 0 1 .813-.218c-.226.034-.444.059-.671.092a3.465 3.465 0 0 1 .78.008c-.226-.034-.444-.059-.671-.092a3.559 3.559 0 0 1 .763.21l-.6-.252a3.374 3.374 0 0 1 .453.243c.3.168-.168-.159-.2-.168.075.017.176.159.226.21.067.067.26.31.008-.025s-.067-.084-.017-.008a3.983 3.983 0 0 1 .26.495l-.252-.6a3.674 3.674 0 0 1 .193.738c-.034-.226-.059-.444-.092-.671a3.451 3.451 0 0 1 .042.4 2.515 2.515 0 0 0 5.031 0A5.534 5.534 0 0 0 46.089 39.2a5.3 5.3 0 0 0-.822 3.27 5.876 5.876 0 0 0 1.35 3.287 5.533 5.533 0 0 0 5.618 1.71 5.627 5.627 0 0 0 4.083-5.341 2.539 2.539 0 0 0-2.518-2.518 2.575 2.575 0 0 0-2.513 2.524zm15.728-17.549a4.111 4.111 0 0 1-.034.453c.034-.226.059-.444.092-.671a3.791 3.791 0 0 1-.21.746l.252-.6a4.237 4.237 0 0 1-.235.428c-.226.4.143-.226.168-.2a1.923 1.923 0 0 1-.184.2c-.05.05-.109.092-.159.151-.193.2.537-.361.21-.168a5.267 5.267 0 0 1-.478.26l.6-.252a3.292 3.292 0 0 1-.746.21c.226-.034.444-.059.671-.092a3.309 3.309 0 0 1-.864.008c.226.034.444.059.671.092a3.559 3.559 0 0 1-.763-.21l.6.252a3.374 3.374 0 0 1-.453-.243c-.3-.176.168.159.2.168-.075-.017-.176-.159-.226-.21-.067-.067-.26-.31-.008.025s.067.084.017.008a3.982 3.982 0 0 1-.26-.495l.252.6a3.674 3.674 0 0 1-.193-.738c.034.226.059.444.092.671a3.577 3.577 0 0 1 .008-.847c-.034.226-.059.444-.092.671a3.79 3.79 0 0 1 .21-.746l-.252.6a4.237 4.237 0 0 1 .235-.428c.226-.4-.143.226-.168.2a1.924 1.924 0 0 1 .184-.2c.05-.05.109-.092.159-.151.193-.2-.537.361-.21.168a5.269 5.269 0 0 1 .478-.26l-.6.252a3.292 3.292 0 0 1 .746-.21c-.226.034-.444.059-.671.092a3.434 3.434 0 0 1 .88-.008c-.226-.034-.444-.059-.671-.092a3.112 3.112 0 0 1 .771.218l-.6-.252a4.836 4.836 0 0 1 .461.243c.084.05.319.235-.025-.025-.361-.277-.059-.034.008.034.034.034.109.159.159.168-.05-.017-.352-.52-.184-.235a4.963 4.963 0 0 1 .277.511l-.252-.6a3.25 3.25 0 0 1 .21.8c-.034-.226-.059-.444-.092-.671.008.126.017.243.017.369a2.515 2.515 0 0 0 5.031 0 5.646 5.646 0 0 0-3.845-5.259 5.491 5.491 0 0 0-5.81 1.593 5.532 5.532 0 1 0 9.667 3.672 2.52 2.52 0 0 0-5.039 0z" class="prefix__cls-3" data-name="Path 1487"/>
        </g>
    </g>
</svg>
