<svg xmlns="http://www.w3.org/2000/svg" width="43.677" height="38.729" viewBox="0 0 43.677 38.729">
    <path d="M43.258 5.451L37.628.333A1.279 1.279 0 0 0 36.767 0H6.91a1.279 1.279 0 0 0-.861.333L.419 5.451A1.278 1.278 0 0 0 0 6.4v3.564a5.386 5.386 0 0 0 2.218 4.355V37.45a1.279 1.279 0 0 0 1.28 1.28H40.18a1.279 1.279 0 0 0 1.28-1.28V14.318a5.386 5.386 0 0 0 2.218-4.355V6.4a1.278 1.278 0 0 0-.419-.947zm-6.985-2.892l2.815 2.559h-4.225l-1.69-2.559zm-6.165 0l1.681 2.547.008.012h-4.818l-.563-2.559zm2.787 5.118v2.287a2.833 2.833 0 0 1-5.665 0V7.678zM19.882 2.559H23.8l.563 2.559h-5.04zm-.875 5.118h5.664v2.287a2.832 2.832 0 1 1-5.664 0zm-7.118-2.571l1.681-2.547h3.691L16.7 5.118h-4.819zm-1.106 2.572h5.665v2.286a2.833 2.833 0 0 1-5.665 0zM7.4 2.559h3.1L8.815 5.118H4.59zm-4.845 7.4V7.678h5.669v2.286a2.832 2.832 0 1 1-5.664 0zM28.578 36.17H4.777v-1.6l7.3-7.3a1.28 1.28 0 0 0-1.809-1.809l-5.491 5.487v-10.56h17.982L11.721 31.426a1.28 1.28 0 1 0 1.809 1.809l12.848-12.847h2.2zm10.237 0h-7.678V20.388h7.678zm.085-18.341H4.777v-2.51A5.367 5.367 0 0 0 9.5 13.445a5.382 5.382 0 0 0 8.224 0 5.381 5.381 0 0 0 8.223 0 5.382 5.382 0 0 0 8.224 0 5.367 5.367 0 0 0 4.729 1.874zm-.614-5.029a2.835 2.835 0 0 1-2.832-2.832v-2.29h5.664v2.286a2.835 2.835 0 0 1-2.832 2.836zm0 0"/>
</svg>
