<svg xmlns="http://www.w3.org/2000/svg" width="80" height="80" viewBox="0 0 80 80">
    <defs>
        <clipPath id="prefix__clip-path">
            <path id="prefix__Rectangle_138" d="M0 0H80V80H0z" data-name="Rectangle 138" transform="translate(256 2432)" style="fill:#737373"/>
        </clipPath>
        <style>
            .prefix__cls-3{fill:#5fb709}
        </style>
    </defs>
    <g id="prefix__Mask_Group_26" data-name="Mask Group 26" transform="translate(-256 -2432)">
        <g id="prefix__name" transform="translate(256 2438.667)">
            <path id="prefix__Path_1476" d="M70.833 66.667H9.167A9.175 9.175 0 0 1 0 57.5V15.833a9.174 9.174 0 0 1 9.167-9.166h20a2.5 2.5 0 1 1 0 5h-20A4.172 4.172 0 0 0 5 15.833V57.5a4.173 4.173 0 0 0 4.167 4.167h61.666A4.173 4.173 0 0 0 75 57.5V15.833a4.172 4.172 0 0 0-4.167-4.166h-20a2.5 2.5 0 0 1 0-5h20A9.174 9.174 0 0 1 80 15.833V57.5a9.175 9.175 0 0 1-9.167 9.167zm0 0" data-name="Path 1476"/>
            <path id="prefix__Path_1477" d="M47.5 18.333h-15a5.84 5.84 0 0 1-5.833-5.833V5.833A5.84 5.84 0 0 1 32.5 0h15a5.84 5.84 0 0 1 5.833 5.833V12.5a5.84 5.84 0 0 1-5.833 5.833zM32.5 5a.833.833 0 0 0-.833.833V12.5a.833.833 0 0 0 .833.833h15a.833.833 0 0 0 .833-.833V5.833A.833.833 0 0 0 47.5 5zm0 0" data-name="Path 1477"/>
            <path id="prefix__Path_1478" d="M25 40a8.333 8.333 0 1 1 8.333-8.333A8.345 8.345 0 0 1 25 40zm0-11.667a3.333 3.333 0 1 0 3.333 3.334A3.339 3.339 0 0 0 25 28.333zm0 0" class="prefix__cls-3" data-name="Path 1478"/>
            <path id="prefix__Path_1479" d="M37.5 56.667a2.5 2.5 0 0 1-2.5-2.5V52.5a4.173 4.173 0 0 0-4.167-4.167H19.167A4.173 4.173 0 0 0 15 52.5v1.667a2.5 2.5 0 1 1-5 0V52.5a9.175 9.175 0 0 1 9.167-9.167h11.666A9.175 9.175 0 0 1 40 52.5v1.667a2.5 2.5 0 0 1-2.5 2.5zm0 0" class="prefix__cls-3" data-name="Path 1479"/>
            <path id="prefix__Path_1480" d="M67.5 30H49.167a2.5 2.5 0 1 1 0-5H67.5a2.5 2.5 0 0 1 0 5zm0 0" data-name="Path 1480"/>
            <path id="prefix__Path_1481" d="M67.5 43.333H49.167a2.5 2.5 0 0 1 0-5H67.5a2.5 2.5 0 0 1 0 5zm0 0" data-name="Path 1481"/>
            <path id="prefix__Path_1482" d="M67.5 56.667H49.167a2.5 2.5 0 0 1 0-5H67.5a2.5 2.5 0 0 1 0 5zm0 0" data-name="Path 1482"/>
        </g>
    </g>
</svg>
