<svg xmlns="http://www.w3.org/2000/svg" width="80" height="80" viewBox="0 0 80 80">
    <defs>
        <clipPath id="prefix__clip-path">
            <path id="prefix__Rectangle_138" d="M0 0H80V80H0z" data-name="Rectangle 138" transform="translate(256 2432)" style="fill:#737373"/>
        </clipPath>
        <style>
            .prefix__cls-3{fill:#5fb709}
        </style>
    </defs>
    <g id="prefix__Mask_Group_29" data-name="Mask Group 29" transform="translate(-256 -2432)">
        <g id="prefix__settings" transform="translate(257.632 2432)">
            <path id="prefix__Path_1492" d="M43.261 80h-9.787a9.03 9.03 0 0 1-9.02-9.02v-4.164c-.82-.42-1.614-.876-2.374-1.363l-3.59 2.08a9.01 9.01 0 0 1-12.327-3.3l-4.89-8.47a9.055 9.055 0 0 1 3.294-12.316l3.6-2.087c-.013-.457-.02-.906-.02-1.36s.007-.9.027-1.357l-3.6-2.09a9.048 9.048 0 0 1-3.3-12.307l4.9-8.483a8.861 8.861 0 0 1 5.453-4.2 8.964 8.964 0 0 1 6.866.9l3.59 2.084a26.894 26.894 0 0 1 2.37-1.367V9.02A9.03 9.03 0 0 1 33.474 0h9.787a9.03 9.03 0 0 1 9.02 9.02v4.164c.82.42 1.613.876 2.373 1.363l3.59-2.08a9.009 9.009 0 0 1 12.327 3.3l4.89 8.47a9.055 9.055 0 0 1-3.293 12.317l-3.6 2.087c.02.453.026.9.026 1.357s-.007.9-.026 1.356l3.6 2.09a9.048 9.048 0 0 1 3.3 12.307.011.011 0 0 1 0 .007l-4.893 8.477a9.015 9.015 0 0 1-12.324 3.3l-3.59-2.083c-.76.486-1.553.943-2.373 1.364v4.163A9.032 9.032 0 0 1 43.261 80zm-21.07-20a2.485 2.485 0 0 1 1.476.486 22.764 22.764 0 0 0 4.293 2.463 2.509 2.509 0 0 1 1.49 2.29v5.743A4.024 4.024 0 0 0 33.471 75h9.786a4.024 4.024 0 0 0 4.02-4.02v-5.74a2.512 2.512 0 0 1 1.49-2.29 22.783 22.783 0 0 0 4.293-2.463 2.489 2.489 0 0 1 2.73-.146l4.953 2.87a4 4 0 0 0 3.06.4 3.95 3.95 0 0 0 2.423-1.863l4.9-8.483a4.035 4.035 0 0 0-1.47-5.486L64.7 44.9a2.5 2.5 0 0 1-1.234-2.43 26.227 26.227 0 0 0 0-4.94A2.5 2.5 0 0 1 64.7 35.1l4.953-2.87a4.041 4.041 0 0 0 1.467-5.5l-4.886-8.47a4.012 4.012 0 0 0-5.486-1.47l-4.954 2.87a2.494 2.494 0 0 1-2.73-.146 22.764 22.764 0 0 0-4.293-2.463 2.509 2.509 0 0 1-1.49-2.29V9.02A4.025 4.025 0 0 0 43.261 5h-9.787a4.024 4.024 0 0 0-4.02 4.02v5.743a2.512 2.512 0 0 1-1.49 2.29 22.5 22.5 0 0 0-4.294 2.46 2.479 2.479 0 0 1-2.733.146l-4.953-2.87a4.015 4.015 0 0 0-3.06-.4 3.942 3.942 0 0 0-2.42 1.863l-4.9 8.48a4.04 4.04 0 0 0 1.47 5.49l4.96 2.878a2.5 2.5 0 0 1 1.234 2.43 22.571 22.571 0 0 0-.117 2.47 23.522 23.522 0 0 0 .117 2.47 2.5 2.5 0 0 1-1.234 2.43l-4.953 2.87a4.042 4.042 0 0 0-1.467 5.5l4.89 8.47a4.012 4.012 0 0 0 5.486 1.47l4.954-2.867A2.42 2.42 0 0 1 22.191 60zm51.1-5.486zm0 0" data-name="Path 1492"/>
            <path id="prefix__Path_1493" d="M38.367 60a20 20 0 1 1 20-20 20.02 20.02 0 0 1-20 20zm0-35a15 15 0 1 0 15 15 15.018 15.018 0 0 0-15-15zm0 0" class="prefix__cls-3" data-name="Path 1493"/>
            <path id="prefix__Path_1494" d="M44.2 48.333a2.48 2.48 0 0 1-1.767-.733L36.6 41.767A2.5 2.5 0 0 1 35.867 40v-9.167a2.5 2.5 0 0 1 5 0v8.131l5.1 5.1a2.5 2.5 0 0 1-1.766 4.27zm0 0" class="prefix__cls-3" data-name="Path 1494"/>
        </g>
    </g>
</svg>
