<svg xmlns="http://www.w3.org/2000/svg" width="80" height="80" viewBox="0 0 80 80">
    <defs>
        <clipPath id="prefix__clip-path">
            <path id="prefix__Rectangle_138" d="M0 0H80V80H0z" data-name="Rectangle 138" transform="translate(256 2432)" style="fill:#737373"/>
        </clipPath>
        <style>
            .prefix__cls-4{stroke-width:1.8px;stroke:#000}
        </style>
    </defs>
    <g id="prefix__Mask_Group_28" data-name="Mask Group 28" transform="translate(-256 -2432)">
        <g id="prefix__adding" transform="translate(258.851 2434.924)">
            <path id="prefix__Path_1488" d="M75.216 57.885H67.8v-7.416A2.472 2.472 0 0 0 65.329 48h-4.944a2.472 2.472 0 0 0-2.472 2.472v7.416H50.5a2.472 2.472 0 0 0-2.472 2.472v4.94a2.472 2.472 0 0 0 2.472 2.473h7.416v7.416a2.472 2.472 0 0 0 2.472 2.472h4.944a2.472 2.472 0 0 0 2.468-2.473v-7.415h7.416a2.472 2.472 0 0 0 2.472-2.473v-4.943a2.472 2.472 0 0 0-2.472-2.472zm0 7.416H67.8a2.472 2.472 0 0 0-2.472 2.472v7.416h-4.943v-7.416a2.472 2.472 0 0 0-2.472-2.473H50.5v-4.943h7.416a2.472 2.472 0 0 0 2.472-2.472v-7.416h4.944v7.416a2.472 2.472 0 0 0 2.468 2.472h7.416zm0 0" data-name="Path 1488" transform="translate(-3.505 -3.509)" style="stroke-width:1.8px;fill:#5fb709;stroke:#5fb709"/>
            <path id="prefix__Path_1489" d="M16.878 40.537a26.855 26.855 0 0 0-4.378 3.551 1.236 1.236 0 1 0 1.748 1.743 24.409 24.409 0 0 1 3.979-3.213 1.236 1.236 0 1 0-1.345-2.074zm0 0" class="prefix__cls-4" data-name="Path 1489" transform="translate(-.878 -.168)"/>
            <path id="prefix__Path_1490" d="M29.948 36.541a19.1 19.1 0 0 0-6.993 1.093 1.236 1.236 0 1 0 .8 2.338 16.629 16.629 0 0 1 6.086-.961 1.237 1.237 0 1 0 .1-2.472zm0 0" class="prefix__cls-4" data-name="Path 1490" transform="translate(-1.612 .11)"/>
            <path id="prefix__Path_1491" d="M69.658 7.138c-.019-.012-.03-.031-.05-.042-.21-.114-.428-.21-.644-.3-.042-.019-.081-.041-.123-.059a8.6 8.6 0 0 0-1.022-.355h-.012a8.726 8.726 0 1 0-15.386 7.578L40.8 25.578c-.645-1.483-1.606-3.014-2.87-3.069a1.553 1.553 0 0 0-1.471.865 2.983 2.983 0 0 0-.3 1.319 5.181 5.181 0 0 1-1.859 3.721 5.711 5.711 0 0 1-4.326 1.3c-7.292-.844-15.272 2.3-21.376 8.4-9.663 9.656-11.36 23.675-3.786 31.251a16.83 16.83 0 0 0 12.164 4.757 22.316 22.316 0 0 0 2.843-.185 28.494 28.494 0 0 0 16.251-8.352c6.105-6.1 9.247-14.09 8.4-21.375a5.7 5.7 0 0 1 1.3-4.326 5.218 5.218 0 0 1 3.783-1.868c2.085-.092 2.13-1.49 2.117-1.771-.045-1.041-1.269-2.078-3.068-2.871l11.622-11.617a8.725 8.725 0 1 0 9.434-14.619zM43.88 38.29a8.184 8.184 0 0 0-1.865 6.2c.755 6.537-2.122 13.769-7.7 19.344A26.008 26.008 0 0 1 19.5 71.483c-5.181.665-9.78-.708-12.94-3.868-6.614-6.605-4.917-19.058 3.779-27.755 4.988-4.988 11.3-7.816 17.254-7.816a18.4 18.4 0 0 1 2.089.124 8.181 8.181 0 0 0 6.2-1.865 7.654 7.654 0 0 0 2.518-4.029 13.715 13.715 0 0 1 .729 1.97c.074.256.149.541.221.858l.012.047c.075.337.145.711.2 1.1.011.071.019.145.029.215.043.319.078.654.1 1 .007.115.016.229.021.345.021.433.032.879.011 1.344a1.233 1.233 0 0 0 .361.928 1.284 1.284 0 0 0 .927.361c.456-.02.89-.01 1.314.011.145 0 .287.016.429.027q.438.033.844.087c.124.016.247.028.371.047.362.057.707.123 1.02.19.11.025.21.053.317.079.213.053.424.105.607.158a13.354 13.354 0 0 1 1.977.728 7.672 7.672 0 0 0-4.01 2.521zm26-19.094a6.256 6.256 0 0 1-8.846 0 1.236 1.236 0 0 0-1.748 0l-13.3 13.3c-.081-.02-.174-.038-.259-.058l-.179-.04c-.224-.051-.456-.1-.7-.142l-.1-.018c-.247-.044-.5-.084-.772-.124l-.1-.011c-.256-.033-.514-.063-.786-.087-.059 0-.124-.006-.178-.011-.234-.017-.463-.037-.706-.044-.012-.361-.037-.709-.068-1.05a1.138 1.138 0 0 0-.014-.116c-.029-.293-.063-.578-.1-.852-.008-.058-.019-.112-.027-.169-.04-.247-.08-.494-.124-.719-.012-.062-.024-.124-.038-.182q-.065-.317-.137-.609l-.017-.078L54.173 15.7a8.65 8.65 0 0 0 3.693 1.6 1.351 1.351 0 0 0 .219.018 1.236 1.236 0 0 0 .215-2.452A6.236 6.236 0 1 1 63.826 4.3a6.188 6.188 0 0 1 1.223 1.766 8.737 8.737 0 0 0-2.523.494 1.236 1.236 0 0 0 .828 2.329 6.276 6.276 0 0 1 3.6-.158c.13.032.261.061.388.1A6.244 6.244 0 0 1 69.88 19.2zm0 0" class="prefix__cls-4" data-name="Path 1491"/>
        </g>
    </g>
</svg>
