<svg xmlns="http://www.w3.org/2000/svg" width="80" height="80" viewBox="0 0 80 80">
    <defs>
        <clipPath id="prefix__clip-path">
            <path id="prefix__Rectangle_138" d="M0 0H80V80H0z" data-name="Rectangle 138" transform="translate(256 2432)" style="fill:#5fb709;stroke:#5fb709"/>
        </clipPath>
        <style>
            .prefix__cls-3{fill:#5fb709;stroke:#5fb709;stroke-width:2px}
        </style>
    </defs>
    <g id="prefix__Mask_Group_31" data-name="Mask Group 31" transform="translate(-256 -2432)">
        <g id="prefix__tag" transform="translate(256 2432)">
            <g id="prefix__Group_3581" data-name="Group 3581">
                <g id="prefix__Group_3580" data-name="Group 3580">
                    <path id="prefix__Path_1499" d="M79.313.687a2.344 2.344 0 0 0-3.313 0l-6.828 6.826a7.048 7.048 0 0 0-1.325-.477L46.633 1.8a7.067 7.067 0 0 0-6.677 1.85l-37.9 37.832a7.04 7.04 0 0 0 0 9.944l26.518 26.518a7.04 7.04 0 0 0 9.944 0l37.837-37.9a7.067 7.067 0 0 0 1.845-6.677l-5.236-21.214a7.063 7.063 0 0 0-.477-1.325L79.314 4a2.344 2.344 0 0 0-.001-3.313zM73.657 34.5a2.356 2.356 0 0 1-.616 2.226L35.2 74.629a2.347 2.347 0 0 1-3.315 0L5.371 48.112a2.347 2.347 0 0 1 0-3.315L43.27 6.96a2.357 2.357 0 0 1 1.663-.686 2.324 2.324 0 0 1 .563.069l19.927 4.919-5.645 5.645a7.032 7.032 0 1 0 3.315 3.315l5.645-5.645zm-15.251-9.6a2.343 2.343 0 1 1 0-3.315 2.346 2.346 0 0 1 0 3.324z" data-name="Path 1499"/>
                    <g id="prefix__settings" transform="translate(18.632 29)">
                        <path id="prefix__Path_1492" d="M18.115 33.415h-4.088a3.772 3.772 0 0 1-3.767-3.767v-1.74c-.343-.175-.674-.366-.991-.569l-1.5.869a3.763 3.763 0 0 1-5.149-1.379L.578 23.292a3.782 3.782 0 0 1 1.375-5.145l1.505-.872c-.006-.191-.008-.379-.008-.568s0-.377.011-.567l-1.505-.873a3.779 3.779 0 0 1-1.377-5.14l2.045-3.543A3.7 3.7 0 0 1 4.9 4.831a3.744 3.744 0 0 1 2.868.376l1.5.87a11.233 11.233 0 0 1 .99-.571V3.767A3.772 3.772 0 0 1 14.027 0h4.088a3.772 3.772 0 0 1 3.767 3.767v1.74c.342.175.674.366.991.569l1.5-.869a3.763 3.763 0 0 1 5.149 1.378l2.043 3.538a3.782 3.782 0 0 1-1.376 5.145l-1.5.872c.008.189.011.377.011.567s0 .377-.011.566l1.5.873a3.779 3.779 0 0 1 1.377 5.14l-2.044 3.541a3.766 3.766 0 0 1-5.147 1.377l-1.5-.87c-.317.2-.649.394-.991.57v1.739a3.773 3.773 0 0 1-3.767 3.77zm-8.8-8.354a1.038 1.038 0 0 1 .617.2 9.508 9.508 0 0 0 1.793 1.029 1.048 1.048 0 0 1 .622.957v2.4a1.681 1.681 0 0 0 1.679 1.679h4.088a1.681 1.681 0 0 0 1.679-1.679v-2.4a1.049 1.049 0 0 1 .622-.957 9.516 9.516 0 0 0 1.793-1.029 1.04 1.04 0 0 1 1.14-.061l2.069 1.2a1.672 1.672 0 0 0 1.278.166 1.65 1.65 0 0 0 1.012-.778l2.045-3.543a1.685 1.685 0 0 0-.614-2.292l-2.069-1.2a1.044 1.044 0 0 1-.515-1.015 10.955 10.955 0 0 0 0-2.063 1.045 1.045 0 0 1 .515-1.015l2.069-1.2a1.688 1.688 0 0 0 .613-2.3l-2.04-3.532a1.676 1.676 0 0 0-2.292-.614l-2.069 1.2a1.042 1.042 0 0 1-1.14-.061 9.508 9.508 0 0 0-1.793-1.029 1.048 1.048 0 0 1-.622-.957v-2.4a1.681 1.681 0 0 0-1.679-1.679h-4.089a1.681 1.681 0 0 0-1.679 1.679v2.4a1.049 1.049 0 0 1-.622.957 9.4 9.4 0 0 0-1.794 1.027 1.036 1.036 0 0 1-1.142.061l-2.069-1.2a1.677 1.677 0 0 0-1.278-.166 1.647 1.647 0 0 0-1.011.778l-2.044 3.543A1.688 1.688 0 0 0 3 13.461l2.07 1.2a1.044 1.044 0 0 1 .515 1.015 9.428 9.428 0 0 0-.049 1.032 9.825 9.825 0 0 0 .049 1.032 1.045 1.045 0 0 1-.515 1.015L3 19.953a1.688 1.688 0 0 0-.613 2.3l2.043 3.538a1.676 1.676 0 0 0 2.292.614l2.069-1.2a1.011 1.011 0 0 1 .521-.142zm21.344-2.291zm0 0" class="prefix__cls-3" data-name="Path 1492"/>
                        <path id="prefix__Path_1493" d="M25.258 33.78a6.89 6.89 0 1 1 6.89-6.89 6.9 6.9 0 0 1-6.89 6.89zm0-12.058a5.168 5.168 0 1 0 5.168 5.168 5.174 5.174 0 0 0-5.168-5.167zm0 0" class="prefix__cls-3" data-name="Path 1493" transform="translate(-9.186 -10.183)"/>
                    </g>
                </g>
            </g>
        </g>
    </g>
</svg>
