<svg xmlns="http://www.w3.org/2000/svg" width="53.886" height="53.147" viewBox="0 0 53.886 53.147">
    <g>
        <path d="M30.786 41.226a1.693 1.693 0 0 0 1.677-1.684l-.014-3.452a12.5 12.5 0 0 0-3.825-8.89 24.129 24.129 0 0 0 .268-3.169C28.844 12.336 17.643.947 17.22.452a1.653 1.653 0 0 0-1.195-.5 1.811 1.811 0 0 0-1.191.488C14.345.933 3.378 12.228 3.426 23.922a15.952 15.952 0 0 0 .293 3.1A12.117 12.117 0 0 0-.1 35.953l.012 3.447A1.728 1.728 0 0 0 1.6 41.1a1.693 1.693 0 0 0 1.677-1.684l-.014-3.452a8.774 8.774 0 0 1 1.453-4.925A37.9 37.9 0 0 0 6.7 35.77a1.652 1.652 0 0 0 1.477.922l6.314.027.009 2.681a1.728 1.728 0 0 0 1.691 1.7 1.693 1.693 0 0 0 1.677-1.684l-.011-2.677 6.384.027a1.619 1.619 0 0 0 1.469-.91 28.492 28.492 0 0 0 1.945-4.641 8.939 8.939 0 0 1 1.423 4.8l.014 3.452a1.744 1.744 0 0 0 1.694 1.759zm-7.609-7.851l-5.332-.023-.011-2.677a1.728 1.728 0 0 0-1.691-1.7 1.693 1.693 0 0 0-1.677 1.684l.011 2.677-5.262-.022a26.665 26.665 0 0 1-2.057-5.854 3.077 3.077 0 0 0-.072-.353 17.638 17.638 0 0 1-.364-3.242c-.034-8.172 6.526-16.6 9.249-19.755 2.819 3.182 9.448 11.663 9.482 19.835a20.822 20.822 0 0 1-2.276 9.43z" data-name="Path 1" transform="rotate(45 15.323 37.35)"/>
        <path d="M15.587 12.848a5.953 5.953 0 0 0-5.989 5.989 6.12 6.12 0 0 0 6.039 6.039 6 6 0 0 0 5.989-5.989 6.074 6.074 0 0 0-6.039-6.039zm.036 8.741a2.683 2.683 0 0 1-2.668-2.668 2.63 2.63 0 0 1 2.646-2.647 2.683 2.683 0 0 1 2.668 2.669 2.63 2.63 0 0 1-2.646 2.646z" data-name="Path 2" transform="rotate(45 15.323 37.35)"/>
        <path d="M7.787 46.478l-.02-5.629a1.711 1.711 0 0 0-1.661-1.691 1.676 1.676 0 0 0-1.639 1.677l.018 5.629a1.711 1.711 0 0 0 1.658 1.694 1.676 1.676 0 0 0 1.644-1.68z" data-name="Path 3" transform="rotate(45 15.323 37.35)"/>
        <path d="M26.853 46.478l-.02-5.629a1.711 1.711 0 0 0-1.661-1.691 1.676 1.676 0 0 0-1.639 1.677l.018 5.629a1.711 1.711 0 0 0 1.658 1.694 1.676 1.676 0 0 0 1.644-1.68z" data-name="Path 4" transform="rotate(45 15.323 37.35)"/>
    </g>
</svg>
