<svg xmlns="http://www.w3.org/2000/svg" xmlns:xlink="http://www.w3.org/1999/xlink" width="90.107" height="84.711" viewBox="0 0 90.107 84.711">
  <defs>
    <clipPath id="clip-path">
      <path id="Path_1585" data-name="Path 1585" d="M5301.547,2829.143l26.833.079v16.55l33.727-.079v-49.4h-66.689Z" transform="translate(-5272 -2801)" fill="#5fb709"/>
    </clipPath>
  </defs>
  <g id="Group_3595" data-name="Group 3595" transform="translate(-256 -2427.289)">
    <rect id="Rectangle_138" data-name="Rectangle 138" width="80" height="80" transform="translate(256 2432)" fill="#737373" opacity="0"/>
    <g id="cash" transform="translate(256 2432)">
      <path id="Path_1584" data-name="Path 1584" d="M77.656,14.063H70.469a2.343,2.343,0,0,0-1.89.958l-4.49,6.122a1.917,1.917,0,1,1-3.08-2.283c4.279-5.882,4.773-5.908,4.773-7.141a2.348,2.348,0,0,0-2.344-2.344H54.43A29.429,29.429,0,0,1,70.44,4.687h7.216a2.344,2.344,0,0,0,0-4.687H70.44A34.291,34.291,0,0,0,46.87,9.375h-13.9a2.344,2.344,0,0,0-2.344,2.344V28.281H16.406a2.344,2.344,0,0,0-2.344,2.344v26a23.422,23.422,0,0,0-13.039,5.15,2.344,2.344,0,0,0,2.952,3.641A18.711,18.711,0,0,1,15.724,61.25h5.213a2.344,2.344,0,0,1,0,4.688H14.063a2.344,2.344,0,0,0,0,4.688h22.88a7.043,7.043,0,0,1-6.63,4.688H2.344a2.344,2.344,0,0,0,0,4.688H30.313A11.739,11.739,0,0,0,41.8,70.625H54.063a2.344,2.344,0,0,0,2.344-2.344V42.188H72.813a2.344,2.344,0,0,0,2.344-2.344V18.75h2.5a2.344,2.344,0,0,0,0-4.687Zm-21.64,15.27a2.341,2.341,0,0,0-1.954-1.051h-5.14a4.611,4.611,0,1,1,7.094,1.051Zm-20.7-15.27H58.745a18.1,18.1,0,0,0-2.252,3.3,9.306,9.306,0,0,0-12.6,10.914H35.312ZM32.969,32.969h4.688v9.375H32.969Zm18.75,32.969H27.567a7.04,7.04,0,0,0-6.63-9.375H18.75V32.969h9.531V44.688a2.344,2.344,0,0,0,2.344,2.344H40a2.344,2.344,0,0,0,2.344-2.344V32.969h9.375ZM56.406,37.5V34.548A9.268,9.268,0,0,0,62.162,26.6a6.59,6.59,0,0,0,5.707-2.686l2.6-3.545V37.5Z"/>
      <g id="Mask_Group_49" data-name="Mask Group 49" clip-path="url(#clip-path)">
        <path id="Path_1586" data-name="Path 1586" d="M77.656,14.063H70.469a2.343,2.343,0,0,0-1.89.958l-4.49,6.122a1.917,1.917,0,1,1-3.08-2.283c4.279-5.882,4.773-5.908,4.773-7.141a2.348,2.348,0,0,0-2.344-2.344H54.43A29.429,29.429,0,0,1,70.44,4.687h7.216a2.344,2.344,0,0,0,0-4.687H70.44A34.291,34.291,0,0,0,46.87,9.375h-13.9a2.344,2.344,0,0,0-2.344,2.344V28.281H16.406a2.344,2.344,0,0,0-2.344,2.344v26a23.422,23.422,0,0,0-13.039,5.15,2.344,2.344,0,0,0,2.952,3.641A18.711,18.711,0,0,1,15.724,61.25h5.213a2.344,2.344,0,0,1,0,4.688H14.063a2.344,2.344,0,0,0,0,4.688h22.88a7.043,7.043,0,0,1-6.63,4.688H2.344a2.344,2.344,0,0,0,0,4.688H30.313A11.739,11.739,0,0,0,41.8,70.625H54.063a2.344,2.344,0,0,0,2.344-2.344V42.188H72.813a2.344,2.344,0,0,0,2.344-2.344V18.75h2.5a2.344,2.344,0,0,0,0-4.687Zm-21.64,15.27a2.341,2.341,0,0,0-1.954-1.051h-5.14a4.611,4.611,0,1,1,7.094,1.051Zm-20.7-15.27H58.745a18.1,18.1,0,0,0-2.252,3.3,9.306,9.306,0,0,0-12.6,10.914H35.312ZM32.969,32.969h4.688v9.375H32.969Zm18.75,32.969H27.567a7.04,7.04,0,0,0-6.63-9.375H18.75V32.969h9.531V44.688a2.344,2.344,0,0,0,2.344,2.344H40a2.344,2.344,0,0,0,2.344-2.344V32.969h9.375ZM56.406,37.5V34.548A9.268,9.268,0,0,0,62.162,26.6a6.59,6.59,0,0,0,5.707-2.686l2.6-3.545V37.5Z" fill="#5fb709"/>
      </g>
    </g>
  </g>
</svg>
