<svg xmlns="http://www.w3.org/2000/svg" width="80.722" height="80" viewBox="0 0 80.722 80">
  <g id="Group_3592" data-name="Group 3592" transform="translate(-255.37 -2432)">
    <rect id="Rectangle_138" data-name="Rectangle 138" width="80" height="80" transform="translate(256 2432)" fill="#737373" opacity="0"/>
    <g id="Group_3591" data-name="Group 3591" transform="translate(-5524 -183)">
      <path id="Chat_2_" data-name="Chat (2)" d="M18.191,2A16.174,16.174,0,0,0,2.017,18.174,16,16,0,0,0,5.673,28.412L2.438,31.647a1.577,1.577,0,0,0,1.2,2.7H18.191A16.174,16.174,0,1,0,18.191,2Zm0,29.113H7.533l1.5-1.5a1.617,1.617,0,0,0,0-2.281,12.939,12.939,0,1,1,9.154,3.785Z" transform="translate(5778.028 2616)" fill="#5fb709" stroke="#5fb709" stroke-width="1.2"/>
      <path id="Chat_2_2" data-name="Chat (2)" d="M29.479,2A27.507,27.507,0,0,1,56.985,29.507a27.2,27.2,0,0,1-6.217,17.412l5.5,5.5a2.682,2.682,0,0,1-2.036,4.594H29.479A27.507,27.507,0,1,1,29.479,2Zm0,49.512H47.606l-2.558-2.558a2.751,2.751,0,0,1,0-3.878,22.005,22.005,0,1,0-15.569,6.437Z" transform="translate(5803.028 2634)"/>
    </g>
  </g>
</svg>
