<svg xmlns="http://www.w3.org/2000/svg" width="80" height="80" viewBox="0 0 80 80">
    <defs>
        <clipPath id="prefix__clip-path">
            <path id="prefix__Rectangle_138" d="M0 0H80V80H0z" data-name="Rectangle 138" transform="translate(256 2432)" style="fill:#737373"/>
        </clipPath>
    </defs>
    <g id="prefix__Mask_Group_48" data-name="Mask Group 48" transform="translate(-256 -2432)">
        <g id="prefix__statistics" transform="translate(256 2432)">
            <path id="prefix__Path_1582" d="M11.875 37.5a7.005 7.005 0 0 0 4.876-1.973l6.9 3.449a7.03 7.03 0 1 0 13.32-2.162l9.376-9.376a7.031 7.031 0 0 0 9.739-8.447l8.146-6.109a7.022 7.022 0 1 0-2.815-3.748l-8.147 6.109a7.029 7.029 0 0 0-10.239 8.881L33.655 33.5a7.016 7.016 0 0 0-7.906 1.285l-6.9-3.449a7.03 7.03 0 1 0-6.974 6.164zm56.25-32.812a2.344 2.344 0 1 1-2.344 2.344 2.347 2.347 0 0 1 2.344-2.344zM49.375 18.75a2.344 2.344 0 1 1-2.344 2.344 2.347 2.347 0 0 1 2.344-2.344zM30.625 37.5a2.344 2.344 0 1 1-2.344 2.344 2.347 2.347 0 0 1 2.344-2.344zm-18.75-9.375a2.344 2.344 0 1 1-2.344 2.344 2.347 2.347 0 0 1 2.344-2.344zm0 0" data-name="Path 1582" style="fill:#5fb709"/>
            <path id="prefix__Path_1583" d="M77.656 75.313h-2.5V25.781a2.344 2.344 0 0 0-2.344-2.344h-9.374a2.344 2.344 0 0 0-2.344 2.344v49.532h-4.688V39.844a2.344 2.344 0 0 0-2.343-2.344h-9.375a2.344 2.344 0 0 0-2.344 2.344v35.469h-4.688V58.594a2.344 2.344 0 0 0-2.344-2.344h-9.374a2.344 2.344 0 0 0-2.344 2.344v16.719h-4.688V49.219a2.344 2.344 0 0 0-2.344-2.344H7.188a2.344 2.344 0 0 0-2.344 2.344v26.094h-2.5a2.344 2.344 0 0 0 0 4.688h75.312a2.344 2.344 0 0 0 0-4.687zM65.781 28.125h4.688v47.188h-4.688zm-18.75 14.063h4.688v33.125h-4.688zm-18.75 18.75h4.688v14.375h-4.688zm-18.75-9.375h4.688v23.75H9.531zm0 0" data-name="Path 1583"/>
        </g>
    </g>
</svg>
