<svg xmlns="http://www.w3.org/2000/svg" width="80" height="80" viewBox="0 0 80 80">
    <defs>
        <clipPath id="prefix__clip-path">
            <path id="prefix__Rectangle_138" d="M0 0H80V80H0z" class="prefix__cls-1" data-name="Rectangle 138" transform="translate(256 2432)"/>
        </clipPath>
        <style>
            .prefix__cls-1{fill:#5fb709}
        </style>
    </defs>
    <g id="prefix__Mask_Group_42" data-name="Mask Group 42" transform="translate(-256 -2432)">
        <path id="prefix__Path_1557" d="M319.088 2452.224c-2.1 0-33.963 42.716-33.963 42.716l10.154 12.255s5.952-5.252 6.652-6.3 17.157-23.458 17.157-23.458l3.5-7 1.75-9.454-1.75-8.753z" class="prefix__cls-1" data-name="Path 1557"/>
        <g id="prefix__google-maps_1_" data-name="google-maps (1)" transform="translate(256 2432)">
            <path id="prefix__Path_1556" d="M66.864 16.626A30.224 30.224 0 0 0 56.29 4.739a30.367 30.367 0 0 0-32.581 0A30.476 30.476 0 0 0 10 32.245a29.919 29.919 0 0 0 6.021 15.892L40 80l23.984-31.863A29.917 29.917 0 0 0 70 32.245a30.252 30.252 0 0 0-3.141-15.619zm-5.42-.1l-8.068 10.721A13.7 13.7 0 0 0 40 16.406c-.33 0-.657.012-.982.036l8.113-10.778a24.669 24.669 0 0 1 14.313 10.865zM40 21.094a8.984 8.984 0 1 1-8.984 8.984A8.994 8.994 0 0 1 40 21.094zm0-16.407c.655 0 1.3.025 1.945.071L30.486 19.983l-9.292-6.994A24.823 24.823 0 0 1 40 4.687zM17.33 18.719c.336-.674.7-1.325 1.083-1.957l9.254 6.965L16.216 38.94a24.889 24.889 0 0 1 1.114-20.221zM18.574 43.6l8.05-10.694A13.7 13.7 0 0 0 40 43.75c.33 0 .657-.012.981-.035l-11.214 14.9-10.005-13.297c-.422-.561-.816-1.134-1.188-1.716zm41.665 1.716L40 72.206l-7.3-9.7 31.07-41.272a24.855 24.855 0 0 1-3.531 24.084z" data-name="Path 1556"/>
        </g>
    </g>
</svg>
