<svg xmlns="http://www.w3.org/2000/svg" width="80" height="80" viewBox="0 0 80 80">
    <defs>
        <clipPath id="prefix__clip-path">
            <path id="prefix__Rectangle_150" d="M0 0H80V80H0z" data-name="Rectangle 150" transform="translate(256 2432)" style="fill:#737373"/>
        </clipPath>
        <style>
            .prefix__cls-3{fill:#5fb709}
        </style>
    </defs>
    <g id="prefix__Mask_Group_47" data-name="Mask Group 47" transform="translate(-256 -2432)">
        <g id="prefix__timeline" transform="translate(256 2432)">
            <g id="prefix__Group_3594" data-name="Group 3594">
                <g id="prefix__Group_3593" data-name="Group 3593">
                    <path id="prefix__Path_1572" d="M30.157 20a1.762 1.762 0 0 0 0 .187 1.727 1.727 0 0 0 1.818 1.631h30.453a1.762 1.762 0 0 0 .187 0A1.727 1.727 0 0 0 64.246 20V1.821a1.763 1.763 0 0 0 0-.187A1.727 1.727 0 0 0 62.428 0H31.975a1.762 1.762 0 0 0-.187 0 1.727 1.727 0 0 0-1.631 1.818zm3.636-16.361H60.61v14.544H33.793z" data-name="Path 1572"/>
                    <path id="prefix__Path_1573" d="M73.336 49.09V30.91a1.759 1.759 0 0 0 0-.187 1.727 1.727 0 0 0-1.818-1.631H31.975a1.762 1.762 0 0 0-.187 0 1.727 1.727 0 0 0-1.631 1.818v18.18a1.762 1.762 0 0 0 0 .187 1.727 1.727 0 0 0 1.818 1.631h39.543a1.759 1.759 0 0 0 .187 0 1.727 1.727 0 0 0 1.631-1.818zM69.7 47.272H33.793V32.728H69.7v14.544z" class="prefix__cls-3" data-name="Path 1573"/>
                    <path id="prefix__Path_1574" d="M64.246 60a1.763 1.763 0 0 0 0-.187 1.727 1.727 0 0 0-1.818-1.631H31.975a1.761 1.761 0 0 0-.187 0A1.727 1.727 0 0 0 30.157 60v18.179a1.762 1.762 0 0 0 0 .187A1.727 1.727 0 0 0 31.975 80h30.453a1.759 1.759 0 0 0 .187 0 1.727 1.727 0 0 0 1.631-1.818zM60.61 76.361H33.793V61.817H60.61v14.544z" data-name="Path 1574"/>
                    <path id="prefix__Path_1575" d="M22.512 8.1A7.909 7.909 0 0 0 6.886 9.82a7.727 7.727 0 0 0 6 7.727v14.726a7.909 7.909 0 0 0 0 15.453v14.727a7.727 7.727 0 0 0-6 7.727 7.909 7.909 0 1 0 9.636-7.727V47.727a7.947 7.947 0 0 0 0-15.453V17.547a7.908 7.908 0 0 0 5.99-9.447zm-3.354 62.08a4.363 4.363 0 0 1-4.363 4.272 4.272 4.272 0 1 1 0-8.545 4.363 4.363 0 0 1 4.363 4.273zM19.07 40a4.273 4.273 0 0 1-4.27 4.275h-.005A4.272 4.272 0 1 1 19.07 40zm-4.275-25.9a4.273 4.273 0 0 1 0-8.545 4.364 4.364 0 0 1 4.363 4.265 4.364 4.364 0 0 1-4.364 4.273z" data-name="Path 1575"/>
                    <path id="prefix__Path_1576" d="M37.429 10h10.454a1.818 1.818 0 1 0 0-3.636H37.429a1.818 1.818 0 0 0 0 3.636z" data-name="Path 1576"/>
                    <path id="prefix__Path_1577" d="M56.974 11.82H37.429a1.818 1.818 0 1 0 0 3.636h19.545a1.818 1.818 0 1 0 0-3.636z" data-name="Path 1577"/>
                    <path id="prefix__Path_1578" d="M37.429 39.091h10.454a1.818 1.818 0 0 0 0-3.636H37.429a1.818 1.818 0 0 0 0 3.636z" class="prefix__cls-3" data-name="Path 1578"/>
                    <path id="prefix__Path_1579" d="M37.429 44.545h19.545a1.818 1.818 0 0 0 0-3.636H37.429a1.818 1.818 0 0 0 0 3.636z" class="prefix__cls-3" data-name="Path 1579"/>
                    <path id="prefix__Path_1580" d="M37.429 68.18h10.454a1.818 1.818 0 1 0 0-3.636H37.429a1.818 1.818 0 0 0 0 3.636z" data-name="Path 1580"/>
                    <path id="prefix__Path_1581" d="M37.429 73.634h19.545a1.818 1.818 0 1 0 0-3.636H37.429a1.818 1.818 0 0 0 0 3.636z" data-name="Path 1581"/>
                </g>
            </g>
        </g>
    </g>
</svg>
