<svg xmlns="http://www.w3.org/2000/svg" width="247.487" height="247.487" viewBox="0 0 247.487 247.487">
    <defs>
        <style>
            .prefix__cls-2{fill:#5fb709}
        </style>
    </defs>
    <g id="prefix__Group_881" data-name="Group 881" transform="rotate(-45 149.372 61.872)" style="opacity:.2">
        <circle id="prefix__Ellipse_1" cx="5" cy="5" r="5" class="prefix__cls-2" data-name="Ellipse 1"/>
        <circle id="prefix__Ellipse_1-2" cx="5" cy="5" r="5" class="prefix__cls-2" data-name="Ellipse 1" transform="translate(24)"/>
        <circle id="prefix__Ellipse_1-3" cx="5" cy="5" r="5" class="prefix__cls-2" data-name="Ellipse 1" transform="translate(47)"/>
        <circle id="prefix__Ellipse_1-4" cx="5" cy="5" r="5" class="prefix__cls-2" data-name="Ellipse 1" transform="translate(71)"/>
        <circle id="prefix__Ellipse_1-5" cx="5" cy="5" r="5" class="prefix__cls-2" data-name="Ellipse 1" transform="translate(94)"/>
        <circle id="prefix__Ellipse_1-6" cx="5" cy="5" r="5" class="prefix__cls-2" data-name="Ellipse 1" transform="translate(118)"/>
        <circle id="prefix__Ellipse_1-7" cx="5" cy="5" r="5" class="prefix__cls-2" data-name="Ellipse 1" transform="translate(141)"/>
        <circle id="prefix__Ellipse_1-8" cx="5" cy="5" r="5" class="prefix__cls-2" data-name="Ellipse 1" transform="translate(165)"/>
        <circle id="prefix__Ellipse_1-9" cx="5" cy="5" r="5" class="prefix__cls-2" data-name="Ellipse 1" transform="translate(0 24)"/>
        <circle id="prefix__Ellipse_1-10" cx="5" cy="5" r="5" class="prefix__cls-2" data-name="Ellipse 1" transform="translate(24 24)"/>
        <circle id="prefix__Ellipse_1-11" cx="5" cy="5" r="5" class="prefix__cls-2" data-name="Ellipse 1" transform="translate(47 24)"/>
        <circle id="prefix__Ellipse_1-12" cx="5" cy="5" r="5" class="prefix__cls-2" data-name="Ellipse 1" transform="translate(71 24)"/>
        <circle id="prefix__Ellipse_1-13" cx="5" cy="5" r="5" class="prefix__cls-2" data-name="Ellipse 1" transform="translate(94 24)"/>
        <circle id="prefix__Ellipse_1-14" cx="5" cy="5" r="5" class="prefix__cls-2" data-name="Ellipse 1" transform="translate(118 24)"/>
        <circle id="prefix__Ellipse_1-15" cx="5" cy="5" r="5" class="prefix__cls-2" data-name="Ellipse 1" transform="translate(141 24)"/>
        <circle id="prefix__Ellipse_1-16" cx="5" cy="5" r="5" class="prefix__cls-2" data-name="Ellipse 1" transform="translate(165 24)"/>
        <circle id="prefix__Ellipse_1-17" cx="5" cy="5" r="5" class="prefix__cls-2" data-name="Ellipse 1" transform="translate(0 47)"/>
        <circle id="prefix__Ellipse_1-18" cx="5" cy="5" r="5" class="prefix__cls-2" data-name="Ellipse 1" transform="translate(24 47)"/>
        <circle id="prefix__Ellipse_1-19" cx="5" cy="5" r="5" class="prefix__cls-2" data-name="Ellipse 1" transform="translate(47 47)"/>
        <circle id="prefix__Ellipse_1-20" cx="5" cy="5" r="5" class="prefix__cls-2" data-name="Ellipse 1" transform="translate(71 47)"/>
        <circle id="prefix__Ellipse_1-21" cx="5" cy="5" r="5" class="prefix__cls-2" data-name="Ellipse 1" transform="translate(94 47)"/>
        <circle id="prefix__Ellipse_1-22" cx="5" cy="5" r="5" class="prefix__cls-2" data-name="Ellipse 1" transform="translate(118 47)"/>
        <circle id="prefix__Ellipse_1-23" cx="5" cy="5" r="5" class="prefix__cls-2" data-name="Ellipse 1" transform="translate(141 47)"/>
        <circle id="prefix__Ellipse_1-24" cx="5" cy="5" r="5" class="prefix__cls-2" data-name="Ellipse 1" transform="translate(165 47)"/>
        <circle id="prefix__Ellipse_1-25" cx="5" cy="5" r="5" class="prefix__cls-2" data-name="Ellipse 1" transform="translate(0 71)"/>
        <circle id="prefix__Ellipse_1-26" cx="5" cy="5" r="5" class="prefix__cls-2" data-name="Ellipse 1" transform="translate(24 71)"/>
        <circle id="prefix__Ellipse_1-27" cx="5" cy="5" r="5" class="prefix__cls-2" data-name="Ellipse 1" transform="translate(47 71)"/>
        <circle id="prefix__Ellipse_1-28" cx="5" cy="5" r="5" class="prefix__cls-2" data-name="Ellipse 1" transform="translate(71 71)"/>
        <circle id="prefix__Ellipse_1-29" cx="5" cy="5" r="5" class="prefix__cls-2" data-name="Ellipse 1" transform="translate(94 71)"/>
        <circle id="prefix__Ellipse_1-30" cx="5" cy="5" r="5" class="prefix__cls-2" data-name="Ellipse 1" transform="translate(118 71)"/>
        <circle id="prefix__Ellipse_1-31" cx="5" cy="5" r="5" class="prefix__cls-2" data-name="Ellipse 1" transform="translate(141 71)"/>
        <circle id="prefix__Ellipse_1-32" cx="5" cy="5" r="5" class="prefix__cls-2" data-name="Ellipse 1" transform="translate(165 71)"/>
        <circle id="prefix__Ellipse_1-33" cx="5" cy="5" r="5" class="prefix__cls-2" data-name="Ellipse 1" transform="translate(0 94)"/>
        <circle id="prefix__Ellipse_1-34" cx="5" cy="5" r="5" class="prefix__cls-2" data-name="Ellipse 1" transform="translate(24 94)"/>
        <circle id="prefix__Ellipse_1-35" cx="5" cy="5" r="5" class="prefix__cls-2" data-name="Ellipse 1" transform="translate(47 94)"/>
        <circle id="prefix__Ellipse_1-36" cx="5" cy="5" r="5" class="prefix__cls-2" data-name="Ellipse 1" transform="translate(71 94)"/>
        <circle id="prefix__Ellipse_1-37" cx="5" cy="5" r="5" class="prefix__cls-2" data-name="Ellipse 1" transform="translate(94 94)"/>
        <circle id="prefix__Ellipse_1-38" cx="5" cy="5" r="5" class="prefix__cls-2" data-name="Ellipse 1" transform="translate(118 94)"/>
        <circle id="prefix__Ellipse_1-39" cx="5" cy="5" r="5" class="prefix__cls-2" data-name="Ellipse 1" transform="translate(141 94)"/>
        <circle id="prefix__Ellipse_1-40" cx="5" cy="5" r="5" class="prefix__cls-2" data-name="Ellipse 1" transform="translate(165 94)"/>
        <circle id="prefix__Ellipse_1-41" cx="5" cy="5" r="5" class="prefix__cls-2" data-name="Ellipse 1" transform="translate(0 118)"/>
        <circle id="prefix__Ellipse_1-42" cx="5" cy="5" r="5" class="prefix__cls-2" data-name="Ellipse 1" transform="translate(24 118)"/>
        <circle id="prefix__Ellipse_1-43" cx="5" cy="5" r="5" class="prefix__cls-2" data-name="Ellipse 1" transform="translate(47 118)"/>
        <circle id="prefix__Ellipse_1-44" cx="5" cy="5" r="5" class="prefix__cls-2" data-name="Ellipse 1" transform="translate(71 118)"/>
        <circle id="prefix__Ellipse_1-45" cx="5" cy="5" r="5" class="prefix__cls-2" data-name="Ellipse 1" transform="translate(94 118)"/>
        <circle id="prefix__Ellipse_1-46" cx="5" cy="5" r="5" class="prefix__cls-2" data-name="Ellipse 1" transform="translate(118 118)"/>
        <circle id="prefix__Ellipse_1-47" cx="5" cy="5" r="5" class="prefix__cls-2" data-name="Ellipse 1" transform="translate(141 118)"/>
        <circle id="prefix__Ellipse_1-48" cx="5" cy="5" r="5" class="prefix__cls-2" data-name="Ellipse 1" transform="translate(165 118)"/>
        <circle id="prefix__Ellipse_1-49" cx="5" cy="5" r="5" class="prefix__cls-2" data-name="Ellipse 1" transform="translate(0 141)"/>
        <circle id="prefix__Ellipse_1-50" cx="5" cy="5" r="5" class="prefix__cls-2" data-name="Ellipse 1" transform="translate(24 141)"/>
        <circle id="prefix__Ellipse_1-51" cx="5" cy="5" r="5" class="prefix__cls-2" data-name="Ellipse 1" transform="translate(47 141)"/>
        <circle id="prefix__Ellipse_1-52" cx="5" cy="5" r="5" class="prefix__cls-2" data-name="Ellipse 1" transform="translate(71 141)"/>
        <circle id="prefix__Ellipse_1-53" cx="5" cy="5" r="5" class="prefix__cls-2" data-name="Ellipse 1" transform="translate(94 141)"/>
        <circle id="prefix__Ellipse_1-54" cx="5" cy="5" r="5" class="prefix__cls-2" data-name="Ellipse 1" transform="translate(118 141)"/>
        <circle id="prefix__Ellipse_1-55" cx="5" cy="5" r="5" class="prefix__cls-2" data-name="Ellipse 1" transform="translate(141 141)"/>
        <circle id="prefix__Ellipse_1-56" cx="5" cy="5" r="5" class="prefix__cls-2" data-name="Ellipse 1" transform="translate(165 141)"/>
        <circle id="prefix__Ellipse_1-57" cx="5" cy="5" r="5" class="prefix__cls-2" data-name="Ellipse 1" transform="translate(0 165)"/>
        <circle id="prefix__Ellipse_1-58" cx="5" cy="5" r="5" class="prefix__cls-2" data-name="Ellipse 1" transform="translate(24 165)"/>
        <circle id="prefix__Ellipse_1-59" cx="5" cy="5" r="5" class="prefix__cls-2" data-name="Ellipse 1" transform="translate(47 165)"/>
        <circle id="prefix__Ellipse_1-60" cx="5" cy="5" r="5" class="prefix__cls-2" data-name="Ellipse 1" transform="translate(71 165)"/>
        <circle id="prefix__Ellipse_1-61" cx="5" cy="5" r="5" class="prefix__cls-2" data-name="Ellipse 1" transform="translate(94 165)"/>
        <circle id="prefix__Ellipse_1-62" cx="5" cy="5" r="5" class="prefix__cls-2" data-name="Ellipse 1" transform="translate(118 165)"/>
        <circle id="prefix__Ellipse_1-63" cx="5" cy="5" r="5" class="prefix__cls-2" data-name="Ellipse 1" transform="translate(141 165)"/>
        <circle id="prefix__Ellipse_1-64" cx="5" cy="5" r="5" class="prefix__cls-2" data-name="Ellipse 1" transform="translate(165 165)"/>
    </g>
</svg>
